<svg id="Layer_1" data-name="Layer 1" xmlns="http://www.w3.org/2000/svg" viewBox="0 0 1927 1097"><defs><style>.cls-1{stroke:#000;stroke-miterlimit:10;}.cls-2,.cls-3{fill:none;stroke:#fff;stroke-linecap:round;stroke-linejoin:round;}.cls-2{stroke-width:3px;}.cls-3{stroke-width:2px;}</style></defs><title>Topo2</title><rect class="cls-1" x="0.5" y="0.5" width="1926" height="1096"/><path class="cls-2" d="M834.4,2c-7,7.33-14.71,14.13-20.83,22.13-8.67,11.32-16.39,23.39-24.1,35.41-6.62,10.31-10.11,21.91-12.05,33.95a76.24,76.24,0,0,1-19,39.5c-11,12.31-21.86,24.79-33,36.95-10.18,11.06-22.88,13.17-37.48,11.23-25.69-3.42-50.64-10.17-76-14.91-6.06-1.13-13.39-2.43-19,3.2a16,16,0,0,0-4.45,16c2.88,11.53,5.76,23.06,9,34.49,4.3,15.09,2.35,29.3-3.9,43.58-5.1,11.66-9.94,23.66-12.89,36-4.5,18.81-2.44,37,10.16,53A135.81,135.81,0,0,1,602.35,370c7.4,13.14,4,23.39-4.47,32.42-3.21,3.43-7.26,6.1-10.39,9.6-6.22,7-12.64,13.87-17.93,21.52-9.69,14-19.6,27.83-31.15,40.39-6.56,7.14-13.91,13.42-23.49,15.94-12.82,3.37-24.81.48-35.41-7-9-6.36-17.62-13.31-26-20.46-12.81-10.9-27.79-17.33-43.53-22.46-10.38-3.38-20.64-7.07-31-10.43A15.08,15.08,0,0,0,365,431.54c-13.78,10.4-27.49,20.91-38.59,34.38-6,7.29-12.8,14-18.36,21.6-9.8,13.43-13.81,28.4-6.9,44.33a58.16,58.16,0,0,0,11.94,17.44c14,14,22.49,31,29.46,49.09,3.93,10.22,6.7,21,13.39,30,9.37,12.62,21.47,20.65,37.49,21.42,8.82.43,17.67-.16,26.5.14,13.58.46,24.6,5.51,29.93,19a44.37,44.37,0,0,1,2.6,23.48c-1.33,8.64-2.6,17.3-3.48,26-1.22,12.14-2.64,24.31-2.88,36.49-.2,10.31.9,20.68,1.91,31a142.45,142.45,0,0,0,3.55,22.47c3.15,11.92,11.34,18.2,23.86,18.55,10,.28,20,1.24,30,.84a40.76,40.76,0,0,0,32.82-18c10.19-14.71,21.48-28.48,32.61-42.43,9.88-12.36,15.28-26.67,17.11-42.44A324.8,324.8,0,0,1,602.06,662c8.09-24.85,17-49.44,25.92-74,7.78-21.48,23.37-33.8,45.94-37,12-1.67,24-3.9,36-3.75,13.85.17,27.71,2.34,41.48,4.3,11.31,1.61,22.5,4.44,34,3.31,10.24-1,15.19-3.25,20-17.92,2.44-7.47,4.26-15.16,7.11-22.46,6.21-15.94,13-31.67,19.39-47.54,5-12.4,3.4-21.19-5.56-30.91a221.74,221.74,0,0,0-17.45-16.54c-16.34-14.26-18.11-31.58-11.52-51,4.93-14.58,10.06-29.14,13.84-44A95,95,0,0,0,812.84,285c-2-11.38-8.57-19.47-18.94-24.5a25.66,25.66,0,0,1-4-2c-4.81-3.57-6-8.33-3.48-14.46,3.52-8.39,7-16.8,11-25,6.54-13.41,17.49-19.82,32.42-21.24,12.16-1.16,23.37,2.7,35,4.24,9,1.2,18,3.08,27,3.87,12.63,1.09,25.32,2,38,1.94,10.78,0,20.25-4.13,25.39-14.39a71,71,0,0,0,6.44-17.48c2.26-11.21,3.46-22.63,5.18-34,2.35-15.43,5.05-30.74,17.48-42a44.51,44.51,0,0,1,26.52-11.82c12.94-1,26-1.13,39-1,5.84,0,11.68,1.46,17.49,2.38,11.51,1.83,16.92,10.07,20.47,20,3,8.43,5.74,17,8.52,25.49,2.86,8.78,8,16.26,14.08,22.92,12.28,13.39,23.68,27.62,38.83,38.21,6.55,4.57,7.46,11.29,1.1,17.86-8.81,9.1-19.58,15.4-30.5,21.49-5.67,3.16-11.48,6.1-17,9.55-11.17,7-16.41,17.5-18.13,30.43-2,15.2.81,30,1.93,45,1.45,19.46,7.11,38,10.69,57,1.85,9.77,1.84,19.49-1.09,29-2.82,9.12-9.27,15.35-17.42,20-20.52,11.79-41.08,23.52-61.46,35.54-8.71,5.14-17.27,10.62-25.48,16.52-11.35,8.15-19.83,19-26,31.45-7.33,14.87-16.67,28.41-26,42-9.74,14.13-16.24,29.51-17.11,47a114.91,114.91,0,0,1-2,13.5c-1.25,7.26-4.83,12.54-12,15.59-9.59,4.1-19.45,4.78-29.52,3.35C870,630,863.66,623.89,857.87,617c-5.38-6.44-10.92-12.74-16.5-19-2.38-2.68-5.31-3.83-9-2.56-3.45,1.2-4,4.06-4.48,7-3,19.23.15,37.54,8.54,55,4.22,8.76,11.62,14.75,20,18.88C874.13,685,886,698.59,892.26,717c4.17,12.28,7.36,24.9,10.48,37.49.94,3.77.57,8,.06,11.95-1.08,8.4-8.56,13-16.92,11a55,55,0,0,1-19-8c-6.52-4.48-13.23-8.7-19.46-13.56-10.9-8.51-15.45-21.05-20-33.44-5-13.64-14.57-21.09-29-23.65a90.64,90.64,0,0,0-45.55,3.07c-20,6.65-34.82,19.16-45.49,37.08-10,16.76-14.83,35.32-19.52,54-2.82,11.24-4.68,23-12,32.48-16.8,21.85-37.22,38.49-64.94,44.59a152,152,0,0,0-21,6c-13.81,5.21-21.28,16.67-27,29.42-5.41,12.08-11.66,23.52-24.61,28.83-6.49,2.66-13.68,3.55-20.42,5.7-10.23,3.27-20.83,6-30.4,10.66-16.49,8.08-18.07,18.86-16.06,35.27.88,7.2,2.67,14.3,3.37,21.51,1.24,12.76-4.05,23.2-14.53,29.82a234.23,234.23,0,0,0-46.91,38.64,44.29,44.29,0,0,1-5,4" transform="translate(4 0)"/><path class="cls-2" d="M926.88,1.5c-.66,7.5-1.07,15-2.06,22.49-1.49,11.26-7.58,13.22-15.94,13.88-13.8,1.09-27.28-1.37-40.49-5.36-7.48-2.25-14.89-5-22.53-6.29-5.24-.88-10.65.89-15.48,3.75-11.61,6.85-18.79,17.79-25.87,28.6-9.18,14-13.73,29.75-15.71,46.4-1.78,14.89-8.86,27.52-18.91,38.5-8.67,9.48-16,20-18.81,32.55-4.4,19.79-18.73,27.83-36.23,31.7-7.76,1.71-16,.16-24-2.14a275.55,275.55,0,0,0-27.48-6.51c-14.28-2.6-25.52,6.25-27.5,20.9-.86,6.35-2.2,12.64-2.93,19-1.22,10.72-6.88,19-14.07,26.46-7.36,7.62-15.08,14.78-20.08,24.47-8.73,16.92-5.94,36.82,6.07,51.58,7.19,8.84,14.52,17.64,20.92,27,10.51,15.41,7.66,32.91-7.85,44-8.71,6.21-17.19,12.76-25.46,19.54a38.47,38.47,0,0,0-8,9.45c-12.82,20.78-28,39.81-43.1,58.92-4.61,5.84-9.49,11.49-14.51,17-4.66,5.1-3.86,10.55-1.4,16,3.79,8.42,8.22,16.57,11.88,25.05,5.88,13.59,1.8,25.34-7.42,36-11.38,13.13-25.76,19.89-43,21.62a172,172,0,0,0-26,5c-7.44,1.94-8.91,5.09-6.46,12.34,2.13,6.3,5.32,12.24,7.33,18.56a68.81,68.81,0,0,1,2.19,33,243.83,243.83,0,0,0-3,26c-.7,11.31-1.38,22.68-.92,34,.52,13,1.66,25.9,5.26,38.52,3.75,13.12,13.95,22.25,29.56,22.69,13.15.37,22.28-5.6,30.56-14.66A240.72,240.72,0,0,1,544,773c12.89-11.36,24.39-23.78,29.25-40.62,2.81-9.72,4-19.93,5.64-30,1.82-11,3.78-21.95,4.93-33a152,152,0,0,1,8.62-37.48c7.63-20.53,15.75-40.78,26.29-60.11,9-16.49,22.66-25.61,40.2-29.83,12.42-3,24.88-6.24,37.51-7.81,11.86-1.48,24-.75,36-1.31,7.18-.33,14.33-1.22,21.49-2,8-.81,14.66-4.91,20.44-10,14.73-13.13,27.53-28,34.89-46.5,3.73-9.39,6.64-19.73-.93-28.84-4.8-5.78-10.7-10.63-15.86-16.12a186,186,0,0,1-14-16c-5.36-7.22-5.54-15.76-3-23.89,4.34-13.65,9.28-27.13,14.44-40.5,4.32-11.18,7.23-22.55,5.82-34.52-1.15-9.72-6.73-17-14.36-23.05-8.65-6.81-17.22-13.75-25.46-21-4.71-4.16-7.34-9.77-9.18-15.89-2.28-7.55.21-14.37,2.75-21a210.42,210.42,0,0,1,10.92-23c5-9.33,12.68-15.83,21.86-21.15,17.21-10,35.81-12.47,55.06-11.24,10.89.7,21.16,4.4,31,9.28,10.64,5.25,22.18,8.5,34,8.38,23.72-.26,39.69-8.56,49.27-34.38,3.7-10,5.12-20.87,7.16-31.43,2.37-12.28,3.44-24.9,10.07-36,7.12-11.9,18.27-17.63,31.5-18.84,11.93-1.09,24-.56,36-1.23s24-2.67,34-10.4c4.73-3.64,9.65-7,14.48-10.53,6.06-4.37,12.73-3.43,18.4-.31a77.29,77.29,0,0,1,24,20.86c4.08,5.31,3.48,11.26.51,16.92-1.56,3-3.66,5.67-5.44,8.53-7.41,11.89-8,24.11-.42,35.93,8.49,13.18,18.91,24.85,33.51,31.32a40.69,40.69,0,0,0,19.36,3.41c9.47-.88,15.12-8.17,15.78-17.19a322.83,322.83,0,0,0,.07-39.47c-.35-7.24,3.23-16.28,10.74-19.34a101,101,0,0,1,19.95-5.57c22.64-4.15,45.55-4.08,68.48-4.26,15-.11,23-5.4,24.87-23.34,1-9.92.79-20,1.13-30q.48-14.51,1-29" transform="translate(4 0)"/><path class="cls-3" d="M1920.26,643.92c-8.5,1-17,2.47-25.5,2.88a306.06,306.06,0,0,1-31.48,0,90.57,90.57,0,0,1-22-3.53c-14.75-4.62-21.2-14.93-22.58-31.81-1.23-15.1,3.87-29.17,7.2-43.46a63.83,63.83,0,0,0,1.66-20.52,18.82,18.82,0,0,0-9.85-15c-12.47-7.07-30.46-7.49-39.31,5.59-4.17,6.15-6.73,13.46-9.62,20.4-4.63,11.1-8.64,22.41-15.46,32.54-7.52,11.14-17.35,18.47-30.59,20.89-8.46,1.55-17,3-25.5,4-20.26,2.46-38.93,8.2-54,23-13.67,13.37-23.76,28.91-29.34,47.09-6,19.43-18.67,31.59-37.58,38-7.51,2.54-15,4.56-23,5-12.37.73-23.13-3.84-33.46-9.64-9.87-5.55-19.74-10.82-31-13a69.34,69.34,0,0,0-26.51,0c-15.63,3-31.4,5.37-47,8.64-19.38,4.07-36.56,12.39-47.92,29.47-5.52,8.31-7.44,17.8-7.76,27.93-.52,16.37,4.28,30.64,14.72,43,11.16,13.15,25.31,18.47,42.44,14.54,9.18-2.11,18.29-4.56,27.51-6.42,7.6-1.53,15.33-2.38,23-3.58,10-1.57,19-6.06,27.42-11.11A160.38,160.38,0,0,1,1546.82,789c18.66-3.6,34.91,1.4,48.52,14.89a105.35,105.35,0,0,0,13,11.45c8.43,6,14.05,3.37,19.87-3a60.62,60.62,0,0,0,7-10c7-11.81,18.08-17.36,31-18.19,7.12-.45,14.83,1.53,19.39,8.27a13.56,13.56,0,0,1,1,14.36,136.39,136.39,0,0,1-12.44,18.51c-8.23,10.34-13.8,22-19,34-3.06,7.12-6.77,14-9.91,21-5.28,11.91-9.1,24.25-8.44,37.47a26.42,26.42,0,0,0,2.54,10.43c2.87,5.61,8.28,7.53,14.36,7.56,9.17,0,18.35-.37,27.49.11,10.86.58,21.68,1.86,32.5,2.92,5.68.56,11.32,1.65,17,1.9,7.65.33,15.33.26,23,0a77.85,77.85,0,0,1,36.4,7.74c14,6.78,28.91,10,43.58,14.32,12.15,3.58,23.61,8.8,32.42,18.06,13.5,14.17,14.45,30.08,8,48.37-5.3,14.94-15.54,27.11-24.36,40.05-2.45,3.59-4.69,7.32-7,11" transform="translate(4 0)"/><path class="cls-3" d="M499.44,2c.5,1.17,1.38,2.31,1.44,3.5.44,9.5.57,19,1.11,28.49.4,7,1.62,14,1.86,21,.34,9.37-2.35,13-11.42,16.47-4.62,1.79-9.29,3.47-14,5-10.08,3.25-9.45,10.18-7.86,18,1.56,7.62,4.74,14.92,6.23,22.55,1.63,8.38,2.2,17,3.11,25.47a107.51,107.51,0,0,1,1,13.5c-.34,16.64-4,32.2-18.52,42.37-10.9,7.63-22.45,14.36-33.95,21.05-10.71,6.24-21.66,12.21-28.88,22.63A46.09,46.09,0,0,0,392,279a23,23,0,0,0,6.49,12c2.87,2.8,5.61,5.73,8.52,8.48,6.82,6.42,5.72,13-.52,18.5-4.79,4.21-9.82,8.17-14.46,12.54-9.42,8.88-14.37,20.26-18.11,32.44-3.35,10.87-4.28,22.5-10.36,32.55a16.66,16.66,0,0,1-16.06,8c-15-1.83-28.82-7.48-43-12-13.15-4.25-26.7-7.06-40.46-5.37-20.45,2.5-37.57,11-47.51,30.34-2.72,5.3-5.73,10.51-7.92,16a45.29,45.29,0,0,1-17.68,21.32c-14,9.16-18.58,22.49-20,38.13-1.52,16.71-3,33.5-6.14,50C161.86,557.1,155,570.81,143,581.47A36.19,36.19,0,0,1,127,589.86c-7.92,1.87-15.09-2.44-18.31-12a85.61,85.61,0,0,1-4.49-22c-.94-15.13-.79-30.32-1.21-45.48-.15-5.34-.84-10.67-.93-16-.16-9.05,3.44-14.31,12-17.47,11.43-4.25,23-8.12,33-15.48,15.06-11.05,16.77-22.43,14.34-37-3.56-21.38-20.21-31.6-39.86-31.47a57.67,57.67,0,0,0-12,1,22.84,22.84,0,0,0-16.05,11.89c-4.74,8.91-10.63,17-20,21.39A31.12,31.12,0,0,1,62,429.83c-6.7.33-10.35-5.29-7.44-11.35a43.68,43.68,0,0,1,15.93-18.05c2.09-1.36,3.9-3.16,6-4.45,9.63-5.87,12.54-15.14,12.37-25.52-.16-9.51-1-19-2-28.5a103.47,103.47,0,0,0-3-18c-3.39-11.88-10.43-21.82-17.83-31.57-6.28-8.28-12.76-16.56-17.84-25.57C43.84,259.1,41.32,250.31,38,242c-2.85-7.16-5-14.71-8.66-21.41C23.46,209.88,12.61,206.46,1.5,204" transform="translate(4 0)"/><path class="cls-2" d="M1920.26,658.92c-4.67.66-9.31,1.65-14,1.94-13.66.83-27.36,1.06-41,2.16-12,1-24.7,1.12-33.87,10.52-5.85,6-10.14,13.49-15.72,19.79a152.75,152.75,0,0,1-17,16.46c-4.87,4-11.13,4.71-17.4,4.12s-9.21-4.86-10.9-10a47,47,0,0,1-2.48-13c-.23-9-1.23-18.3,2.43-27a126.27,126.27,0,0,1,7.53-15.47c4.43-7.48,6.38-15.47,7-24,.67-9.54,2-18.85,6.78-27.59,3.93-7.25,6.62-15.19,9.57-22.94a14.8,14.8,0,0,0,.93-7.44c-.47-2.63-1.55-6.2-3.5-7.25-2.69-1.45-6.46-.16-8.26,2.77a107.74,107.74,0,0,0-8,15c-3.35,8-5.29,16.71-9.29,24.35-5.17,9.86-14.11,16.42-24.35,20.48-10.82,4.3-22.39,5.79-33.94,7.17-15.45,1.84-30.78,4-44.53,12.39-16.26,9.86-24.76,24.85-29.45,42.56-2.77,10.47-4.61,21.26-8.27,31.4-2.47,6.82-7.48,12.72-11.21,19.11-1.38,2.37-3,4.87-3.42,7.5-1.23,7.06,4.22,11.65,13.39,12,12,.46,23.53-2.61,35-5.63,7.32-1.94,14.53-3.26,22-1.88,9.68,1.79,16.45,7.72,22,15.47a48.37,48.37,0,0,1,9.24,27,32.11,32.11,0,0,1-6.84,21.42c-5.66,6.95-11.45,13.92-18,19.95-11.74,10.78-18.3,24.71-24.77,38.67-3.81,8.2-7.47,16.72-9.37,25.49-2.49,11.55-1.89,19.92,13.29,24.3a109.73,109.73,0,0,0,23,4,275.05,275.05,0,0,0,30,.07c8.85-.37,17.65-1.8,26.5-2.36,15.85-1,31.85-4.32,47.45,1.09a56.84,56.84,0,0,1,14.48,8c13.63,10,28.8,17,44,24,8.66,4,17.11,8.44,25.5,13,7.2,3.9,9.53,10.62,10.08,18.44,1.47,21.3-4.12,41.09-13.2,59.93-4.69,9.72-10.86,18.73-16.35,28.07-1.36,2.31-2.67,4.66-4,7" transform="translate(4 0)"/><path class="cls-3" d="M1026.87,1080.36c-6-15-18.46-21.38-33-25.6a191.22,191.22,0,0,1-26-9.52c-10.35-4.73-15.93-13.61-15.82-24.87.06-6.84,1.78-13.87,3.9-20.45,4.26-13.23,9.26-26.22,11.32-40a102.75,102.75,0,0,0,0-29c-2.34-17.39-10.21-32.92-16.46-49-3.81-9.78-7.24-19.7-11.06-29.48-5.93-15.21-14.75-28.46-29.09-36.79-5.4-3.14-12.13-4.23-18.39-5.63-9.77-2.18-19.33.55-29,1.71-5.25.64-11.35,2-15.9-2.38a35.9,35.9,0,0,1-6-8.44c-6.28-11.26-12.82-22.42-18.39-34-3.8-8-6.2-16.57-9.14-24.93-5.46-15.51-15.47-26.39-32-29.33a56.17,56.17,0,0,0-32.51,3.73c-26.38,11.25-38.81,33-45.29,59.14-2.3,9.26-2.93,18.95-4.13,28.46-1.64,13-4.51,25.32-15,34.53-10.64,9.34-20.76,19.28-31.6,28.38-12.22,10.24-27.24,14.36-42.39,18.24a75.55,75.55,0,0,0-19.44,8c-8.89,5.24-12.46,14.65-16.16,23.81-2.82,7-5.66,14.06-9.56,20.44-7.27,11.88-18.67,16.7-32.36,17.71-11.36.85-22.83,1.88-32.56,9.3-6.94,5.29-10.71,12.17-10.79,20.57-.07,7.49,1.36,15,1.81,22.5.82,13.94-4.43,25.62-14.53,34.92-7.65,7-16.32,13-23.8,20.2-5.5,5.31-9.79,11.87-14.62,17.86" transform="translate(4 0)"/><path class="cls-3" d="M1.5,647.92c6.5,2.83,13.24,5.21,19.44,8.6a48.79,48.79,0,0,1,23.53,28.4c4.12,12.46,8.55,24.85,11.85,37.54,2.38,9.16,1,18.64-.78,28-1.73,9.12-3.91,18.28-4.34,27.49-.63,13.44,7.48,24.79,17.79,27a37.69,37.69,0,0,0,23.43-2.64c21.82-9.83,39.59-24.89,51.86-45.46,6-10,13.5-17.8,23.74-22.8,12.59-6.15,20.67-16.45,27.44-28.09,9.52-16.38,20.36-31.74,33.45-45.54,7.42-7.83,16.87-8.41,26.05-2.93,24.15,14.42,37.07,36.28,42,63.47,2.32,12.7,5.06,25.32,7.45,38,2.23,11.88,4.36,23.83,3.47,36-1.06,14.35-8.4,25.15-20.5,32.41-11.07,6.63-23.46,10.06-35.94,13.1-16.18,3.94-32.24,8.4-48.53,11.83-9.65,2-19.61,2.77-29.47,3.58-12,1-24,1.25-36,2.12-9.46.68-16.62,5.69-18.22,16a130,130,0,0,0,.6,45c2.14,11,9,18.76,16.16,26.43,13.16,14.16,26.85,27.82,39.87,42.1,10.24,11.23,17.27,24.55,22,39q6.65,20.11,12.44,40.51c1.22,4.29,1.11,9,1.61,13.46" transform="translate(4 0)"/><path class="cls-3" d="M224,1080.36c-1.66-8.16-2.66-16.54-5.15-24.45-4.29-13.66-9.22-27.15-14.43-40.51-5.65-14.49-14.4-27.15-24.37-39.06-9.29-11.09-17.88-22.7-23.07-36.45-2.62-7-4-14.25-2.8-21.48,1.25-7.55,6.61-12.71,12.8-17.06,14.75-10.36,31.06-17.83,47-26,21.22-10.84,43.76-17.63,67-22.59,6.66-1.42,13-4.27,19.53-6.38,13.84-4.48,19.59-15.39,21.3-28.53a161.25,161.25,0,0,0,1-30,214.4,214.4,0,0,0-8.28-48.52c-4.4-14.93-9-29.85-12.39-45-3.66-16.14-11.51-29.63-22.68-41.44-5.35-5.64-10.93-11.07-16.48-16.51C247,620.8,223.69,623.81,209.59,638a70.39,70.39,0,0,0-11,15.45c-6.67,12-12.48,24.43-19.18,36.39-7,12.51-18.41,17.36-32.42,17.07-7.67-.15-15.24-.2-22.56,3.35s-10,9.36-11.5,16.61c-1.44,6.84,0,14.33-4.44,20.5-1.6,2.21-3,4.81-5.06,6.41-5,3.84-9.43,1.61-10.87-3.42a37.65,37.65,0,0,1-1.5-9c-.32-9.42,1-19-3.06-28-2.67-5.83-5.41-11.63-8-17.5-3.42-7.8-4.71-16-5.05-24.49-.18-4.84-.53-9.68-1-14.5-.77-8-5.29-13.1-13-14.93s-15.39-2.77-23-4.64c-11.73-2.9-23.34-6.27-35-9.41a5.78,5.78,0,0,0-1.5,0" transform="translate(4 0)"/><path class="cls-2" d="M1200.35,1079.86a127.39,127.39,0,0,1,44-15.89c5.72-1,11.67-.53,17.48-1.15,10.44-1.12,21.05-.94,31-5.35a55,55,0,0,0,25.44-22.61c7.69-12.75,10.89-26.78,12.7-41.46a92.09,92.09,0,0,0-2.38-35.47,70.8,70.8,0,0,0-8.44-19c-9.26-14.76-19.07-29.17-29-43.52a43.32,43.32,0,0,0-9.5-9.94c-4.72-3.53-10.21-4.66-15.92-1.63-5.46,2.89-11.14,5.41-16.46,8.56-19.06,11.29-32.49,3.24-42.47-11.09-6.12-8.79-11.39-18.2-17.64-26.89-6.75-9.4-16.63-14-27.91-15.53-6.14-.85-12.41-2.34-18.47-1.82a230.52,230.52,0,0,0-31,4.93c-9.64,2.17-18.93,5.94-28.57,8.18-4.93,1.15-10.32.95-15.45.58-9-.66-18-2.13-27-2.85-12.06-1-22.69-5.51-33-11.46-12.21-7-23.63-15.7-37.47-19.48a38.07,38.07,0,0,0-12-1c-4.06.22-6.95,3.78-6.39,8.36,1.1,9,2.06,18.25,4.55,27,5.1,17.83,11.15,35.39,16.83,53,5.24,16.3,8.26,33,10.67,50,2,14.33-.53,27.51-6.08,40.55a80.32,80.32,0,0,0-4,14c-1.74,7.74,2.63,16.72,10.49,20.38s15.91,6.55,24,9.58c17.58,6.62,28.93,19.24,35.46,36.53a31.65,31.65,0,0,1,1,5" transform="translate(4 0)"/><path class="cls-3" d="M989.38,1079.86c-10.17-5.16-20.45-10.12-30.45-15.58a90.86,90.86,0,0,1-15-10c-6.67-5.58-8.75-13.3-9.19-21.89-.67-13,3.74-24.87,7.1-37,3.88-14,8-27.91,11.42-42,3.33-13.81,1.56-27.41-3.93-40.47-7.59-18-15.14-36.07-23.05-54a46.86,46.86,0,0,0-17.45-20.48c-10.79-7.07-21.77-5.1-33-.64-10,4-20.09,8-30.52,10.31-8.69,1.9-17.93,1.51-26.93,1.72-10.69.26-16,3.37-18.85,13.6a197.05,197.05,0,0,0-5.52,28c-1.53,12.27-1.86,24.68-3.24,37a87.75,87.75,0,0,1-4.07,19.45c-2.4,6.8-5.72,7.69-12.82,6.09-23.34-5.27-36.13-20.72-42-43-3.25-12.35-6.32-24.77-10.14-36.95-1.51-4.81-4.47-9.31-7.43-13.48-4.17-5.89-12.7-6.48-19.79-2.84-8.17,4.19-16.29,9.21-22.94,15.46-13.7,12.87-30,19.84-47.64,24.9a74,74,0,0,0-16,6.52c-10.48,5.93-13.8,16.55-16,27.4s-6.25,20.7-13.63,28.94c-6.45,7.19-13.22,14.1-20,21a25.67,25.67,0,0,1-20,8A43.64,43.64,0,0,0,530,990c-7.39,1.23-12.24,5.27-14.1,12.9-1.41,5.77-3.48,11.39-5.44,17-3.5,10.06-9.74,18.35-17,26S479.22,1061,472.54,1069c-2.78,3.31-4.43,7.58-6.6,11.41" transform="translate(4 0)"/><path class="cls-3" d="M1161.35,1079.86c11.1-12.11,25.92-17.37,41-21.93,7.73-2.34,15.58-4.37,23.5-6,7.07-1.43,14.29-2.25,21.48-3,9-1,18-1.37,27-2.62,15.4-2.15,26-11.37,33.45-24.45,8.15-14.41,10.61-30.31,8.85-46.44s-10.57-28.95-23.28-39c-9.25-7.32-19.51-12-31.51-11.43-8.67.38-17.32,1.59-26,1.88-16.35.54-28.22-6.55-35.55-21.4-4.35-8.83-9.22-17.39-14-26-6.26-11.4-14.26-20.73-27.47-24.57-17.78-5.16-34.39-2.58-50.56,6-6.18,3.27-12.75,6.35-19.51,7.78-4.65,1-10.08-.46-14.91-1.78-12.8-3.51-25.82-5-39-6a147.67,147.67,0,0,1-35.51-7.38,49.65,49.65,0,0,0-5.5-1.5c-7.46-1.54-13.11,2.79-12.89,10.48a107.54,107.54,0,0,0,2,18c3.09,15.55,6.16,31.12,10.07,46.48,2.52,9.87,6.4,19.41,9.87,29,4.05,11.17,3.35,22.5,2.07,34-1.39,12.49,2,23.27,12.35,31.54,13.68,11,27.46,22,36.44,37.5,4,6.8,6.77,14.27,10.11,21.43" transform="translate(4 0)"/><path class="cls-2" d="M1649.79,1080.36c-6.29-17.16-15-33.15-24-49-4.35-7.6-11.65-12.15-19-16.51-10.83-6.46-15.73-15.91-16.12-28.51-.42-13.88,3.74-26.18,11.2-37.46a99.9,99.9,0,0,0,15.69-41.07c1.45-10,3.24-20.5-1.28-30.45a50,50,0,0,0-4-8q-13.1-18.87-26.46-37.52c-6.61-9.26-14.61-16.93-25.49-21-14.51-5.42-29-3.8-42.92,1.66a94.1,94.1,0,0,0-20,11.43,295.69,295.69,0,0,1-37.57,22.39,23.6,23.6,0,0,0-3.49,2c-7.45,5.68-9.33,12.05-1.43,18.89,5.75,5,12.28,9,18.41,13.6,14.56,10.83,20.88,25.48,21.66,43.48,1,22.58-6.06,43.06-14.08,63.52a248.46,248.46,0,0,0-9.41,28c-2.06,8-1.14,16.28-.17,24.45.87,7.33,1.8,14.65,2.46,22,.54,6,.71,12,1,18" transform="translate(4 0)"/><path class="cls-3" d="M329.46,1079.86c9.09-9.63,20.58-13.57,33.48-15.12,12-1.44,24.6-.63,35.49-7.4,4-2.47,8.12-4.85,11.44-8.06,9.59-9.29,19.39-18.15,31-25,17-10,11.74-27.81,2.88-37.77-4.06-4.56-10.39-4.34-16.34-3.18a136.14,136.14,0,0,1-15.5,2.46c-8.23.62-15.93-2.09-23.47-5-8.72-3.32-16.73-7.68-23.63-14.33-7.41-7.15-11.65-16-15.26-25.17-5.31-13.47-9.59-27.35-14.7-40.91-3.05-8.12-6.83-16.22-15-20.38-4.91-2.5-10.51-4.6-15.93-4.95-22.67-1.48-43.78,3-62,17.74C232.1,900.74,220.36,905,208.51,909c-6.69,2.26-13.5,4.82-19.44,8.55-12.83,8.07-15,20.71-10.08,34.34,4.71,13.15,14.14,23.33,22,34.48a107.75,107.75,0,0,1,13.56,26c5.56,15.59,11.94,30.9,17.26,46.57,2.31,6.84,2.83,14.28,4.16,21.44" transform="translate(4 0)"/><path class="cls-3" d="M1920.26,680.91c-17.16.34-34.33.52-51.49,1.06a37.47,37.47,0,0,0-24.94,10.51A160.77,160.77,0,0,0,1828.35,709c-12.71,15.93-29.52,25.64-48.06,33-5.56,2.19-11.13,4.41-16.49,7-10.09,4.92-14.34,13.62-15,24.44-.64,10.17-.84,20.4-2.14,30.48-1.23,9.48-6.61,17-14.38,22.48-7.54,5.34-15.41,10.22-23,15.57-13.75,9.75-22.25,23.2-25.94,39.48-4.22,18.55,7.07,26.32,24.87,23.67,14.56-2.16,28.68-7.13,43-10.66,12.13-3,24.2-6.48,36.52-8.31,12.49-1.86,23.75,2.48,32.94,11.31,7,6.69,13.49,13.85,20.57,20.41,7.82,7.24,16.8,12.1,28,12.12,8.45,0,14.86-4.19,20.42-9.64a111.92,111.92,0,0,0,27.07-41.92c1.1-3,2.17-6,3.25-9" transform="translate(4 0)"/><path class="cls-2" d="M518.94,1.5c-1.51,20.42,4.73,39,13.43,57,4.53,9.41,6.63,19.63,7.46,30,.55,7-3.83,11.42-11.38,13.54-5.58,1.56-11.41,2.88-16.43,5.6-11.63,6.29-14.11,19.88-12.87,30.32.61,5.14,2.94,10.29,5.4,15,4.71,9,13,10,21.88,5.06,10.81-6,14.38-16.29,16.51-27.49.93-4.85,1.68-9.76,3.08-14.48s5.46-6.5,10.42-5.55c12.34,2.35,22.62,9.1,33,15.57,21.9,13.71,45,25,69.57,32.77a118.93,118.93,0,0,0,27.46,5c13.84,1,26-4.24,35.9-13.88,9.36-9.13,18.12-18.88,27.07-28.43,10-10.7,14.17-24.23,17.42-38A107.22,107.22,0,0,1,781.34,50c7.26-11.34,14.14-22.92,21-34.49,2.58-4.35,4.71-9,7-13.47" transform="translate(4 0)"/><path class="cls-3" d="M1456.82,1080.36c.33-9.49,1-19,.89-28.49-.14-8.51-1.55-17-1.81-25.5-.32-10.42,2.09-20.54,5-30.48,3.63-12.56,8.1-24.89,11.29-37.55a66.12,66.12,0,0,0,.73-28.47c-2.06-11-9-18.07-18.1-23.44-10.53-6.24-22.15-9.93-34-12.33a43.73,43.73,0,0,0-18.4,0c-16.69,4-31.37.8-45.13-9.1-3.62-2.61-8.14-4.12-12.45-5.53a13.46,13.46,0,0,0-13.91,3,12.49,12.49,0,0,0-3.44,13.89,146.11,146.11,0,0,0,9.51,21.47c5.87,10.36,9.13,21.15,8.91,33.07-.19,10.66.48,21.36-.15,32-1.25,21-3.88,41.88-13.5,60.94-8,15.8-19.43,28.32-37.4,33-4.22,1.1-8.85.8-12.94,2.2-7.18,2.45-14.36,1-21.54,1.11" transform="translate(4 0)"/><path class="cls-3" d="M574.93,1080.36q3.24-10.48,6.5-21c1.45-4.66,5.24-6.61,9.51-7.44,9.63-1.86,19.47-2.79,28.94-5.22a251.87,251.87,0,0,0,32.48-10.47c24.25-9.88,43-27.07,59.58-46.84,3.33-4,6.95-7.71,10.48-11.52,5.67-6.12,6.92-13.27,4.44-21-5.11-15.91-10.12-31.9-19.48-46-4.1-6.17-8.89-12.06-17-12.36a42.73,42.73,0,0,0-15.44,2c-12.83,4.52-25.48,9.62-38,14.9-10.65,4.48-16.06,12.83-17.1,24.43-1.22,13.59-6.27,25-17.81,33.65-14.89,11.13-21.26,27.19-23.19,45.33a72,72,0,0,1-3,13.49c-1.79,5.83-5.78,8.6-11.93,8.47-5.84-.12-11.67-.57-17.5-1a42.26,42.26,0,0,0-27.5,7.51c-11.42,7.84-22.07,16.44-28,29.5a25.89,25.89,0,0,0-1,3.49" transform="translate(4 0)"/><path class="cls-3" d="M1821.27,1079.87c8.67-11,17.42-21.94,26-33,5.27-6.84,10.43-14,12.39-22.5,4-17.2-.54-29.12-16.87-38.95-7.51-4.51-15.87-5.9-24.48-6.56-12.33-.93-24.39-3.12-35.5-9-9.08-4.77-18.52-8.11-29-7-4.68.51-9.46.82-14,2.08-7.84,2.18-14.45-1-21-4.17-9.16-4.49-18.19-9-28.51-10.53-14.12-2.15-36.43,3.76-44.57,17.55a25.85,25.85,0,0,0-3.91,16c.71,7.14,6.44,12.32,15.48,14,12.23,2.24,24.63,2.51,37,1.9a182.39,182.39,0,0,0,23.49-3c7.37-1.33,12.9,1.54,17.43,6.66a53.31,53.31,0,0,1,7.51,11c7.85,15.41,15.47,30.93,23,46.47,3,6.24,5.7,12.65,8.53,19" transform="translate(4 0)"/><path class="cls-3" d="M298.46,1079.86c9.11-13.51,20.94-23.77,36.54-28.87,8.27-2.7,17-3.82,25.43-6.22a90.8,90.8,0,0,0,16.47-6.49c10.54-5.46,12.33-17.92,8-28.4-3.19-7.78-9.16-13.34-15.5-18.48-12.67-10.29-22-22.84-27-38.5-3.58-11.08-7.08-22.24-11.59-33-5.45-13-13.92-23.75-28.88-25.87A53.82,53.82,0,0,0,266,901.43a91.57,91.57,0,0,0-13,9c-9.1,7.95-19.83,12.6-31.05,16.44-4,1.38-8.1,2.78-12,4.52-15.27,6.82-15.6,19.24-8.91,31.4,3.21,5.84,7.39,11.19,11.43,16.53,8.64,11.41,13.42,24.44,17.64,38s10.11,26.28,14.71,39.59c2.62,7.61,4.11,15.62,6.11,23.45" transform="translate(4 0)"/><path class="cls-3" d="M351.46,2A13.67,13.67,0,0,0,349,4.52C342.92,15,333.45,21,322.46,25c-4,1.48-8,3.07-12,4.48C300.73,32.9,295.61,40.19,295.15,50c-.43,9-.72,18,1.62,27C299.84,89,307.15,96.93,318,100.77,332.73,106,348,109.56,363,114c12.44,3.71,24.77,7.74,36,14.48,9.8,5.88,12.6,15.57,14,26,1,7.5,1.6,15.08,3.08,22.48,2.71,13.52,10.78,13.64,20.36,11.29,10.35-2.55,17-10.32,20.51-20.29,5.19-14.6,6.87-29.28-2.57-42.9-3.46-5-8-9.31-12.43-13.53-13.58-13-13.24-34.11-.34-47.43a205.4,205.4,0,0,1,24-21C475.79,35.4,481,25.21,482.9,13c.6-3.79.71-7.66,1-11.49" transform="translate(4 0)"/><path class="cls-2" d="M2,666.42c4.67,4.33,9.73,8.31,13.91,13.07,8.22,9.33,11.16,21,13,32.94a168.72,168.72,0,0,1,2,24.48c.07,14.49-1,29-.77,43.49.21,16.12,3,31.84,11.44,46,4.38,7.33,9.42,14.27,13.91,21.54,7.78,12.6,15.17,25.44,23.09,37.94,6.16,9.72,8,20.35,8.48,31.53.62,14.57,7.47,25.48,19.94,33,11.4,6.9,22.94,13.6,33.95,21.07,14.07,9.57,27.45,20.24,36.44,35a143.63,143.63,0,0,1,19.56,53.43c1,6.77,1.39,13.65,2.06,20.48" transform="translate(4 0)"/><path class="cls-2" d="M565.43,2c-5.88,5.57-8.29,12.82-9.45,20.51-1.54,10.32,2.51,19.52,7.59,27.9,9.08,15,19.39,29.18,31.91,41.53a112.61,112.61,0,0,0,42.44,26c10.15,3.55,20.16,7.65,30.54,10.35,15.61,4.08,29,.13,39-13.32,8.36-11.27,17.34-22.1,25.35-33.6,6.14-8.82,8.14-19.41,9-29.93.84-10.25-4.83-15.5-16.37-15.37a123.42,123.42,0,0,0-23,2c-12.23,2.47-23.35-.83-34-5.79A123.45,123.45,0,0,1,630.89,5.53,37.72,37.72,0,0,0,626.42,2" transform="translate(4 0)"/><path class="cls-3" d="M541.93,1.5c-6.58,15.66-4.69,30.74,3,45.5,9.09,17.48,18.5,34.74,33,48.47,15.61,14.76,32.94,26.92,53,35.05,9.75,4,19.22,8.62,29,12.38,11.77,4.5,24,7.31,36.41,2.95,5.79-2,12-4.54,16.37-8.57,10.45-9.53,20.73-19.36,28.72-31.26A93.31,93.31,0,0,0,754,78c4.49-16.51,12.31-31.58,21.37-46C780.94,23.12,785.6,13.82,788,3.51c.13-.58.95-1,1.45-1.51" transform="translate(4 0)"/><path class="cls-3" d="M1439.82,1080.36c1.33-8.33,3-16.62,3.87-25,.63-6.44.21-13,.11-19.49a214.37,214.37,0,0,1,7.39-58.53,101.19,101.19,0,0,0,3.47-22.46c.53-15.19-8.77-26.38-23.84-30-11.9-2.85-23.28-.63-33.94,4.6-11.05,5.43-21,12.47-27.55,23.39-5.33,9-7.82,18.89-9.44,29-2.55,15.79-5,31.61-7,47.49a192.43,192.43,0,0,1-7.64,36.47c-1.59,4.92-3.62,9.68-5.46,14.51" transform="translate(4 0)"/><path class="cls-3" d="M192,1.5c-2.55,12-6.09,23.65-13,34C171.33,47,160.9,51.9,145,49.21c-13.84-2.33-26.17-8.27-39-13.23C98.4,33,90.76,31,82.48,32.46,72.16,34.3,66.65,41,64,50.5,60.66,62.68,61.8,74.87,64.5,87c2.46,11,5.26,21.94,7.43,33,3.11,15.92,1.23,30.89-9.4,44-4.05,5-7.91,10.16-11.49,15.5-6.48,9.67-15.86,10.72-26,8.89C17.11,187,9.33,184.81,1.5,183" transform="translate(4 0)"/><path class="cls-3" d="M844.39,1079.86c-3-4.66-6.1-9.26-9-14-5.87-9.71-6.75-20-4.11-31,2-8.22,2-16.43-3.93-23.46a26.47,26.47,0,0,0-4-4c-8-6.08-13.77-4.35-17,5-1,2.84-1.69,5.83-3.06,8.47-3.74,7.25-10.47,10.11-18.41,7.43a80.55,80.55,0,0,1-14-6.47c-7.47-4.25-14.52-9.26-22.08-13.33-8.2-4.42-16.76-3.28-24.92.47a74.13,74.13,0,0,0-13.47,7.51c-21.66,16.15-45.81,27.3-71,36.45-8.08,2.94-16.15,6-24,9.55a39.77,39.77,0,0,0-19,17.41" transform="translate(4 0)"/><path class="cls-3" d="M168,1.5a39.91,39.91,0,0,1-9.09,18.92c-7.33,8.51-17.17,10-27.36,6.92-7.74-2.37-15.16-5.93-22.52-9.4a82.84,82.84,0,0,0-38.52-8c-11,.34-17.75,6.09-19.47,17-2.14,13.61-3,27.24-1.08,41,1.91,13.46,3.88,27,4.87,40.5.58,8,1.94,16.46-2.37,23.95-7,12.07-21.06,17.83-35.95,12.05-5-1.93-10-3.68-15-5.52" transform="translate(4 0)"/><path class="cls-3" d="M1105.86,1.5c-.86,21.53,10,36.6,27.61,46.8,14,8.12,29.64,12.13,45.87,13.77,12.38,1.26,24.65,3.46,37,4.85,9,1,18,2.09,27,1.89,9.84-.23,19.49-2.1,28.55-6.72,9.48-4.83,14-12.73,15.94-22.6a179.21,179.21,0,0,0,3-38" transform="translate(4 0)"/><path class="cls-2" d="M369,1.5C364.84,17,355.31,28.19,341.48,36c-4.82,2.73-9.36,5.94-14,9-14.25,9.23-14.21,25.75.51,36,9.34,6.49,20,9.88,31,11.88a166.81,166.81,0,0,0,22.48,2.06c8.77.38,15.89-3.19,21-10.45,2.14-3.06,4.16-6.23,6-9.49,7.25-12.88,18-22.61,29.09-31.91,13.21-11.09,24.59-23.26,29-40.56.06-.24.63-.34,1-.51" transform="translate(4 0)"/><path class="cls-3" d="M2,446.44c5.5,3.34,10.86,6.92,16.53,9.94,8.54,4.56,17.38,8.58,25.94,13.1,9,4.75,15.48,12.48,22,20a214,214,0,0,1,13,17.46c4.65,6.71,6.08,14.47,6.55,22.47,1.27,21.87-3.82,42.61-11,63-3.6,10.24-12,18.41-25,17.43a171.76,171.76,0,0,1-18.49-2.49c-9.94-1.86-19.82-3.93-30-3.45" transform="translate(4 0)"/><path class="cls-3" d="M183,1080.36a94.56,94.56,0,0,0-7.5-55C164.85,1001.74,145.84,987.85,122,980c-11.51-3.8-23.16-7.52-35-9.82a34.39,34.39,0,0,0-25.46,4.72c-10.32,6.6-20.81,13-33,15.41-8.89,1.72-18,2.44-27,3.61" transform="translate(4 0)"/><path class="cls-3" d="M1619.8,1080.36c-2.61-11.17-7.62-21.14-16.6-28.36a87.9,87.9,0,0,0-18.46-11.48c-13.74-6.26-22-16.85-27-30.64a106.07,106.07,0,0,0-4.51-11c-4.77-9.68-13.57-13.9-23.48-14.84-17.85-1.7-26.62,5.21-34.62,23.26-7.18,16.23-3.65,30.76,4.66,45,5,8.68,9.07,17.6,8,28" transform="translate(4 0)"/><path class="cls-3" d="M1.5,220c12.56,3.77,20.15,12.58,24.47,24.51,8,22,16.53,43.77,27.57,64.46,3.72,7,8.63,13.39,11.8,20.58,5.78,13.11,7.54,26.51.22,40-3.9,7.16-10,11.93-16,17q-19.12,16.09-38,32.5c-3.37,2.93-6.36,6.3-9.53,9.47" transform="translate(4 0)"/><path class="cls-3" d="M164,1080.36c3.46-9.35,5.7-18.9,5-29-1.58-23-16.32-47.26-44.53-52.36-10.21-1.84-20.72-1.79-28.93,6.41-3.58,3.58-6.74,7.59-10,11.46-6.92,8.1-13.8,8.25-23.54,4.07-7.5-3.22-15.11-6.67-23-8.29-6.72-1.38-14-.6-20.94-.19-5.53.34-11,1.57-16.5,2.4" transform="translate(4 0)"/><path class="cls-3" d="M812.4,1079.86c-8.11-12.36-19.55-21-32-28.54-8.64-5.27-17.08-10.87-25.51-16.47-8.06-5.35-16.6-9.51-26.49-7.83a59.91,59.91,0,0,0-17.44,5.49c-21.23,11.1-43.28,20.22-65.57,28.85-11.39,4.41-22.19,9.79-31,18.5" transform="translate(4 0)"/><path class="cls-3" d="M1125.86,1.5c.43,20.4,8.76,30.67,27.57,37.28,9.23,3.24,19.19,4.63,28.94,6.11,13.6,2.07,27.28,3.83,41,4.94a90.25,90.25,0,0,0,21.46-1c12.66-2,17.74-11.71,19.86-22.88,1.51-8,1.49-16.3,2.16-24.47" transform="translate(4 0)"/><path class="cls-3" d="M1.5,580.93c15.7-1.71,31.5-3.3,45.46-11.57,11.89-7,19.49-17.06,21.16-31.41,1.45-12.56-3.13-22.54-10.56-32.06-10.22-13.1-22.52-23-39.08-26.35-5.54-1.13-11.31-1.1-17-1.6" transform="translate(4 0)"/><path class="cls-3" d="M1749.78,1080.36c-4.63-19-12.14-36.56-26.5-50.49-7-6.75-15.48-9.74-25-10-8.66-.19-17.23-.32-25.55,3.35-9.39,4.13-11.36,13.38-7.68,21.49,4,8.86,10,16.82,15.26,25.1,2.17,3.43,4.64,6.68,7,10" transform="translate(4 0)"/><path class="cls-3" d="M785.4,1079.86c-7.46-10.53-17.87-17.65-28.52-24.46a133,133,0,0,0-13-7.48c-12.43-6.13-24.8-3.52-37,1-15.73,5.84-31.35,12-47,18-8.79,3.36-17.57,6.75-24.55,13.45-.3.29-1.28-.12-2-.21" transform="translate(4 0)"/><path class="cls-3" d="M956.38,2a9.39,9.39,0,0,1,2,2c9.76,19.59,25.93,33.07,43.6,44.86,8.41,5.61,18.46,7.81,28.42,7.93,13.73.17,24.5-5.94,32.06-17.78,7.4-11.58,9.17-24.22,8.44-37.53" transform="translate(4 0)"/><path class="cls-3" d="M1.5,967.88c14.05-.24,25.32-5.75,34.06-17,8.26-10.58,15.22-21.8,17.81-35.07,1.57-8,2.31-16.64-5.48-22.33a24.71,24.71,0,0,0-11.41-4.47c-12-1.3-23.58,1.33-35,4.83" transform="translate(4 0)"/><path class="cls-3" d="M140.48,1079.86c2.67-8.16,6-16.18,7.85-24.53A28.41,28.41,0,0,0,135,1024.41c-5.53-3.36-14.3-1.45-20,4-7,6.67-13.67,13.73-21.1,19.87-5.45,4.5-11.87,7.83-17.89,11.62-8.38,5.27-10.88,9.32-7.5,20" transform="translate(4 0)"/><path class="cls-3" d="M1.5,13C8.69,15.4,16,17.46,22,22.48c9.09,7.57,12.59,18,13.82,29a340.8,340.8,0,0,1,2,37,40.77,40.77,0,0,1-3.51,16.4c-3.27,7.24-10.14,10.76-17.81,12-4.92.8-10,.75-15,1.09" transform="translate(4 0)"/><path class="cls-3" d="M387,1.5c-1,5.83-1.92,11.68-3,17.49-1.42,7.52-3,15-4.47,22.51-.06.32.06.68,0,1-2,8.64-.2,10.63,8,7.95,15.79-5.16,30.82-12,43.45-23,7.91-6.9,12.79-16,16.06-25.92" transform="translate(4 0)"/><path class="cls-3" d="M1142.36,2c.5.67,1.29,1.27,1.45,2,2.29,10.71,9.25,17.33,19.08,20.9a98,98,0,0,0,34.46,6,244.47,244.47,0,0,0,26-1.06c16-1.83,19.72-12.38,22.49-22.89.48-1.79.69-3.66,1-5.49" transform="translate(4 0)"/><path class="cls-3" d="M1.5,559.93c15.11-1.45,29-5.68,39.5-17.5,7.71-8.66,6.37-19.77.39-28.42C33.94,503.22,23.08,498.18,10,498c-2.83-.06-5.67,0-8.5,0" transform="translate(4 0)"/><path class="cls-3" d="M2,749.41c2.33,6.5,5.05,12.89,6.91,19.52,3.35,11.89,4.25,24.15,4.05,36.47-.11,6.5-.45,13-1,19.49-.61,7.11-4.26,12.44-10.45,16" transform="translate(4 0)"/><path class="cls-3" d="M750.41,1079.86c-6.9-4.9-14-9.81-22.52-10.79-8.06-.94-16.51-1.33-24.43.06-12.51,2.19-24.72,6-37,9.25-1.7.45-3.34,1.15-5,1.73" transform="translate(4 0)"/><path class="cls-3" d="M979.38,2c3,3,6.06,5.94,9,9,9.75,10.23,21.89,16.13,35.53,18.87,4.89,1,15.85-1.89,19.4-9.91,2.21-5,3.71-10.31,5.59-15.46A15.58,15.58,0,0,1,1050.37,2" transform="translate(4 0)"/><path class="cls-3" d="M2,393.45c8.5-7,17.15-13.83,25.43-21.07a56.92,56.92,0,0,0,10.42-11.52c3.2-4.95.47-10.84-5.38-11.73-4.54-.69-9.36-.21-14,.42-5.72.78-11.34,2.24-17,3.41" transform="translate(4 0)"/><path class="cls-3" d="M2,236.47c2.83,3.17,5.84,6.2,8.47,9.52,7.27,9.21,9.48,20.28,11.64,31.45a32.85,32.85,0,0,1-.68,16c-2.46,8.18-8,13.95-15.41,18.05a35.91,35.91,0,0,0-4,3" transform="translate(4 0)"/><path class="cls-3" d="M2,32.5C5.83,35.33,9.83,38,13.46,41c7.39,6.22,9.62,15,10.39,24a52.94,52.94,0,0,1-1,17c-2.68,10.88-10.4,17-21.32,19" transform="translate(4 0)"/><path class="cls-3" d="M1920.26,1003.87c-7.34,4.15-11,11.48-13.79,18.59-7.68,19.55-15.57,39-24.71,57.9" transform="translate(4 0)"/><path class="cls-3" d="M661.42,2c6.34,3.34,12,8.52,19.5,8.91,7.31.39,14.88,1.2,21.94-.18,10-2,19.72-5.73,29.55-8.73" transform="translate(4 0)"/><path class="cls-3" d="M1168.35,2c8.39,6.5,17.81,10.18,28.5,10,8.84-.18,17.24-1.82,23.52-8.94a6.49,6.49,0,0,1,2-1" transform="translate(4 0)"/><path class="cls-3" d="M1920,928.38c-1.42,3.84-3,7.61-4.21,11.52-2.13,7.13-2.11,14,4,19.48" transform="translate(4 0)"/><path class="cls-3" d="M159.48,193c-11.17,2.66-22.29,5.5-33.51,8-11.62,2.54-23.42,4.29-34.94,7.22a52.4,52.4,0,0,0-16.92,7.49C63.75,222.91,62.73,235.91,67,247c3.08,7.94,8.71,14.1,15,19.44,14.69,12.42,27.49,26.27,35.45,44.06,2,4.35,4.05,8.64,6,13,4.51,10.17,10.42,16.22,20.5,15.34a32.12,32.12,0,0,0,12.94-4C175.07,324.28,193,313.34,211,302.44c10.27-6.23,14.54-16.25,15.89-27.49a225.4,225.4,0,0,0,1.94-30.48c-.15-10.11-1.42-20.33-6.37-29.47-6.32-11.65-17.32-16.71-29.44-20-10.87-3-22-1.7-33-2" transform="translate(4 0)"/><path class="cls-2" d="M1213.35,197c-8,1.79-12.76,7.46-17.07,14-5.11,7.7-9.6,16.28-18,20.9-7.3,4-15.19,7-22.94,10.1-12.75,5.14-24.9,11.35-36,19.54-11.62,8.59-17,20.84-19.39,34.51a138.31,138.31,0,0,0-2,23c-.09,16.3,2.93,32.24,6.92,48,2.74,10.85,4.91,21.7,5.15,33a111.35,111.35,0,0,1-1.16,20.5c-1.55,9.34-7.22,14.55-16,17.59-12.8,4.45-25.86,8.59-37.92,14.63-18.73,9.38-37.14,19.6-53.57,32.82a100.61,100.61,0,0,0-24.16,27.87c-8.83,15.13-18.51,29.75-27.88,44.56-5.72,9.06-9.85,18.85-10.35,29.51-.82,17.53,7.7,30.22,26.88,33.38a194.13,194.13,0,0,0,24.48,2.05c15.15.56,30.34.49,45.48,1.18a89.45,89.45,0,0,1,18,3c6.36,1.64,7.54,4.49,6.05,10.89-4.23,18.09-16.25,28.32-33.53,33-16.08,4.3-32.39,4.56-49,3.27-15.2-1.19-29.6-5.9-44.5-8-9-1.29-16.88.51-19.83,8.85a21.41,21.41,0,0,0-1,10.91c4.38,21.23,8.82,42.45,14,63.49a42.73,42.73,0,0,0,23.37,29c17,8.45,31.67,20.34,46.52,32,10.23,8,20.6,15.9,33,20.53a78.21,78.21,0,0,0,24,5c3.17.14,6.32.73,9.5,1,14.8,1,29.09-2.09,43-6.61,20.6-6.73,41.68-8.5,63-7.24,15.15.9,29.51,5.51,41.94,14.45,12.93,9.31,18.55,2.25,22.36-8.65,4.06-11.61,3.76-23.8,1.3-36-1-4.71-.79-9.64-1.1-14.48-.68-10.83-.78-21.73-2.16-32.47s-7.72-18.22-17.26-23.66-19.93-7.71-30.11-10.74c-14.69-4.36-28.34-10.83-39.26-21.33-9.16-8.8-16.72-19.3-24.63-29.34-5-6.38-9.14-13.48-14.14-19.88-5.3-6.77-12.51-11.37-19.94-15.54s-9.14-8.16-6.47-16a74.77,74.77,0,0,1,24-34.49c7.62-6.22,15.51-12.13,22.94-18.57A81.58,81.58,0,0,0,1144.4,533c7-13.09,14.44-25.94,21.35-39.08,1.72-3.28,2.19-7.25,3.09-10.94a95.22,95.22,0,0,1,11.52-28c8.34-13.46,12.78-28.46,16.93-43.52,3.29-11.92,6.37-23.91,9-36,1.9-8.89,1.25-18,.1-27-.85-6.67-1.86-13.32-2.45-20s-1.44-13.38-.89-20c1-11.7,1.42-23.56,8.21-34.09,3.59-5.57,8.59-9.09,13.57-13,5.58-4.36,11.47-8.65,15.89-14.06,8.18-10,8.38-21.84,3.53-33.31-5.16-12.21-15.54-17-28.36-17.05h-2" transform="translate(4 0)"/><path class="cls-3" d="M505.44,198c-23.79,6.51-44.35,19.5-64.35,33.2-8.56,5.86-15.81,13.55-18.33,24.75-1.76,7.83.44,14.3,4.25,20.49,5.74,9.33,12.26,18.18,17.85,27.59,6.68,11.27,2.76,21.61-6.9,27.47-8.07,4.89-16.32,9.55-23.94,15.07-12.93,9.36-18.2,22.81-19.11,38.4-.77,13,2.58,24.27,12.59,32.94a44.52,44.52,0,0,0,11,7.44,205.77,205.77,0,0,1,48.5,30,75.6,75.6,0,0,0,26.94,14.55c8.87,2.54,17,.37,24.47-4.52,9.17-6,15.83-14.54,22-23.45,9.64-13.85,19.47-27.57,28.91-41.56a73,73,0,0,0,7.47-14.48c3-7.66-.49-14.82-2.91-22s-5.54-14.2-7.33-21.54c-2-8-1.7-16.13-.91-24.48,1.53-16.26,6.42-31.68,9.77-47.47,2.08-9.81,2.73-19.79.35-29.47-3.72-15.11-13.79-24.88-28.37-30q-15.43-5.43-31-10.48c-3.41-1.11-7-1.71-10.48-2.54" transform="translate(4 0)"/><path class="cls-3" d="M161.48,205c-12.69,2.19-23.29,8.83-34.07,15.38a149.38,149.38,0,0,1-24,11.94c-8.59,3.3-8.54,9.69-4,15.7,8.59,11.26,16.84,22.79,25.61,33.9a92.63,92.63,0,0,0,12.46,12.51c8.33,7.18,18.06,7.75,28.46,5.63A72.38,72.38,0,0,0,204.46,279c15.1-15.63,15.88-48-1-62a50.89,50.89,0,0,0-31-12c-3.49-.16-7,0-10.5,0" transform="translate(4 0)"/><path class="cls-3" d="M165.48,219c-13.25,3.13-22.26,11.21-26.4,24-4.52,14,3.09,28.64,16.41,33.93,18.53,7.36,41.29-5.3,44.91-23,2.7-13.18-1-25.33-17.88-32.57-5.44-2.33-10.9-2.48-16.54-2.41" transform="translate(4 0)"/><path class="cls-3" d="M493.44,224c-5.83,1.34-11.78,2.31-17.48,4.08-11.78,3.64-22.5,9.26-29.45,20-5.1,7.86-5.14,16.64-1.4,24.88,3,6.7,7.32,12.86,11.38,19,4.43,6.75,9,13.19,10.59,21.5,1.67,8.93-2,15.68-7.19,22-5.9,7.18-14.21,11.25-21.94,16.05-8.28,5.15-16.08,10.34-20.72,19.88-7,14.45-2.2,31.2,9.24,39.06,17.23,11.82,34.32,23.89,52.08,34.85,12.33,7.61,25,6.75,35.95-4.26,13.32-13.35,22.16-29.88,33-45,8.52-12,7.47-25.08,5-38.51a91.88,91.88,0,0,1,0-35c3-14.86,6.8-29.59,9.3-44.53,1.78-10.59,2.06-21.55-3.4-31.43-4.92-8.91-12.78-14.43-22.42-17.55-13.68-4.44-27.76-5.37-42-5" transform="translate(4 0)"/><path class="cls-3" d="M323.46,228c-18.6,4-23.92,18.61-24.39,34-.27,9.15.68,18.33.85,27.49.15,7.58-2.29,11.21-9.47,13.44-11.43,3.56-23,6.63-34.47,10.09-8,2.43-14.14,8.83-15,18-.64,7,3.16,14,13.47,17.47A63.89,63.89,0,0,0,286,351.11c5.27-.87,10.37-1.4,14.47-5.16A19.73,19.73,0,0,0,307,331c.07-5.67.42-11.35,1-17,.65-6.41,4.8-9.92,10.4-12.6,7.27-3.48,14.12-7.69,19.58-13.88,7-7.9,10.78-17,10.94-27.52.1-6.11.56-12.26-2.45-18-4.78-9.15-12.05-14.1-22.52-14" transform="translate(4 0)"/><path class="cls-3" d="M676.42,231c-10.08,1.19-15.47,7.63-19,16.48-7,17.29-20.06,29.34-34.35,40.65-12.17,9.62-16.21,23.25-8.91,37.76,3.89,7.73,9.62,14.56,14.85,21.56,6,8,12.68,15.43,18.33,23.61,5.19,7.5,7.33,16.54,7.38,25.42.07,11.14-4.31,20.84-14.78,26.45-6.37,3.41-12.95,6.43-19.48,9.53C607.67,438.49,598.2,448,593.05,461a409.09,409.09,0,0,1-24.42,50.56c-5,8.84-7.63,18.83-4.73,29.39a47,47,0,0,0,12.15,20.37c5.85,6,13.24,5.37,20.83-.93a50.6,50.6,0,0,0,9-9c7.7-10.74,18.76-15.25,31.09-17.4,21.47-3.75,42.53-8.69,62-19a69.41,69.41,0,0,1,35.48-8.21c10.88.36,20.79-4.23,29.37-10.5,6.8-5,13.7-10.65,18.34-17.51,7.58-11.22,5.47-21.5-5.14-30.4-12.15-10.2-25.56-11.19-40.07-7.41-2.82.73-5.64,1.73-8.51,1.92-6.38.43-10-3-10.5-9.41A20.77,20.77,0,0,1,724.45,416c7.85-7.49,16.24-14.42,23.89-22.11,11.59-11.64,19.68-25.7,25.44-41a94.59,94.59,0,0,0,5.89-22.48c1.07-9.61-2.47-18.48-9.34-25.39a242.68,242.68,0,0,0-19.47-17.51c-12.16-9.85-22.25-21.48-31.52-34-9-12.2-22.07-18.12-36.43-21.53-2-.47-4-.69-6-1" transform="translate(4 0)"/><path class="cls-3" d="M1202.75,479c-10.35,3.32-11.76,13.53-11.67,22.43a63.71,63.71,0,0,0,9.1,33c7.16,11.61,17.48,15,29.19,13.14a61.89,61.89,0,0,0,31-14,36.23,36.23,0,0,0,8.21-10.48c4.12-7.81,3-14.93-3.79-19.37-7.37-4.81-15.42-8.46-23.39-12-9.17-4.11-18.52-7.76-27.91-11.2-3.17-1.16-6.73-1-10.11-1.51" transform="translate(4 0)"/><path class="cls-3" d="M893.39,233c-11.07,1.62-19.53,7.38-23.8,17.58A86.21,86.21,0,0,0,864,272.49c-2,15.24-6.55,29.41-14.64,42.47a152,152,0,0,0-20.3,54.53c-2.46,14.17,2.49,26.76,12.82,36.94,6.21,6.12,13,11.7,18.88,18.1C866.93,431.18,873,438,875,447.43a47.87,47.87,0,0,1-3.11,29.49c-3.3,7.59-7.65,14.78-10.31,22.57-4.79,14-6.3,28.17,1.74,42,3.78,6.49,8.57,11.56,15.13,14.9,6.93,3.53,13.53,1.7,18.91-3,15-13.22,29.24-27.29,38.89-45,4.22-7.76,6.59-16.54,9.65-24.91,6.21-17,16.65-31.12,29-44a18.39,18.39,0,0,1,14-5.55c12.5.12,25.17-.2,36.39-6.16,10-5.29,19.2-12,28.55-18.39a73,73,0,0,0,9.53-8.44c8.59-8.43,11.38-18.44,9.68-30.5-2.39-16.89-5.88-33.46-11.75-49.44-5.42-14.77-13.29-28.1-26.43-37.5-11.28-8.07-24.07-9.4-37.48-8.06-20.08,2-39.25,1.17-55.13-14.32-8.7-8.49-17.23-17.5-28.36-23.13a43.23,43.23,0,0,0-20-5" transform="translate(4 0)"/><path class="cls-3" d="M497.44,242c-5,.67-10.09,1-15,2.11a51.57,51.57,0,0,0-11.5,4.45c-9.44,4.85-11.69,16.35-6.91,25.38,3.94,7.46,8.9,14.37,13.37,21.56,4,6.45,6.92,13.4,7.44,21,.69,10.08-3.7,18.52-10.53,25.39C467.28,349,459.41,355.25,452,362c-3.59,3.24-7.39,6.34-10.44,10-6.3,7.67-6.09,17.78-1.07,23.93a113.63,113.63,0,0,0,38,30.48c10.69,5.3,20.3,2.51,27.83-5.63,6.75-7.3,12.29-15.75,18.11-23.88a52.7,52.7,0,0,0,9-20.49c1-5.06,1.83-10.36,1.46-15.47-1.43-19.93,3.52-38.69,9-57.55,2.66-9.21,4.69-18.92,4.92-28.45.43-17.92-8.4-28.08-26.26-30.89-8.07-1.27-16.32-1.43-24.48-2.1" transform="translate(4 0)"/><path class="cls-3" d="M646.42,446.94c-4.83,1.34-9.65,2.74-14.5,4-13.83,3.55-20,19.42-17.46,31.5a105.07,105.07,0,0,0,4,15,30.14,30.14,0,0,0,34.41,18.48c8.83-1.89,17.27-4.78,23.52-11.94A25.7,25.7,0,0,0,683,487.44a60.6,60.6,0,0,0-4.54-26c-4.22-10.1-10.93-14.51-22-14.51h-9.5" transform="translate(4 0)"/><path class="cls-3" d="M380.45,455.94c-7.66,2.34-15.67,3.9-22.92,7.16-16.43,7.38-30,18.41-39.07,34.34-6.76,11.86-6.47,23.89,1.12,34.91,13.61,19.78,24.88,40.8,36.12,61.94a113.31,113.31,0,0,0,19.46,25.93c10.42,10.54,23.89,11.88,37.76,7.62,5.49-1.68,10.71-4.21,16-6.43,5.1-2.13,6.87-6.63,6.4-11.48-2.38-24.77,7.33-44.86,23.63-62.47,4.32-4.67,9.26-8.78,13.41-13.58,7.53-8.72,9.79-12.63,1.47-23.38-8.1-10.47-16.63-20.64-25.47-30.5-13-14.49-30.27-20.45-48.94-23-6.1-.83-12.32-.74-18.49-1.08" transform="translate(4 0)"/><path class="cls-3" d="M1084.36,456.94c-8.33,2.34-16.92,4-24.94,7.13-21.05,8.23-40.83,18.95-57.43,34.49-8.23,7.7-14.08,17.47-19.7,27.32-7.64,13.38-16.26,26.19-23.75,39.64-3.41,6.1-5.73,13.17-4.56,20.39,1.65,10.14,8.59,16.52,17.95,18.78,11.87,2.87,24,4.49,36.46,2.36,7.72-1.33,15.69-1.18,23.47-2.19,11.53-1.51,22.05-5.7,30.47-14,5.88-5.78,11.27-12,17.07-17.92,3.64-3.68,7.73-6.93,11.45-10.55,13.81-13.49,26.46-27.95,32.87-46.52,3.53-10.23,5.92-20.93,3.14-31.95-3.44-13.63-13-23.78-28-25.95-4.62-.66-9.33-.71-14-1.05" transform="translate(4 0)"/><path class="cls-3" d="M379.45,472.94c-6.16,1.67-12.45,3-18.47,5.07-11.19,3.88-19.93,11.12-26.51,20.94-6.76,10.09-6.28,20.94-.83,30.89,9.88,18.06,18.19,37.08,30.81,53.59,4.06,5.31,8.91,9.77,15,12.44,10.83,4.71,20.36,2.19,27.84-7.54,5-6.49,9-13.79,13.08-20.93,5.37-9.38,10.47-18.92,15.51-28.48,3.29-6.24,6-12.82,6-20,0-16.68-7.93-28.5-22.4-36.57-12.38-6.9-25.58-9.55-39.54-9.43" transform="translate(4 0)"/><path class="cls-3" d="M1077.37,473.94c-11.21,2.12-21.91,5.74-32.54,9.89-21.74,8.5-38.47,22.32-49.52,43.07C989.17,538.42,982.16,549.48,976,561a34.56,34.56,0,0,0-4,13c-.7,8,2.75,12.35,10.31,15.52s15.34,3.06,23,2.28a155,155,0,0,0,25.48-4.93c12.26-3.4,22.51-10.55,32.06-18.84,11.93-10.36,23.54-21,31.95-34.54,7.12-11.48,11.94-23.55,11.11-37.5-.53-8.77-5.1-16.48-13.64-19.36-4.59-1.55-9.62-1.8-14.45-2.63" transform="translate(4 0)"/><path class="cls-3" d="M915.89,446.44c-5.1,4-4.34,10.25-5.88,15.54s-2.2,10.95-3.09,16.47a88.68,88.68,0,0,0-1,9.49c-.06,1,.6,2,.94,3,1-.5,2.54-.75,2.91-1.54,2.34-5.09,5-10.14,6.45-15.5,2-7.28,4.46-14.69,2.58-22.44-.43-1.77-1.61-3.35-2.44-5" transform="translate(4 0)"/><path class="cls-3" d="M377.45,488.94c-3.5,1-7.08,1.77-10.48,3-11.41,4.26-19.48,11.71-20.33,24.47a33.82,33.82,0,0,0,2.45,13.93c4.82,12.59,10.63,24.7,18.82,35.58,8.33,11.08,22.91,12.7,31.49,1.93,11.31-14.2,19.5-29.94,20.44-48.46.44-8.62-3.39-15.65-10.36-21-9.35-7.21-20-9.8-31.53-9.46" transform="translate(4 0)"/><path class="cls-3" d="M1060.37,495.94c-6.67,1.83-13.55,3.11-19.95,5.61-12.61,4.93-21.66,14-27,26.43-2.73,6.42-4.58,13.24-6.52,20a29.85,29.85,0,0,0-1,8.48c0,4,2.43,6.45,6.43,6.43a75.06,75.06,0,0,0,14-1c22.61-4.51,41-15.24,52-36.43a34.15,34.15,0,0,0,3.54-19c-.47-5.39-6.38-10.23-13-10.49-2.67-.1-5.34,0-8,0" transform="translate(4 0)"/><path class="cls-3" d="M379.45,510.94c-13.42,3.48-13.67,15.38-8.4,26.95,2.05,4.52,4.67,9.11,10.41,10s10-3,13.05-9.45a30.18,30.18,0,0,0,2.42-15c-.38-5.85-6.64-12.06-12.48-12.49-1.49-.11-3,0-4.5,0" transform="translate(4 0)"/><path class="cls-3" d="M269.47,424c-12,3.25-18,11.89-19.31,23.52-.84,7.59,1.05,15,6.75,21,3.7,3.9,8,4.36,12.53,2.87,10-3.34,17.81-9.82,21.88-19.48,5.81-13.79-1.67-28.09-17.85-27.93H270" transform="translate(4 0)"/><path class="cls-3" d="M493.44,558.93c-6.87,1.55-12.76,4.6-17,10.48-7.15,9.89-1.78,18.27,7.06,20.89,10,3,22.45-.1,27.46-9.37,6-11.08-.8-20.94-12-22-1.66-.15-3.34,0-5,0" transform="translate(4 0)"/><path class="cls-2" d="M699.41,559.93c-6.16,1-12.3,2.22-18.5,3-22.35,2.67-34.8,16.33-39.83,37.07-3.83,15.8-6.19,32-9.15,48a72.22,72.22,0,0,1-12.51,29,95.87,95.87,0,0,0-17.61,44c-1.84,14.3-3.39,28.85-11.41,41.49-4.51,7.1-9.23,14.06-14,21-7.54,11-15,22-20.07,34.47-6.52,16-19.22,24.35-35.91,27C509,846.69,497.33,847.7,486,850c-14.76,3-18.88,11.72-20,23.88-.64,7.13-1.4,14.37-.89,21.48.66,9.24,1.21,18.58,6.17,27.1,2.61,4.47,6.17,7,10.67,7.26,18.46.94,35.95-3,51.95-12.41,8-4.69,12.18-12.68,16.54-20.44s8.06-15.76,13.13-22.9c7.14-10,18-14.21,29.85-16.12,18.53-3,35.82-8.61,51.12-20.31a85,85,0,0,0,29.91-41.65c6-17.88,11.84-35.85,18.57-53.46,9.78-25.59,27.65-43.54,53.94-51.87,14-4.44,28.58-7.29,42.95-10.63,14.87-3.46,21.66-11.86,22-28a122.84,122.84,0,0,0-7.55-44.49c-4.25-11.84-12.67-20.22-23.52-25.91-15.43-8.09-31.2-15.81-48.49-18.89-10.64-1.9-21.63-1.87-32.46-2.7" transform="translate(4 0)"/><path class="cls-3" d="M1262.34,571.93c-5.16,1-10.42,1.68-15.48,3.07a197.08,197.08,0,0,0-22,7,43.11,43.11,0,0,1-28,1.66c-11-3-21.14-1.75-31,2.82-9.63,4.45-19.16,9.09-27.62,15.81-8.72,6.93-13.12,16.09-13.1,26.59,0,7.17,2.19,14.66,4.84,21.44,6.9,17.63,17.44,32.65,34.87,41.49a63.09,63.09,0,0,0,29,7c11.3,0,22.7-.07,33.43,3.71,6,2.12,11.64,5.79,17,9.39,10.17,6.82,10.8,17.07,9,27.92-1.48,9.17-3.91,18.3-4.21,27.5-.24,7.46,1.36,15.18,3.36,22.45,3.83,14,8.11,27.85,13,41.47a62.13,62.13,0,0,0,10,17.44c6.28,7.82,15.31,9.42,24.83,7.58,11.87-2.31,23.71-4.79,35.48-7.55a41.1,41.1,0,0,0,11-4.49c6.21-3.58,8.3-8.91,6.52-15.91-2.89-11.36-6.6-22.55-8.79-34a129,129,0,0,1-2-33c1.26-18.58,6.69-35.91,11.76-53.5,1.87-6.49,1.37-13.31-3-18.92-7.46-9.68-10.27-20.52-9.46-32.54.76-11.16,1.6-22.32,2-33.5q.81-24.52-21.42-35.52A144,144,0,0,0,1274.84,573c-4-.46-8-.69-12-1" transform="translate(4 0)"/><path class="cls-3" d="M707.41,572.93c-5,.66-10,1.17-15,2-12.6,2.17-23.95,7-29.79,19.07-3.35,6.92-4.92,14.81-6.62,22.41-2.16,9.7-1.42,19.66-1,29.47a146.42,146.42,0,0,0,2.94,21c1.68,8.65-1.88,14.74-8.59,19.49a84.59,84.59,0,0,1-9.5,6c-14.26,7.49-22.61,19.48-24.83,35.06-3.18,22.38-11.55,42.41-24,61-3.5,5.22-5.72,11.29-8.62,16.92-2.45,4.76-2.52,9.83-2.53,15,0,8.87,5.57,14.62,15,15.45,19.51,1.7,35.41-6.08,49.54-18.9,12.68-11.52,19.53-26.42,24.83-42.09,5.85-17.32,11.07-34.87,16-52.47,5-17.87,16.19-30.4,33.16-36.76,16.46-6.16,33.6-10.48,50.4-15.76,4.92-1.55,10-3.09,14.45-5.56,10-5.55,14-17.51,12.78-29.41-1.87-18.42-12.24-30.2-27.24-38.93-10.19-5.92-20.47-11.73-31-16.92a51.56,51.56,0,0,0-23.44-5.18,40.58,40.58,0,0,1-6.5-.94" transform="translate(4 0)"/><path class="cls-3" d="M705.41,588.93c-5,1.5-10.4,2.24-14.91,4.65-10.29,5.5-14.57,15.26-15.46,26.35-.55,7-.43,13.84,3.18,20.59,4.24,7.91,10.68,12.08,18.71,14.34,15.21,4.29,30.86,4.78,46.47,3.89,8.31-.48,16.66-2.45,24-6.87,12-7.26,14-19.7,3.81-29.74-7.74-7.61-17.31-13.42-26.33-19.65-7.52-5.19-15.4-10-24.47-12-4.72-1-9.65-1.09-14.48-1.59" transform="translate(4 0)"/><path class="cls-3" d="M1265.34,589.93c-8.1,1.75-16,3.92-22.48,9.52-4.27,3.71-8.27,7.73-12.53,11.45-5.08,4.42-9.8,9.69-17,10.41a29.79,29.79,0,0,1-10-1c-8.57-2.16-16.94-4.73-26-4.53-20.66.44-35.48,22.91-27,41.58,5,11.06,12.75,19.33,25,22.52,8.75,2.29,17.25,1.11,25.48-2.06,6.11-2.37,12-5.29,18-7.94a23.7,23.7,0,0,1,23,1.54c8,4.85,15.35,11.15,24.55,13.32,18.19,4.29,34.63-1.44,44.83-19.44a69.55,69.55,0,0,0,8.47-42.4c-1.21-11.16-8.1-19.12-17.84-24.5a65.33,65.33,0,0,0-36-8.51" transform="translate(4 0)"/><path class="cls-3" d="M566.93,596.43c-7.59,1.49-13.24,6.31-19,11-8.29,6.72-16.32,13.84-25.09,19.86-7,4.77-14.94,8.06-22.38,12.17-9,5-14.66,12.78-17.45,22.49-3.9,13.6-8.62,27.13-10.76,41-2.92,19-.65,37.81,8.11,55.49,3.17,6.39,7.56,10.83,14.61,11.83a23.4,23.4,0,0,0,9.45-.95c15.39-4.46,30.2-10.46,42.42-21a52.21,52.21,0,0,0,17-29.91,248.19,248.19,0,0,0,4-31c.87-13,.35-26,1.3-39,.55-7.4,3.08-14.64,4.26-22,1.24-7.75,4.06-15.39,1.65-23.51-1.2-4.08-3.16-6.52-7.58-6.47" transform="translate(4 0)"/><path class="cls-3" d="M1272.34,617.92c-4.59,1.76-6.88,5.18-6.44,10,.56,6.22,3.36,11.31,8.95,14.48s10.39.83,13-5.47c3.74-8.92-2.38-20.81-15-19" transform="translate(4 0)"/><path class="cls-3" d="M158.48,626.92c-10.67,3.77-21.43,7.36-30.5,14.5a11.68,11.68,0,0,0-2.46,2c-1.77,2.52-4.73,4.67-3,8.47s5.45,4.68,9,4.92c12.87.88,22-7.28,26.93-18,1.38-3,1.87-6.38,3.11-9.45,1.37-3.35-1-2.38-2.55-2.52" transform="translate(4 0)"/><path class="cls-2" d="M266.47,403c-5.84,2.5-12.19,4.21-17.39,7.66-11,7.34-15.67,19.05-19.16,31.32-2.45,8.61-2.82,18-8.46,25.5-2.92,3.9-5.45,8.31-9.09,11.39-11.27,9.56-15.41,22.36-18.5,36.09-3.91,17.43-8.32,34.75-13,52-4.51,16.75-9.63,33.34-14.38,50-.39,1.39-.05,3-.05,4.48a25.62,25.62,0,0,0,4.49-.53c21.84-6.45,43.62-13.13,65.53-19.36,6.47-1.84,13.29-2.49,20-3.59,8.94-1.49,14.75,3.33,19.47,10,2.5,3.54,4.66,7.33,7,11a78.76,78.76,0,0,0,21.5,22.49c6.9,4.72,10.47,10.72,9.63,19.52-.69,7.27-.26,14.65-.12,22a110.66,110.66,0,0,0,10,45,130.34,130.34,0,0,1,12.14,49c.71,14.23,2.68,28.4,7.67,42.05,5.06,13.82,16.37,23.69,33.61,24,12.28.24,24.11-1.06,35.53-6,13.28-5.74,18.2-12.61,18.82-27.57.65-15.63.29-31.32.1-47-.16-13.88,2.65-27.38,4.52-41,1.32-9.65,2.87-19.3,3.41-29,.89-15.92-9.57-26.19-26.38-26.42-14.42-.2-28.81-.56-42.46-5.66-11.82-4.42-23.4-9.49-35-14.45-5.8-2.48-9.33-6.47-9.13-13.46.2-6.82-.5-13.67-.89-20.5-1.09-19-11.85-39.69-32.95-43.2-11.87-2-17-9.8-16.94-23.29.09-14.5,1.31-28.95,5.4-43,3-10.25,9.25-18.54,16-26.48,7.67-9,14.92-18.3,18.91-29.54,4.56-12.89.17-23.32-9.45-31.44-11.54-9.75-25.06-13.29-40-12" transform="translate(4 0)"/><path class="cls-3" d="M1712.29,650.92c-3.67.67-7.38,1.17-11,2-12.64,3-24,8.38-29.36,21-5.78,13.66-1.86,25.11,11.43,30.27a225.29,225.29,0,0,0,32,9.51c10.7,2.43,19.61-3.17,22.75-14.89,3-11.4,3-23-1.65-34.5-4.48-11.2-13.58-12.81-23.63-13.44" transform="translate(4 0)"/><path class="cls-3" d="M529.43,654.92c-11.37,2.75-21.76,7.35-30,16-8.84,9.28-13.81,20.14-15.71,33-1.71,11.5,1,21.33,6.6,31.09,3.47,6.07,16.91,10.74,24.13,9.56,10.3-1.67,19.74-4.8,26.94-12.65,8.11-8.86,11.73-19.58,12.58-31.46.64-9,.53-17.83-2.08-26.5a43.84,43.84,0,0,0-3-8c-4-7.52-10.13-11.64-19-11" transform="translate(4 0)"/><path class="cls-3" d="M1084.36,658.92c-5,2.66-10.39,4.79-14.92,8.1-14.1,10.26-29.42,17.69-46.59,20.78-7.54,1.35-15.32,1.35-23,2.14-12.41,1.27-25,1.39-37,5.52-12.32,4.26-15.93,11.29-16.9,23-1.53,18.32,6.55,32.33,20.27,44.11,11.7,10.05,22.39,21.26,33.62,31.86,12.37,11.67,26.12,21.08,43,25,17.56,4.06,35.24,5.33,53,1,13.51-3.29,26.91-7.08,40.53-9.83,8.33-1.69,17-1.85,25.47-2.66,10.66-1,21.36-1.75,32-3.07,11.33-1.4,17.14-8.67,19.56-19.42a66.15,66.15,0,0,0-.07-29c-2.61-12-10.31-20.1-20.52-25.93-8.8-5-17.94-9.43-27-14.06-18.08-9.3-33.16-22.18-46.68-37.34-6.07-6.81-14-12-21.36-17.59-3.72-2.84-8.41-2.81-13-2.57" transform="translate(4 0)"/><path class="cls-3" d="M347.46,673.92c-13.36,2.47-21,17-15.9,32.46a192.24,192.24,0,0,0,9.49,23.49,109.86,109.86,0,0,1,10,38c1,10.88,2.47,21.74,8.28,31.56,6.11,10.32,14.28,17.32,26.05,20.56,13.15,3.62,24.18-5.65,26.44-16.13a87.12,87.12,0,0,0,2-16.48,269.36,269.36,0,0,1,6.49-53.51c2.35-10.51,5-21,4.67-32-.34-12.11-7.39-19.9-19.57-21-15.63-1.43-31.18-3.33-46.52-6.86-3.48-.8-7.31-.11-11-.11" transform="translate(4 0)"/><path class="cls-3" d="M1088.36,679.91c-13.54,2.4-24.93,10.15-37.49,15a157.64,157.64,0,0,1-36.48,9.11,162.36,162.36,0,0,0-22.49,5c-13.58,3.82-20.7,16.48-12.81,30.81C984.66,749.9,992,759.1,999,768.34a183.82,183.82,0,0,0,16.49,19c9.23,9.21,21.2,13.59,33.44,17s24.6,6.74,37.46,5.46c7.89-.79,16-1.66,23.46-4.07,20.69-6.67,41.76-11.59,63-15.89,11-2.23,19.57-7.85,21.44-20,1.47-9.48-2-18-8.61-24.29-7.55-7.16-16.44-12.92-24.83-19.18-11.45-8.55-23-17-34.47-25.52-7.54-5.61-14.67-11.87-22.64-16.76-4.23-2.6-9.87-2.89-14.87-4.23" transform="translate(4 0)"/><path class="cls-3" d="M521.43,681.91c-8,1.67-14.68,5.47-18.94,12.54-4.87,8.09-5.31,17,0,23.91,6.05,7.79,18.52,7.9,26.39,1,7.4-6.47,9.2-15.2,7.93-24.43-1-7.5-6.32-11.63-14.89-13" transform="translate(4 0)"/><path class="cls-3" d="M247.47,683.91c-18.15,4-28.55,16.84-37,32-5.66,10.17-11,20.54-17.14,30.41-3,4.84-7.55,8.73-11.35,13.09-8.68,10-17.51,19.85-25.91,30.06-3.23,3.93-6,8.26-6.21,13.93a14.38,14.38,0,0,0,6.21,12.87c10.31,7.23,21.51,12.25,34.38,13.83,10.78,1.32,20.82-1.25,31-3.28,14.23-2.85,28.41-6,42.48-9.53,8.46-2.13,15.42-7.22,21-13.92,4-4.86,5.75-10.66,6.06-17,.56-11.48-1.25-22.73-3-34-2-12.51-3.11-25.23-6.22-37.44-3.83-15.06-12.39-26.79-28.78-30.53a41.15,41.15,0,0,0-5-.53" transform="translate(4 0)"/><path class="cls-3" d="M370.45,696.91c-4,1.47-8.47,1.57-11.59,5.42-2.65,3.28-3.84,7-2.76,10.54,5,16.1,10.4,32.08,15.94,48,1.45,4.18,4.08,8,8.92,9,5.41,1.13,8.29-2.8,10.39-6.52a112,112,0,0,0,14.49-46.45c.89-11.18-5.27-17.24-15.91-18.87-6.23-1-12.64-.78-19-1.12" transform="translate(4 0)"/><path class="cls-3" d="M1086.36,699.91c-14.59,3.44-26.61,12.43-40,18.56-6.5,3-12.59,6.84-19.05,9.89-12,5.64-13,12.5-9.92,23,5,17.19,16.35,28.67,33,35,8.77,3.34,17.5,6.91,26.53,9.38,9.73,2.66,19.73,1.66,29.44-.89,17.11-4.49,33.07-12,49-19.51a29.19,29.19,0,0,0,5.51-4c7.87-6.33,8-16.31.54-25.5-8.51-10.56-19.42-18.34-30-26.46-4.74-3.62-9.72-6.92-14.46-10.54-8.9-6.78-18.75-10.21-30-9" transform="translate(4 0)"/><path class="cls-3" d="M248.47,711.91c-14.69,3-19.89,14.16-22.37,27-1.67,8.7-3,17.66-2.85,26.47.17,7.47.42,15.72,9.17,20.11,8.59,4.31,17.11,6.48,26,1.81,5.37-2.82,7.45-8.4,8.45-13.93,2.58-14.18.81-28.43-1.14-42.45-1.3-9.29-6.11-17.15-16.76-19" transform="translate(4 0)"/><path class="cls-3" d="M1862.27,712.91c-7.66,1.87-14,6.29-19.42,11.59-12.94,12.6-27.65,22.51-43.5,31-5.15,2.77-9.74,6.84-14,10.93-8.81,8.42-7.46,18.78-3.91,28.86,1.53,4.34,4.63,8.21,7.39,12,3.17,4.35,7.93,4.43,12.42,3a70.69,70.69,0,0,0,33.5-23.43c8.17-10.1,16.61-19.84,29-25,3.8-1.58,7.8-2.74,11.47-4.56,15.32-7.58,18.17-25.25,6.59-38-5.33-5.86-11.8-7-19.06-6.44" transform="translate(4 0)"/><path class="cls-3" d="M648.42,720.91c-10.8,1.53-15.22,9.57-18.44,18.52-2.47,6.89-4.17,14.06-6.61,21-3.63,10.23-7.62,20.34-11.43,30.52a18.32,18.32,0,0,0-.52,2.49c-2.34,10.69,1.88,14.61,12,12,8.84-2.24,14.76-8.32,19.91-15.1,8.84-11.61,15.2-24.49,18.09-38.93,1.24-6.15,1.76-12.38.4-18.48-1.5-6.75-5.87-11-12.91-12" transform="translate(4 0)"/><path class="cls-3" d="M1093.36,722.91c-14.25,4.75-23.1,15-28.42,28.52-3.59,9.11,1,17.84,9.4,24,9,6.61,18.87,7.78,29.53,5.51a59.48,59.48,0,0,0,25.54-12c10.44-8.44,11.69-18.27,2.84-29a49.73,49.73,0,0,0-25.93-16.45c-3.93-1-8.29-.47-12.46-.64" transform="translate(4 0)"/><path class="cls-3" d="M1469.32,722.91c-7.5,1.67-15.13,2.89-22.47,5.09-16.18,4.84-32.68,8.87-47.54,17.39-10,5.72-17.62,13.25-20,25a31,31,0,0,0,21.48,35.49,53.86,53.86,0,0,0,26.51,1,11,11,0,0,1,2,0c9.83-.33,19.69-.32,29.49-1.1a70.78,70.78,0,0,0,29-8.48c11.17-6.18,22.11-12.81,33-19.48,3.1-1.9,5.72-4.59,8.54-6.94,7.62-6.35,6-14.78-.61-20.36-11.35-9.64-22.86-19.17-37.34-24.26a62.11,62.11,0,0,0-21.54-3.37" transform="translate(4 0)"/><path class="cls-3" d="M760.4,726.91c-10.91,2.57-20.51,7.4-28,16a60.9,60.9,0,0,0-14.62,31c-1.59,9.86-.77,19,3.54,28.06,3.49,7.34,9.67,11.38,16.64,13.81,13.48,4.68,27.25,8.59,41,12.55a21.6,21.6,0,0,0,9,.48c4.17-.62,6.33-5.28,7.08-11.88,1.46-12.68,4.06-25.29,4.73-38,.73-13.93,2.22-28.32-7.72-40.54a29.67,29.67,0,0,0-23.07-11.43c-2.66-.1-5.33,0-8,0" transform="translate(4 0)"/><path class="cls-3" d="M1299.34,733.91c-9.61,2.16-17.88,6.41-24,14.47-7.77,10.17-9.87,21.78-6.21,33.44,4.61,14.64,11.5,28.5,23.3,39,6,5.39,13,8.43,21.45,6.09,6.26-1.74,10.07-5.74,10.89-12,.54-4.09.2-8.32.09-12.48-.28-10.17-.49-20.34-1-30.49-.38-7-.53-14.18-2.11-21-2.77-11.84-9.51-18.23-21.83-17" transform="translate(4 0)"/><path class="cls-3" d="M1464.32,742.91a180.29,180.29,0,0,0-40.43,14.63c-4.59,2.34-8.59,6-12.52,9.42-4.54,4-3.64,13.8,3.47,16.39,4.9,1.78,9.91,4,15,4.37,13,1,26.12,2.9,39-.87,10.58-3.1,20-8,26-17.92,3.55-5.86,2.25-11.28-1.63-15.95a27.37,27.37,0,0,0-21.4-10.07c-2.34,0-4.67,0-7,0" transform="translate(4 0)"/><path class="cls-3" d="M759.9,746.41c-10.56.77-17.5,7-21.34,16.06-4.47,10.62-1.35,20.18,9.38,25.36,11,5.3,20.32,1.08,25.45-7.93,3.17-5.57,5.47-11.79,4.3-17.95-1.8-9.5-5.35-14.65-17.29-15.54" transform="translate(4 0)"/><path class="cls-3" d="M593.43,17c-4,1.21-8.12,1.95-11,5.47C577,29,577.92,36.1,581,43c5.83,12.95,14.3,24.19,23.34,35.09,7.83,9.45,17.09,16.83,28.62,20.8,7.07,2.43,14.66,3.31,21.94,5.19a27.84,27.84,0,0,0,17-1.09c13.54-5,20.64-25.33,6.87-38.3a172.82,172.82,0,0,0-27-20.48c-12.9-8-26.38-15.2-40-22-5.47-2.73-11.92-3.51-17.91-5.17" transform="translate(4 0)"/><path class="cls-3" d="M1535.31,826.9c-5.77,1.49-11.36,3-16.58,6.37-10.51,6.72-13.84,19.19-8.89,30.61s11.33,22.25,22,29.41a22.43,22.43,0,0,0,17.44,3.11c6.82-1.4,13.77-2.28,20.46-4.12,7-1.92,9.82-6.65,10.07-13.89.58-17.44-6.16-31.6-19.06-43-7.09-6.25-15.86-8-25-8.52" transform="translate(4 0)"/><path class="cls-3" d="M499.44,351c-13.06,5.18-23,14.26-30.89,25.57-3,4.34-2.65,13.8,1.87,18.44s8.77,8.71,16,8.1c5.69-.48,9.23-3.86,12.43-7.67,9-10.71,13.24-22.89,10-36.94-1.4-6.06-3.31-7.45-9-7.5" transform="translate(4 0)"/><path class="cls-2" d="M240.47,41c-4.83,1.34-9.82,2.28-14.46,4.09-7.85,3.06-14,8.7-20,14.43-6.56,6.25-13.81,11.57-23,12.33a72.58,72.58,0,0,1-26.5-2.28c-16.93-4.91-33.91-9.65-51-13.93-6-1.5-12.72-2.08-18.38,1C80.34,60.32,78,67.38,78.18,74.49A142.74,142.74,0,0,0,81.12,100c3,14.6,6.8,29,10.39,43.52,3.18,12.81,11.44,20.91,24,24.46,24.95,7.06,49.35,5.58,73-5.47C201,156.61,209.31,147,214.05,134c1.7-4.67,4.37-9,6.4-13.54,4.79-10.79,13.7-16.89,24-21.5,6.2-2.76,12.33-5.67,18.51-8.48,8.52-3.86,13-18.24,11.5-26a59,59,0,0,0-1-6c-3.28-10.64-12.69-17.2-25-17.5-2.5-.06-5,0-7.5,0" transform="translate(4 0)"/><path class="cls-3" d="M419.45,852.89c-6.17,1-12.38,1.78-18.49,3.05-12,2.51-24.11,4.9-36,8.07-10.35,2.77-16,9.62-17.25,20.86-1.16,10.42,1.11,20.24,3.44,30a106.29,106.29,0,0,0,11.16,28.62c8.48,14.66,21,22.45,37.59,21.19,17.11-1.28,32.7-7.43,44.49-20.78,4.73-5.36,6.1-12.26,6.39-19,.76-17.84-.13-35.61-4.86-53-1.94-7.12-4.72-14-12.07-16.82-4.29-1.65-9.27-1.51-13.93-2.18" transform="translate(4 0)"/><path class="cls-3" d="M888.39,855.89c-8.5,1.67-17,3.12-25.49,5.06-9.88,2.26-19.71,4.8-29.5,7.47-18.2,5-25.74,19.67-26.48,37-.84,19.6,4,38.11,12.7,55.38,4,8,9.81,15.36,15.91,22,12,13,20,27.83,23.33,45.13,1.22,6.29,1.95,12.67,3,19,2.06,11.79,12.85,20,24,21a52.92,52.92,0,0,0,9,0c7.46-.63,12-4.92,14-12,2.61-9.47,4.84-19,7.58-28.47,3.11-10.73,6.92-21.26,9.87-32,4.45-16.26,9.14-32.51,12.31-49,2-10.7.26-21.78-4.3-31.92-5.74-12.78-11.67-25.49-18-38-4.08-8-9.21-15.46-18.42-18.5-2.9-1-6-1.38-9-2.05" transform="translate(4 0)"/><path class="cls-3" d="M1138.36,867.89c-14.5,2.37-24.08,12-33,22.51-3.64,4.33-8,7.88-13.54,8.78-3,.49-6.58-.56-9.39-1.95-3-1.48-5.61-4-8-6.38-10.43-10.28-22.65-15.93-37.53-15-4.83.32-9.77.16-14.48,1.09-15.33,3-17.69,11.58-18.43,22.91-1,15.38,4.79,28.8,12.83,41.54,3.17,5,6.51,10.37,7.8,16,1.53,6.73,2.23,14.17,1,20.89-3,16.93,1.71,30.8,13.76,42.53,7.94,7.73,16.19,15.14,23.93,23.06,8.9,9.11,17.3,18.7,26.12,27.88,2,2.11,4.83,3.58,7.45,5,7.37,4.09,14.1,1,20.44-2.53,12-6.6,23.91-13.27,35.48-20.53,10.38-6.51,21.73-9.71,33.55-11.91,11.34-2.11,22.65-4.4,34-6.45a116.8,116.8,0,0,1,12.5-1.51c11-.76,22.06-.83,33-2.16,13.5-1.65,23.42-9.63,29.32-21.46s8.13-24.43,3.66-37.39c-4.28-12.4-13.44-19.87-26-21.75-9-1.34-18.29-.14-27.46-.29q-19.74-.33-39.49-1a33.85,33.85,0,0,1-10.46-1.55c-8.76-3.27-9.18-11.29-9.47-18.89-.52-13.22-2.74-26.09-8.65-38-7.81-15.69-20-24.8-38.41-23.54" transform="translate(4 0)"/><path class="cls-2" d="M515.44,868.89c-6.06,1.64-12.28,2-18.11,5.31-10.31,5.78-11.85,16.6-9.77,25.16,1.54,6.37,9.75,10.84,17.36,9.43,14.69-2.71,24.84-9.52,28.52-25.4,1.67-7.21-1.7-12.33-9-13.48-2.81-.44-5.66-.69-8.49-1" transform="translate(4 0)"/><path class="cls-3" d="M398.45,869.89c-6,1.67-12.08,3.08-18,5.05-12.54,4.2-21.77,17.2-18.72,34,1.61,8.83,3.43,17.33,8.22,25,8.55,13.62,19.56,19,35.93,14.82,15-3.78,26.2-12.62,29.52-28.81,3-14.52,1.5-28.37-7-41-4.06-6-10-8.67-17-9-4.16-.17-8.33,0-12.5,0" transform="translate(4 0)"/><path class="cls-3" d="M860.39,877.89c-5.83,1.33-11.83,2.17-17.46,4.09-15.86,5.43-23.65,19.11-18.45,36.38a105.39,105.39,0,0,0,20.48,38,56.7,56.7,0,0,0,8.45,7.52c10.06,7.93,15,19,19.61,30.47a49,49,0,0,0,8,13c4.61,5.55,9.94,5,14.38-.91A36.05,36.05,0,0,0,903,983.88,216.5,216.5,0,0,1,904,961.39a25.43,25.43,0,0,1,3.46-10c7.1-12,7.18-24.44,2.33-37-3.47-9-6.83-18-13.28-25.65-6.12-7.26-13.88-9.94-22.65-10.81-4.29-.42-8.65-.07-13-.07" transform="translate(4 0)"/><path class="cls-3" d="M1868.27,878.89c-1.67.67-3.56,1-5,2.06-4.1,3-4.56,6.93-1.54,10.44a8.15,8.15,0,0,0,11.5.5c4.37-4.15,4.9-9.21.93-11.9-1.41-1-3.6-.77-5.43-1.1" transform="translate(4 0)"/><path class="cls-3" d="M761.9,879.39c-5.59,3.27-9.7,12.63-7.88,19.47,1.12,4.2,1.81,8.64,5.27,12.14a6.4,6.4,0,0,0,9.08-.14c5.73-6,4.46-24.8-2-29.92-1.07-.84-2.63-1.05-4-1.55" transform="translate(4 0)"/><path class="cls-3" d="M395.45,886.89c-6.29,2-12,4.19-16.19,10.37-7.32,10.85-1.71,34.61,17.2,36.49a18.17,18.17,0,0,0,9.43-2c15.2-7.73,18.07-25.1,9.58-37.41-4.85-7-11.86-8-19.52-7.48" transform="translate(4 0)"/><path class="cls-2" d="M1144.36,886.89c-13.56,4.37-22.61,16.3-23.5,31-.2,3.33-1,6.8-.37,10,1.71,8.45,4.76,10.9,13.35,9.9,10.18-1.18,19-5.24,26.13-13.27,9.92-11.15,4.79-36.46-15.11-37.6" transform="translate(4 0)"/><path class="cls-3" d="M840.39,46c-12.44,3.46-19.08,13-25,23.47A83.32,83.32,0,0,0,804.77,104c-1.06,11.88-3.16,23.68-4.89,35.5-1.17,8,2.2,14.09,10.55,16.89,7,2.35,14.21,4.7,21.48,5.42,17.05,1.69,32.18,8.26,47,16.15,7.44,3.95,15.45,6.43,24,6,11.81-.61,21.64-5.56,29.51-14.43,10.14-11.43,14.78-25,15.43-40a177.48,177.48,0,0,0-.06-22.48c-.83-9.87-6.14-17.75-14-23.41-11.37-8.23-22.77-16.65-35-23.36-13.85-7.58-29.45-11-44.89-14.11-4.16-.84-8.64-.13-13-.13" transform="translate(4 0)"/><path class="cls-3" d="M1009.37,324c-2.5.83-5.26,1.23-7.44,2.58-5.86,3.64-7.86,10.42-4.46,16.87a50.8,50.8,0,0,0,21.95,21.95c6.69,3.43,15.28-1.4,16.34-9.42,2.19-16.64-8-31.5-25.89-32" transform="translate(4 0)"/><path class="cls-3" d="M1144.86,310.46c-10,1.21-15.21,7.79-18.5,16.5-4.89,13-2.58,25.83,1.11,38.46a72.51,72.51,0,0,0,10.8,22.6c8.25,11.35,23.26,10.58,29.11-2,3.18-6.86,4.58-14,5.7-21.48,1.57-10.51.15-20.55-2.35-30.5-2.16-8.63-6.28-16.43-14.91-20.45-3.26-1.51-7-2.08-10.46-3.08" transform="translate(4 0)"/><path class="cls-3" d="M1037.37,899.89c-9.59,4.13-11.33,12.62-4,20,1.92,1.91,4.06,4,6.5,4.91,7.28,2.53,10.88-.68,11.87-8.89s-5.75-15.5-13.91-16" transform="translate(4 0)"/><path class="cls-3" d="M294.46,910.89c-7.88,1.29-15.3,3.67-21.49,9-1.35,1.15-2.74,2.26-4,3.51q-14.78,14.72-29.51,29.49c-5.12,5.14-5.1,7.28-2.09,14.53a208.47,208.47,0,0,1,8,22.49,54.56,54.56,0,0,1,1.57,13.47c.45,16.15,4.59,31.07,14.6,43.95,6.35,8.17,14,11.34,24.43,5.49,5.15-2.9,10.14-6.12,15-9.48,12-8.27,23.26-17.34,37.43-22.22,9.71-3.35,11.14-9.4,6-18.71-6.24-11.34-9-23.78-12.41-36-3.1-11.13-5.31-22.58-9.24-33.41-3.34-9.21-9.23-17.18-19.3-20.51-2.7-.9-5.64-1.06-8.48-1.56" transform="translate(4 0)"/><path class="cls-3" d="M995.38,300c-7.17,1.5-14.37,2.85-21.49,4.54-10.89,2.58-21.22,6.57-30.51,13-8.94,6.14-18.74,9-28.93,4.35-12.33-5.66-22.49-1.25-32.55,5.17-14,8.92-23.79,21-27.47,37.48-2.89,12.94-.2,24.56,9,34.5,11.35,12.36,25.6,20.45,40.54,27.41,6,2.77,7.65,2.94,10.9-4.95,4.81-11.67,8.79-23.67,15.53-34.49,7.09-11.38,17.16-18,30.53-17.8A48.19,48.19,0,0,1,991.31,380c6,4.93,11.5,10.49,17,16,5.06,5,10.78,8.17,18,6.87a36.22,36.22,0,0,0,9-3.43c11.27-5.46,19.43-14.07,21.24-26.51a69.78,69.78,0,0,0-1.72-28.45c-3.29-11.93-7.67-23.19-16.95-32A42.82,42.82,0,0,0,1007.37,300H995.88" transform="translate(4 0)"/><path class="cls-3" d="M853.39,65c-14.27,2.73-20.9,12.91-25.58,25.47-4.21,11.27-4.7,22.91-3.72,34.51.85,10.24,7.08,17.22,16.79,21a475.7,475.7,0,0,1,45,20.42c14.24,7.38,29.38,3.6,40.13-9.82,10.88-13.58,12.43-38.7,1.23-51-7.11-7.83-15.12-14.87-22.92-22.06C892.92,73,878.94,67.7,863.88,65.07c-3.24-.56-6.65-.08-10-.08" transform="translate(4 0)"/><path class="cls-3" d="M671.42,932.88c-14.3,3.31-16.57,14.56-13,27,1,3.58,2.67,7,3.94,10.51,1.4,3.87,4.37,4.5,7.48,2.93,9.1-4.61,17-10.15,19.16-21.4,2-10.31-4.2-18.95-14.62-19h-2.5" transform="translate(4 0)"/><path class="cls-3" d="M297.46,948.88c-4.12,1.07-4.78,4.91-5.92,8-4.19,11.43-7.88,23-12.16,34.43a40.91,40.91,0,0,0-2.41,16.53c.31,7.1,6.26,10.15,12.5,6.51,8.92-5.19,13.41-13.7,15.84-23a61.23,61.23,0,0,0-1.34-36c-1.06-3.06-2.42-5.8-6-6.5" transform="translate(4 0)"/><path class="cls-3" d="M505.44,267c-1.34.5-2.69.95-4,1.5-5.54,2.35-6.95,5.45-5.52,11.5A68.24,68.24,0,0,0,509,307.4c4.08,5.08,7.69,5.13,11.84,0,6.75-8.37,10.83-17.77,8.08-28.92a14.91,14.91,0,0,0-14-11.48c-3-.12-6,0-9,0" transform="translate(4 0)"/><path class="cls-3" d="M1410.32,950.88c-13.26,3.46-23.79,10.92-30.89,22.56-5.65,9.25-8.12,19.85-9.44,30.45a256.7,256.7,0,0,0-2,33.48,61.31,61.31,0,0,0,5.75,25.53c7.25,15.66,21.16,16.28,33.51,12.3,14.78-4.78,21.13-17,23.43-31.35,1.32-8.23,1.62-16.64,2.08-25,.8-14.16,1.76-28.32,1.87-42.49.06-6.75-.62-13.73-5.29-19.53-4.95-6.16-11.63-6.26-18.54-6" transform="translate(4 0)"/><path class="cls-3" d="M1068.37,954.88c-13.41,4.79-17.66,16.66-21.39,28.53-3.36,10.73-.1,20.3,7.4,28.46,12.17,13.23,27.61,21.78,43.53,29.41,11.18,5.36,21.82,2.48,31.41-4.46s16.24-16.18,23-25.47c3.84-5.28,3.75-7.28-1-11.41-6.62-5.74-13.78-10.87-20.39-16.62a209.39,209.39,0,0,1-18-17c-5.67-6.25-13.11-8-20.62-9.27-7.72-1.31-15.64-1.47-23.47-2.14" transform="translate(4 0)"/><path class="cls-3" d="M112.49,77c-9.25,1.47-15,6.82-16.38,16a43.81,43.81,0,0,0,0,13.95c2,11.8,4.65,23.44,11.82,33.56C117.05,153.37,129.8,159,145,160a52.55,52.55,0,0,0,29.57-6.34c12.51-6.9,19.17-17.44,20.26-31.14,1-12.64-6.17-21.24-16.85-26.94-17.13-9.14-35.53-14.72-54.49-18.45-3.37-.66-7-.09-10.48-.09" transform="translate(4 0)"/><path class="cls-3" d="M1251.34,974.88c-7.5,1.33-15.06,2.37-22.48,4.06a207,207,0,0,0-44,15.47,24.36,24.36,0,0,0-5.48,3.51c-3.74,3.24-4.09,5.34,1.53,7.8,3.46,1.51,7.58,1.85,11.44,2.07,5.81.33,11.69-.32,17.48.17,10,.85,20,2.46,30,3.36,10.2.91,20.55,2.38,29.52-4.91,6-4.87,9.68-13.55,7.35-20.49-1.46-4.33-4.67-7.94-9.4-8.95-5.08-1.08-10.31-1.43-15.48-2.09" transform="translate(4 0)"/><path class="cls-3" d="M658.42,979.88c-11.5,4-23.11,7.7-34.46,12.09-8.72,3.37-15.52,9.08-17.52,18.91-1.94,9.5,4,16.51,11.48,18,9.29,1.84,17.52-1.24,25.5-5.49,11-5.84,19.58-13.76,21.85-26.53.75-4.17.17-8.69-.48-13a4.52,4.52,0,0,0-5.87-4" transform="translate(4 0)"/><path class="cls-3" d="M1402.32,982.88c-9.4,3.41-13.1,11.43-16,20-3.37,10.08-3.89,20.3-.5,30.48,2.18,6.56,6.32,11.4,13.48,12.44,6.56,1,12.92-2.94,16-10.41,4.35-10.42,4-21.19,2.85-32a40.9,40.9,0,0,0-3-12c-3.71-8.43-5.85-9-12.4-8.54" transform="translate(4 0)"/><path class="cls-3" d="M1148.36,274c-22.17,5.57-31.92,21.53-36.63,42.46-4.15,18.43-.15,36,4.22,53.5,2.86,11.45,6.46,22.72,10,34,2.91,9.43,8.55,17,18,20.39,14,5,27.25,2,35.42-13.4,6.15-11.54,9.22-24.05,10.47-37,.67-7,1.46-14.05.92-21-1.29-16.48-2.46-33.1-9.39-48.49a75.88,75.88,0,0,0-19-26.43,17.5,17.5,0,0,0-13.42-4.08" transform="translate(4 0)"/><path class="cls-3" d="M871.39,89c-2.67.83-5.5,1.33-8,2.55-13.79,6.82-18.48,24.63-9.43,36.37a24.9,24.9,0,0,0,8,6.48c8.69,4.6,17.43,9.2,26.49,13,13.18,5.51,24.15.38,25.82-12.91a20.43,20.43,0,0,0-1.5-10.43c-6.12-13.61-16.21-23.9-28.94-31.42-3.48-2.05-7.92-2.46-11.92-3.63" transform="translate(4 0)"/><path class="cls-3" d="M1815.27,1010.87c-7.19,2.21-13.92,5.36-17.91,12-3.48,5.85-4,12.26-.55,18.43,3.64,6.45,8.44,6,12.91,3.42,8.24-4.7,13.91-12,18-20.41,3.23-6.63-1-14-9-13.5-1,.07-2,0-3,0" transform="translate(4 0)"/><path class="cls-3" d="M681.41,264c-5.83,3.83-11.91,7.34-17.43,11.57-7.41,5.68-14.46,11.85-21.53,18a65.54,65.54,0,0,0-8,8c-7.41,9-7.72,18.29-.47,30.41a57.74,57.74,0,0,0,9,11.48,314.1,314.1,0,0,1,32.5,37c2.5,3.37,5.81,6.17,9,9,5.07,4.61,11.64,4.54,17.43,3.34,20.35-4.22,38.86-12.27,51.46-29.86a52.75,52.75,0,0,0,9.45-26.45A33,33,0,0,0,752.33,309a210.48,210.48,0,0,0-18.46-15.52c-10.52-8-21.28-15.73-32-23.55-5.95-4.35-12.46-6.89-20-6" transform="translate(4 0)"/><path class="cls-3" d="M129.48,97c-2,.5-4.13.7-6,1.55-8,3.68-9.92,10.65-8,18.93,3.64,15.32,13.17,24.56,28.9,27.6,10.51,2,19.45-.78,25.85-8.73,6.91-8.59,4.85-20.06-5.8-27.89-10.32-7.59-22-10.77-34.53-11.46" transform="translate(4 0)"/><path class="cls-3" d="M897.39,257c-6.75,2.48-9.25,7.63-9.55,14.49-.39,9.06,1.13,17.46,6.5,25,3.27,4.61,6.94,8.65,13,7.34,6.29-1.36,10.47-5.94,12.45-11.9,3.79-11.44-3.45-28-14.46-33.39-2.22-1.08-5-1.08-7.46-1.58" transform="translate(4 0)"/><path class="cls-3" d="M1021.37,98c-6,1.5-12.26,2.34-17.94,4.62-15.16,6.08-22.87,18.57-25.32,33.91a116.63,116.63,0,0,0-.93,30.43c1.18,11,4.66,21.7,7.21,32.52,1.77,7.52,4.14,14.92,5.37,22.52,1.76,10.85-8.48,19.45-19.38,20-8,.42-15.37-1.62-22.51-5-11.18-5.33-21.79-11.9-34-15.06-17.48-4.54-34.74-5.05-51.48,2.6-10.92,5-15.44,14.35-16.58,25.93-1.55,15.65-2.6,31.35-9.33,46.06a264.83,264.83,0,0,0-10,27c-4.89,14.76-9.87,29.51-13.93,44.51C808,384.68,811,399.8,824.38,412c6.62,6,13.2,12.13,19.47,18.52,7.25,7.42,12.17,16.31,10.82,26.92-.8,6.32-3.23,12.61-5.9,18.48-4.87,10.71-9.79,21.18-12.11,33C832.91,528,836,545,847.89,560.43c7.84,10.17,15.3,20.65,23.68,30.34A30.12,30.12,0,0,0,885,599.62c6.61,2,12.63-1,16.38-7.21a139.12,139.12,0,0,0,7-12.5c6.67-14.11,14.55-27.45,24.55-39.47,10.89-13.1,18.36-28.24,25.4-43.54s18.15-26.4,32.6-34.43c14.6-8.12,29.59-15.56,43.9-24.16a433.42,433.42,0,0,0,39-26c12-9.11,15.34-22.46,12.5-36.8-4.35-21.93-9.35-43.73-14.46-65.5-2.33-10-6-19.59-8.33-29.53-5.1-21.55,1-39.63,17.91-54,3.7-3.13,7.23-6.46,11-9.47,11.22-8.91,11.93-22.47,6.46-35-4.54-10.39-9.59-20.56-13.88-31.05-2.85-6.95-4.84-14.27-7.08-21.46q-8.75-28.09-38-30.47c-6-.48-12-.69-18-1" transform="translate(4 0)"/><path class="cls-3" d="M1022.37,110c-6.87,1.53-13.6,3.14-19.55,7.42-9,6.49-13,15.4-13.93,26.07-1.94,23.11,8.36,42,21.06,59.94a110.15,110.15,0,0,0,13,15c5.74,5.6,12.73,7.31,20.41,4.07,12.48-5.27,22.45-13.39,29-25.46,4-7.25,3-15.11,2.21-22.49-1.17-10.78-3.75-21.44-6.31-32-5.27-21.74-18.3-33.12-42.43-32.52-1,0-2,0-3,0" transform="translate(4 0)"/><path class="cls-3" d="M1022.37,125c-14.84,4.15-19.91,13.85-19.32,26,.52,10.65,5.14,20.17,11.87,28.47a53.56,53.56,0,0,0,7.48,7.5c11.59,9.51,27.12,5.95,31.91-9,4.31-13.46,3.53-26.75-3-39.47-4.67-9.15-12-13.91-22.49-13.52-2,.08-4,0-6,0" transform="translate(4 0)"/><path class="cls-2" d="M199.48,178,182,180c-12,1.34-24,2.7-36,4-4.15.44-8.33.81-12.5,1-9.49.42-19,.8-28.49,1a145.88,145.88,0,0,0-44,8.1A15,15,0,0,0,50.56,206C46.67,229.07,48,251,65,269.49c7.67,8.35,15,17,22.53,25.47,9.22,10.45,13,23.16,15.57,36.48a164.67,164.67,0,0,0,5.53,21.48c3,8.82,10.54,12.54,18.89,15.06a93.28,93.28,0,0,0,35,3.8c5.43-.46,10.74-2.65,16-4.4,2.8-.93,5.29-2.78,8-3.89a20.25,20.25,0,0,1,18.5,1.44c10.06,5.76,21,7.62,32.48,7,12.17-.64,24.34-1.91,36.49-1.81,9.68.08,19.32,2.33,29,2.67s20,1.8,28-6.34a20.93,20.93,0,0,0,5.94-15c.12-9.53.07-19.1,4.12-28a52.51,52.51,0,0,1,6.47-10.5A102.8,102.8,0,0,0,369,260c.91-8.18,2.78-16.33,2.78-24.5,0-10.12-2.81-19.7-11.82-26-7.39-5.14-15.11-9.84-22.43-15.08s-14.63-4.44-20.91.23c-11.27,8.38-22.9,16.53-30.24,29.26-4.46,7.73-6,16.05-7.39,24.56-1,6.16-1.51,12.46-3.14,18.46-1.48,5.46-5.48,9.36-10.86,11.52-6.13,2.47-14.46-2.67-16.38-9-2-6.52-3.85-13.23-4.43-20-.75-8.76.27-17.68-.31-26.47-.57-8.54-1.19-17.31-3.63-25.43-3.09-10.3-11.57-17.5-24.24-18.55-5.32-.45-10.66-.69-16-1" transform="translate(4 0)"/><path class="cls-3" d="M677.42,292a54.36,54.36,0,0,0-23,13c-10.21,9.63-8.53,20.26-.77,28.87,11.82,13.1,26.06,23.43,41.77,31.74,15.88,8.39,38.08.63,45.91-14.14,7.11-13.39,3.67-25.45-6.93-34.87-11.44-10.17-25.09-17-39.05-22.79-5.15-2.14-11.55-1.27-17.38-1.77" transform="translate(4 0)"/></svg>