<?xml version="1.0" encoding="utf-8"?>
<!-- Generator: Adobe Illustrator 23.0.6, SVG Export Plug-In . SVG Version: 6.00 Build 0)  -->
<svg version="1.0" id="Layer_1" xmlns="http://www.w3.org/2000/svg" xmlns:xlink="http://www.w3.org/1999/xlink" x="0px" y="0px"
	 viewBox="0 0 1920 1080" style="enable-background:new 0 0 1920 1080;" xml:space="preserve">
<style type="text/css">
	.st0{fill:none;stroke:#5BBDAD;stroke-width:3;stroke-linecap:round;stroke-linejoin:round;stroke-miterlimit:10;}
	.st1{fill:none;stroke:#5BBDAD;stroke-width:2;stroke-linecap:round;stroke-linejoin:round;stroke-miterlimit:10;}
</style>
<rect x="-3" y="-1" width="1926" height="1096"/>
<path class="st0" d="M834.4,2c-7,7.33-14.7,14.13-20.83,22.13c-8.67,11.32-16.39,23.39-24.1,35.41
	c-6.62,10.31-10.11,21.92-12.05,33.96c-2.42,15.07-8.86,28.16-19.01,39.5c-11.02,12.31-21.86,24.79-33.04,36.95
	c-10.18,11.07-22.88,13.18-37.48,11.23c-25.69-3.42-50.64-10.17-76.02-14.91c-6.06-1.13-13.39-2.43-18.96,3.2
	c-4.51,4.55-5.96,9.93-4.45,16.01c2.88,11.53,5.76,23.07,9.02,34.49c4.31,15.1,2.36,29.3-3.89,43.58
	c-5.11,11.66-9.95,23.66-12.89,35.99c-4.49,18.81-2.43,37,10.16,52.99c4.3,5.46,8.09,11.41,11.5,17.48
	c7.39,13.13,3.95,23.39-4.48,32.41c-3.21,3.44-7.26,6.1-10.39,9.6c-6.22,6.97-12.65,13.87-17.94,21.53
	c-9.69,14.02-19.6,27.83-31.14,40.39c-6.56,7.14-13.91,13.42-23.5,15.94c-12.81,3.37-24.8,0.47-35.41-7.02
	c-9-6.36-17.62-13.31-26.02-20.46c-12.81-10.9-27.8-17.33-43.54-22.46c-10.37-3.38-20.64-7.08-31.02-10.43
	c-4.87-1.57-9.95-0.95-13.91,2.05c-13.78,10.4-27.5,20.92-38.59,34.38c-6.01,7.29-12.8,13.99-18.36,21.6
	c-9.8,13.43-13.81,28.41-6.91,44.33c2.76,6.37,7.03,12.52,11.94,17.44c13.97,14,22.49,30.95,29.46,49.1
	c3.92,10.22,6.69,21.03,13.39,30.04c9.37,12.62,21.48,20.65,37.5,21.42c8.81,0.43,17.67-0.17,26.49,0.13
	c13.59,0.46,24.61,5.51,29.94,18.97c2.97,7.51,3.85,15.38,2.6,23.48c-1.33,8.64-2.6,17.3-3.48,26c-1.22,12.14-2.64,24.31-2.88,36.49
	c-0.2,10.32,0.9,20.69,1.91,30.98c0.74,7.54,1.63,15.17,3.56,22.47c3.15,11.92,11.34,18.2,23.86,18.55
	c10,0.28,20.02,1.24,29.99,0.85c13.69-0.54,25.15-6.9,32.82-17.98c10.19-14.71,21.47-28.48,32.61-42.42
	c9.87-12.36,15.27-26.68,17.11-42.44c2.5-21.46,7.42-42.47,14.09-62.95c8.09-24.85,17.01-49.44,25.92-74.01
	c7.79-21.47,23.37-33.8,45.95-36.96c11.95-1.67,24-3.9,35.98-3.75c13.85,0.17,27.72,2.34,41.48,4.3c11.31,1.61,22.5,4.44,34,3.31
	c10.23-1,15.18-3.25,19.99-17.93c2.44-7.46,4.26-15.16,7.11-22.46c6.22-15.94,12.97-31.67,19.39-47.54
	c5.03-12.41,3.4-21.2-5.56-30.92c-5.42-5.88-11.42-11.26-17.45-16.53c-16.34-14.27-18.11-31.58-11.52-51.05
	c4.93-14.57,10.07-29.14,13.84-44.03c3.26-12.85,3.91-26.22,1.65-39.43c-1.95-11.39-8.57-19.47-18.94-24.51
	c-1.34-0.65-2.8-1.15-3.98-2.03c-4.81-3.57-6.05-8.33-3.49-14.45c3.52-8.39,7.04-16.81,11.02-24.98
	c6.54-13.41,17.49-19.82,32.42-21.24c12.17-1.16,23.37,2.69,35.01,4.24c9.02,1.2,17.96,3.08,27.01,3.87
	c12.63,1.09,25.32,1.98,37.99,1.94c10.77-0.03,20.25-4.13,25.39-14.39c2.77-5.53,5.22-11.45,6.44-17.48
	c2.26-11.21,3.45-22.64,5.18-33.96c2.35-15.44,5.05-30.74,17.48-42c7.56-6.85,16.57-11.01,26.52-11.82
	c12.94-1.05,25.98-1.14,38.98-1.04c5.84,0.04,11.68,1.46,17.5,2.38c11.51,1.83,16.92,10.07,20.46,19.99
	c3.01,8.43,5.75,16.97,8.52,25.49c2.86,8.78,7.98,16.27,14.08,22.93c12.27,13.38,23.67,27.62,38.82,38.21
	c6.55,4.58,7.47,11.29,1.11,17.86c-8.81,9.1-19.58,15.4-30.5,21.49c-5.67,3.16-11.48,6.1-16.97,9.55
	c-11.17,7.01-16.41,17.5-18.14,30.43c-2.03,15.2,0.82,30.02,1.94,45.02c1.45,19.45,7.11,37.99,10.69,56.98
	c1.84,9.77,1.84,19.49-1.09,28.98c-2.82,9.12-9.28,15.35-17.42,20.03c-20.52,11.79-41.08,23.52-61.46,35.54
	c-8.71,5.14-17.26,10.62-25.48,16.52c-11.35,8.15-19.84,19-25.97,31.46c-7.33,14.87-16.66,28.41-26.03,41.99
	c-9.74,14.12-16.24,29.51-17.11,46.96c-0.23,4.52-1.18,9.02-1.95,13.5c-1.25,7.26-4.83,12.54-11.94,15.59
	c-9.59,4.1-19.46,4.78-29.52,3.35c-9.37-1.33-15.74-7.47-21.53-14.41c-5.37-6.44-10.92-12.73-16.5-19
	c-2.38-2.67-5.31-3.82-8.99-2.55c-3.45,1.19-4.01,4.06-4.48,7.03c-3.03,19.23,0.15,37.55,8.54,54.97
	c4.22,8.76,11.62,14.75,20.02,18.89c17.68,8.7,29.58,22.31,35.8,40.67c4.16,12.27,7.36,24.9,10.48,37.49
	c0.93,3.77,0.57,8.02,0.06,11.95c-1.08,8.4-8.56,13-16.92,11.04c-6.81-1.6-13.21-4.07-18.99-8.03c-6.52-4.48-13.23-8.7-19.45-13.56
	c-10.91-8.51-15.45-21.05-20.03-33.44c-5.03-13.64-14.57-21.09-28.99-23.65c-15.59-2.76-30.53-1.93-45.55,3.07
	c-19.96,6.64-34.81,19.16-45.48,37.07c-9.98,16.76-14.84,35.32-19.52,53.99c-2.82,11.24-4.68,22.96-12,32.48
	c-16.8,21.85-37.22,38.49-64.94,44.59c-7.1,1.56-14.19,3.47-20.98,6.03c-13.81,5.21-21.28,16.67-26.98,29.42
	c-5.41,12.09-11.66,23.52-24.61,28.83c-6.49,2.66-13.69,3.55-20.42,5.7c-10.24,3.27-20.83,5.96-30.41,10.66
	c-16.49,8.09-18.07,18.86-16.06,35.27c0.88,7.2,2.67,14.3,3.37,21.51c1.24,12.76-4.05,23.2-14.52,29.81
	c-17.33,10.95-32.99,23.67-46.92,38.64c-1.44,1.55-3.3,2.69-4.97,4.03"/>
<path class="st0" d="M926.88,1.5c-0.67,7.5-1.07,15.03-2.06,22.49c-1.49,11.26-7.58,13.22-15.95,13.88
	c-13.8,1.09-27.27-1.37-40.49-5.36c-7.47-2.25-14.88-5-22.53-6.29c-5.23-0.88-10.64,0.89-15.48,3.74
	c-11.61,6.86-18.79,17.8-25.87,28.6c-9.18,14.01-13.73,29.75-15.72,46.41c-1.78,14.89-8.85,27.52-18.9,38.5
	c-8.68,9.48-16.02,19.97-18.82,32.54c-4.4,19.8-18.73,27.84-36.22,31.7c-7.77,1.71-16.03,0.16-23.97-2.14
	c-9.03-2.62-18.23-4.83-27.48-6.51c-14.28-2.6-25.52,6.26-27.5,20.9c-0.86,6.35-2.2,12.64-2.93,19.01
	c-1.22,10.73-6.88,19.02-14.07,26.47c-7.36,7.62-15.07,14.77-20.08,24.47c-8.73,16.92-5.95,36.82,6.07,51.58
	c7.2,8.84,14.52,17.64,20.92,27.04c10.5,15.41,7.66,32.91-7.85,43.97c-8.71,6.21-17.19,12.76-25.46,19.54
	c-3.15,2.58-5.85,5.96-8,9.45c-12.82,20.78-28.02,39.81-43.1,58.92c-4.61,5.84-9.49,11.49-14.51,16.99
	c-4.66,5.1-3.86,10.56-1.4,16.01c3.8,8.42,8.22,16.57,11.88,25.05c5.88,13.6,1.8,25.34-7.42,35.98
	c-11.38,13.13-25.76,19.9-42.99,21.62c-8.74,0.88-17.46,2.77-25.98,4.99c-7.44,1.94-8.9,5.09-6.45,12.34
	c2.12,6.29,5.32,12.23,7.33,18.55c3.42,10.75,4.11,21.74,2.18,32.98c-1.47,8.58-2.46,17.29-3,25.99
	c-0.71,11.31-1.38,22.68-0.93,33.98c0.52,12.95,1.67,25.9,5.27,38.52c3.74,13.12,13.94,22.25,29.56,22.69
	c13.15,0.37,22.27-5.6,30.56-14.66c5.88-6.43,11.97-12.72,18.51-18.48c12.9-11.36,24.4-23.78,29.26-40.62
	c2.8-9.72,3.97-19.92,5.64-29.95c1.82-10.97,3.77-21.95,4.93-33c1.35-12.89,4.11-25.37,8.62-37.48
	c7.63-20.52,15.75-40.78,26.29-60.1c9-16.5,22.66-25.61,40.2-29.83c12.42-2.99,24.88-6.24,37.51-7.82
	c11.86-1.48,23.97-0.75,35.96-1.31c7.18-0.33,14.34-1.23,21.5-1.95c8.04-0.82,14.66-4.91,20.44-10.05
	c14.73-13.12,27.53-27.96,34.89-46.49c3.73-9.39,6.64-19.73-0.93-28.85c-4.8-5.78-10.7-10.62-15.86-16.12
	c-4.85-5.16-9.73-10.36-13.95-16.03c-5.37-7.22-5.54-15.76-2.96-23.89c4.35-13.65,9.28-27.14,14.44-40.51
	c4.32-11.18,7.23-22.55,5.82-34.51c-1.15-9.73-6.73-17.05-14.36-23.05c-8.65-6.81-17.21-13.75-25.46-21.03
	c-4.71-4.15-7.33-9.77-9.17-15.89c-2.28-7.55,0.21-14.37,2.75-20.97c3.05-7.9,6.93-15.53,10.92-23.02
	c4.97-9.33,12.68-15.83,21.86-21.15c17.2-9.96,35.8-12.47,55.05-11.24c10.89,0.7,21.17,4.4,31.05,9.27
	c10.64,5.25,22.18,8.51,33.95,8.38c23.72-0.25,39.69-8.55,49.27-34.38c3.71-9.99,5.12-20.87,7.16-31.42
	c2.37-12.29,3.44-24.91,10.07-35.98c7.12-11.9,18.27-17.63,31.5-18.84c11.93-1.09,24-0.56,35.98-1.23
	c12.12-0.68,23.96-2.66,34.02-10.4c4.73-3.64,9.65-7.02,14.48-10.52c6.05-4.38,12.72-3.43,18.4-0.31
	c9.39,5.15,17.47,12.31,24.04,20.86c4.08,5.32,3.48,11.26,0.51,16.93c-1.56,2.98-3.66,5.67-5.44,8.53
	c-7.4,11.89-8.03,24.11-0.42,35.93c8.49,13.18,18.91,24.85,33.51,31.32c5.86,2.6,13.03,3.99,19.36,3.4
	c9.47-0.88,15.12-8.16,15.78-17.18c0.96-13.09,0.7-26.33,0.07-39.47c-0.35-7.24,3.23-16.28,10.74-19.35
	c6.35-2.59,13.18-4.32,19.95-5.56c22.64-4.15,45.54-4.08,68.47-4.26c15.01-0.11,22.95-5.41,24.87-23.35
	c1.06-9.92,0.79-19.98,1.13-29.98c0.33-9.67,0.67-19.33,1-29"/>
<path class="st1" d="M1920.26,643.92c-8.5,1-16.98,2.47-25.5,2.88c-10.47,0.5-21.02,0.55-31.48-0.03
	c-7.37-0.41-14.94-1.33-21.95-3.53c-14.74-4.62-21.2-14.93-22.57-31.82c-1.23-15.1,3.87-29.16,7.2-43.45
	c1.61-6.88,2.28-13.7,1.66-20.53c-0.59-6.41-4.07-11.71-9.85-14.99c-12.47-7.07-30.45-7.48-39.31,5.59
	c-4.17,6.15-6.73,13.46-9.62,20.4c-4.63,11.1-8.64,22.41-15.46,32.53c-7.51,11.15-17.35,18.48-30.59,20.9
	c-8.46,1.55-16.96,2.96-25.5,3.99c-20.27,2.45-38.94,8.2-54.05,22.99c-13.66,13.37-23.76,28.91-29.33,47.09
	c-5.96,19.44-18.67,31.59-37.59,38c-7.5,2.54-15.02,4.56-23.01,5.04c-12.37,0.73-23.13-3.84-33.46-9.64
	c-9.87-5.54-19.74-10.81-31.02-12.98c-8.88-1.71-17.63-1.72-26.52,0c-15.63,3.01-31.39,5.37-46.97,8.64
	c-19.39,4.07-36.56,12.39-47.92,29.47c-5.52,8.31-7.44,17.8-7.76,27.93c-0.52,16.37,4.28,30.65,14.72,42.95
	c11.15,13.15,25.3,18.47,42.44,14.53c9.18-2.11,18.29-4.56,27.51-6.42c7.59-1.53,15.32-2.38,22.98-3.58
	c10-1.57,18.95-6.06,27.43-11.11c16.26-9.69,33.62-16.23,52.08-19.8c18.66-3.61,34.91,1.39,48.52,14.89
	c4.1,4.07,8.33,8.12,13.03,11.44c8.43,5.96,14.05,3.38,19.86-2.97c2.73-2.97,4.95-6.48,7.03-9.96c7.04-11.8,18.09-17.35,31.05-18.18
	c7.12-0.46,14.83,1.53,19.39,8.26c2.97,4.38,3.49,9.79,0.94,14.36c-3.61,6.48-7.82,12.71-12.44,18.51
	c-8.23,10.34-13.8,22.03-18.97,34.04c-3.06,7.12-6.78,13.95-9.91,21.03c-5.28,11.92-9.1,24.25-8.44,37.47
	c0.18,3.53,0.94,7.32,2.54,10.43c2.87,5.61,8.28,7.53,14.36,7.56c9.17,0.04,18.35-0.37,27.49,0.11c10.85,0.58,21.67,1.85,32.5,2.92
	c5.68,0.56,11.32,1.65,17,1.9c7.65,0.33,15.33,0.26,22.99,0.04c12.79-0.36,25.12,2.26,36.4,7.74c13.97,6.78,28.91,10.01,43.58,14.32
	c12.15,3.57,23.6,8.8,32.42,18.06c13.5,14.18,14.45,30.08,7.97,48.37c-5.3,14.94-15.54,27.11-24.36,40.05
	c-2.45,3.59-4.68,7.32-7.02,10.99"/>
<path class="st1" d="M499.44,2c0.5,1.17,1.38,2.32,1.44,3.5c0.44,9.49,0.57,19,1.11,28.49c0.4,7.01,1.62,13.99,1.87,21
	c0.33,9.37-2.36,12.96-11.42,16.47c-4.62,1.79-9.29,3.47-14,5c-10.08,3.26-9.45,10.18-7.86,18c1.56,7.62,4.74,14.92,6.22,22.55
	c1.63,8.38,2.21,16.96,3.12,25.47c0.48,4.48,1.05,9,0.96,13.49c-0.34,16.64-3.99,32.2-18.52,42.37
	c-10.89,7.63-22.44,14.35-33.95,21.05c-10.71,6.23-21.65,12.21-28.87,22.62c-7.69,11.1-10.4,23.53-7.59,36.94
	c0.98,4.65,3.09,8.66,6.5,12c2.86,2.8,5.6,5.73,8.52,8.48c6.81,6.42,5.72,13.02-0.52,18.5c-4.79,4.21-9.82,8.17-14.46,12.54
	c-9.42,8.88-14.38,20.26-18.12,32.43c-3.34,10.88-4.28,22.5-10.36,32.55c-3.46,5.71-9.89,8.8-16.06,8.05
	c-14.98-1.83-28.82-7.48-42.99-12.06c-13.15-4.24-26.7-7.05-40.47-5.37c-20.44,2.5-37.57,11.02-47.5,30.35
	c-2.73,5.3-5.73,10.51-7.92,16.03c-3.61,9.11-9.84,16.17-17.68,21.32c-13.96,9.17-18.58,22.49-20.01,38.13
	c-1.53,16.71-3.04,33.5-6.14,49.96c-2.87,15.22-9.77,28.92-21.71,39.59c-4.7,4.2-10.06,6.98-16.05,8.39
	c-7.91,1.87-15.09-2.44-18.31-11.99c-2.38-7.04-4.03-14.55-4.49-21.95c-0.94-15.13-0.79-30.32-1.21-45.48
	c-0.15-5.34-0.83-10.66-0.93-16c-0.16-9.05,3.44-14.3,11.96-17.47c11.44-4.25,22.99-8.12,33.02-15.48
	c15.06-11.05,16.77-22.42,14.34-37.02c-3.56-21.38-20.21-31.6-39.87-31.47c-4,0.02-8.09,0.2-11.98,1.05
	c-7.01,1.53-12.55,5.33-16.05,11.89c-4.74,8.91-10.63,16.97-20.03,21.38c-3.46,1.63-7.58,2.32-11.44,2.51
	c-6.7,0.33-10.34-5.29-7.43-11.35c3.58-7.46,8.91-13.52,15.92-18.05c2.09-1.35,3.91-3.15,6.03-4.45
	c9.63-5.87,12.55-15.14,12.37-25.53c-0.16-9.51-1.02-19.02-1.97-28.49c-0.6-6.04-1.38-12.16-3.04-17.97
	c-3.39-11.88-10.43-21.82-17.83-31.57c-6.28-8.28-12.76-16.56-17.84-25.57c-4.37-7.75-6.89-16.54-10.21-24.88
	c-2.85-7.16-4.98-14.71-8.66-21.41c-5.88-10.68-16.73-14.1-27.84-16.59"/>
<path class="st0" d="M1920.26,658.92c-4.67,0.67-9.31,1.65-14,1.94c-13.65,0.84-27.35,1.06-40.98,2.16
	c-12,0.97-24.7,1.12-33.88,10.52c-5.85,6-10.14,13.49-15.72,19.79c-5.23,5.89-10.93,11.46-17,16.46c-4.87,4.01-11.13,4.71-17.4,4.12
	c-6.16-0.58-9.21-4.86-10.89-10.03c-1.35-4.16-2.37-8.62-2.48-12.97c-0.23-9.05-1.24-18.3,2.43-26.97
	c2.23-5.28,4.61-10.55,7.53-15.47c4.44-7.48,6.38-15.47,6.99-24.04c0.67-9.54,2.04-18.84,6.78-27.59c3.93-7.25,6.62-15.2,9.57-22.94
	c0.87-2.29,1.35-5.07,0.92-7.44c-0.47-2.62-1.54-6.19-3.49-7.25c-2.69-1.45-6.46-0.16-8.26,2.77c-2.97,4.81-5.81,9.78-7.99,14.99
	c-3.35,8.02-5.29,16.71-9.29,24.35c-5.17,9.86-14.11,16.42-24.34,20.48c-10.83,4.3-22.39,5.79-33.94,7.16
	c-15.46,1.84-30.78,4.05-44.54,12.39c-16.25,9.86-24.75,24.85-29.44,42.56c-2.77,10.47-4.61,21.26-8.28,31.4
	c-2.47,6.83-7.47,12.72-11.2,19.11c-1.38,2.37-2.96,4.88-3.42,7.5c-1.23,7.06,4.22,11.65,13.38,12c12.04,0.46,23.53-2.61,34.97-5.63
	c7.32-1.94,14.53-3.26,22.02-1.87c9.68,1.79,16.45,7.72,22.03,15.46c5.83,8.11,8.93,17.33,9.24,27.02
	c0.24,7.58-1.86,15.31-6.84,21.42c-5.65,6.95-11.45,13.91-18.02,19.95c-11.74,10.78-18.3,24.7-24.78,38.66
	c-3.81,8.2-7.47,16.72-9.36,25.5c-2.49,11.55-1.9,19.91,13.29,24.3c7.43,2.15,15.25,3.46,22.97,3.98c9.95,0.67,20,0.49,29.98,0.07
	c8.85-0.37,17.65-1.8,26.5-2.35c15.84-1,31.84-4.32,47.44,1.09c5.14,1.78,10.06,4.72,14.48,7.95c13.64,9.97,28.8,16.97,44.03,23.97
	c8.66,3.98,17.11,8.44,25.5,12.98c7.2,3.9,9.54,10.62,10.08,18.44c1.48,21.3-4.11,41.09-13.19,59.93
	c-4.69,9.72-10.86,18.73-16.35,28.07c-1.36,2.32-2.67,4.66-4,7"/>
<path class="st1" d="M1026.87,1080.36c-6-14.96-18.46-21.39-32.96-25.61c-8.84-2.57-17.6-5.7-25.97-9.52
	c-10.35-4.73-15.93-13.61-15.82-24.86c0.06-6.84,1.78-13.88,3.9-20.46c4.26-13.22,9.26-26.22,11.33-40.04
	c1.44-9.64,1.33-19.33,0.03-28.99c-2.34-17.39-10.21-32.92-16.47-49c-3.8-9.78-7.24-19.7-11.05-29.48
	c-5.94-15.21-14.75-28.47-29.09-36.79c-5.41-3.14-12.13-4.23-18.39-5.63c-9.77-2.18-19.33,0.55-29,1.71
	c-5.25,0.63-11.35,1.99-15.89-2.38c-2.45-2.36-4.35-5.43-6.03-8.44c-6.29-11.26-12.83-22.42-18.39-34.04
	c-3.81-7.95-6.2-16.57-9.14-24.93c-5.46-15.51-15.47-26.39-32.04-29.33c-10.98-1.95-21.87-0.82-32.52,3.73
	c-26.38,11.25-38.81,33.02-45.29,59.15c-2.3,9.26-2.93,18.95-4.13,28.46c-1.64,12.99-4.5,25.32-14.99,34.53
	c-10.64,9.34-20.76,19.28-31.6,28.38c-12.21,10.24-27.23,14.37-42.38,18.24c-6.74,1.72-13.45,4.48-19.44,8
	c-8.89,5.24-12.46,14.64-16.16,23.8c-2.82,6.97-5.65,14.07-9.56,20.44c-7.27,11.87-18.67,16.7-32.35,17.71
	c-11.37,0.84-22.84,1.88-32.56,9.29c-6.94,5.29-10.71,12.17-10.79,20.57c-0.07,7.49,1.36,14.99,1.81,22.5
	c0.83,13.94-4.43,25.62-14.53,34.92c-7.65,7.04-16.32,13-23.8,20.21c-5.5,5.31-9.8,11.86-14.63,17.86"/>
<path class="st1" d="M1.5,647.92c6.5,2.83,13.24,5.22,19.44,8.6c11.51,6.28,19.39,15.92,23.52,28.41
	c4.12,12.46,8.55,24.85,11.85,37.53c2.38,9.16,0.99,18.64-0.77,27.96c-1.73,9.12-3.91,18.28-4.34,27.5
	c-0.63,13.44,7.49,24.79,17.8,26.97c8.08,1.71,16.18,0.63,23.43-2.63c21.82-9.84,39.58-24.89,51.86-45.47
	c5.99-10.04,13.5-17.79,23.74-22.8c12.59-6.15,20.67-16.45,27.44-28.09c9.53-16.38,20.37-31.74,33.45-45.54
	c7.42-7.83,16.87-8.41,26.05-2.92c24.15,14.42,37.08,36.28,42.04,63.47c2.32,12.7,5.06,25.32,7.44,38.01
	c2.23,11.88,4.37,23.83,3.47,35.99c-1.06,14.35-8.39,25.15-20.5,32.41c-11.07,6.63-23.46,10.07-35.94,13.1
	c-16.18,3.94-32.25,8.4-48.53,11.83c-9.65,2.03-19.61,2.78-29.47,3.58c-11.97,0.98-24,1.26-35.99,2.12
	c-9.45,0.68-16.62,5.69-18.22,15.99c-2.31,14.86-2.32,29.95,0.6,44.97c2.14,11,9.04,18.77,16.16,26.43
	c13.16,14.16,26.85,27.83,39.87,42.11c10.24,11.23,17.26,24.55,22.02,38.95c4.43,13.41,8.58,26.92,12.44,40.51
	c1.22,4.29,1.11,8.97,1.61,13.47"/>
<path class="st1" d="M223.97,1080.36c-1.67-8.17-2.66-16.54-5.15-24.45c-4.3-13.67-9.22-27.16-14.43-40.51
	c-5.65-14.49-14.4-27.16-24.37-39.06c-9.3-11.1-17.88-22.7-23.07-36.45c-2.63-6.97-3.99-14.25-2.8-21.48
	c1.25-7.56,6.61-12.72,12.8-17.06c14.75-10.36,31.06-17.83,47.01-25.98c21.22-10.84,43.76-17.63,66.98-22.59
	c6.66-1.42,13.01-4.27,19.53-6.38c13.85-4.48,19.6-15.39,21.31-28.53c1.28-9.87,1.59-20.01,1.02-29.96
	c-0.93-16.43-3.61-32.65-8.28-48.52c-4.4-14.93-8.96-29.85-12.39-45.02c-3.66-16.14-11.51-29.63-22.68-41.43
	c-5.34-5.65-10.93-11.07-16.48-16.51c-15.94-15.63-39.26-12.61-53.37,1.6c-4.4,4.44-7.95,9.94-11.01,15.44
	c-6.67,11.98-12.48,24.43-19.18,36.39c-7,12.51-18.41,17.36-32.42,17.08c-7.67-0.16-15.24-0.21-22.56,3.34
	c-7.22,3.51-9.97,9.36-11.5,16.61c-1.45,6.84,0.01,14.33-4.45,20.5c-1.6,2.21-2.96,4.81-5.06,6.41c-5.04,3.84-9.43,1.61-10.87-3.42
	c-0.83-2.91-1.39-5.97-1.5-8.98c-0.32-9.42,1.05-19-3.06-27.99c-2.66-5.83-5.4-11.63-7.98-17.51c-3.42-7.79-4.71-16.03-5.04-24.49
	c-0.19-4.84-0.54-9.68-1-14.5c-0.76-8.03-5.29-13.1-12.99-14.93c-7.59-1.81-15.39-2.76-22.96-4.64c-11.73-2.9-23.35-6.27-35.02-9.41
	c-0.47-0.13-1-0.02-1.5-0.02"/>
<path class="st0" d="M1200.35,1079.86c13.64-8.16,28.45-13.19,44.01-15.89c5.72-0.99,11.67-0.54,17.47-1.16
	c10.45-1.12,21.05-0.94,31.04-5.35c11.01-4.86,19.31-12.46,25.44-22.61c7.69-12.75,10.89-26.78,12.7-41.46
	c1.49-12.11,0.72-23.92-2.38-35.47c-1.77-6.62-4.79-13.15-8.44-18.96c-9.26-14.75-19.07-29.17-28.95-43.52
	c-2.58-3.74-5.87-7.22-9.5-9.94c-4.72-3.53-10.21-4.66-15.91-1.64c-5.46,2.9-11.15,5.41-16.46,8.56
	c-19.06,11.29-32.5,3.24-42.47-11.08c-6.12-8.8-11.39-18.2-17.64-26.89c-6.75-9.39-16.63-13.98-27.91-15.53
	c-6.14-0.85-12.41-2.33-18.47-1.82c-10.4,0.89-20.79,2.63-30.98,4.93c-9.65,2.17-18.93,5.94-28.57,8.18
	c-4.94,1.15-10.32,0.95-15.45,0.58c-9.02-0.65-17.99-2.13-27.01-2.85c-12.06-0.96-22.68-5.51-33.04-11.46
	c-12.21-7.02-23.63-15.7-37.47-19.48c-3.81-1.04-7.99-1.2-11.96-0.99c-4.06,0.22-6.94,3.78-6.39,8.36
	c1.1,9.05,2.06,18.25,4.55,26.96c5.09,17.83,11.15,35.38,16.83,53.04c5.24,16.3,8.26,33.03,10.66,49.97
	c2.03,14.33-0.52,27.52-6.08,40.56c-1.89,4.43-2.98,9.24-4.04,13.97c-1.74,7.74,2.63,16.72,10.5,20.39
	c7.78,3.63,15.91,6.55,23.96,9.58c17.58,6.62,28.92,19.24,35.45,36.53c0.59,1.57,0.7,3.32,1.03,4.99"/>
<path class="st1" d="M989.38,1079.86c-10.17-5.17-20.44-10.13-30.45-15.58c-5.26-2.86-10.38-6.18-14.96-10.01
	c-6.67-5.58-8.75-13.3-9.19-21.9c-0.67-13.01,3.74-24.86,7.11-37c3.87-13.99,8.01-27.91,11.41-42.01
	c3.34-13.81,1.57-27.41-3.93-40.46c-7.59-18.03-15.15-36.08-23.05-53.97c-3.73-8.45-9.68-15.4-17.45-20.49
	c-10.79-7.06-21.77-5.09-33.01-0.64c-9.98,3.96-20.09,8.02-30.52,10.31c-8.69,1.9-17.93,1.52-26.94,1.73
	c-10.68,0.25-16.02,3.37-18.85,13.6c-2.53,9.14-4.34,18.56-5.51,27.97c-1.53,12.27-1.87,24.68-3.24,36.97
	c-0.73,6.57-1.89,13.25-4.07,19.45c-2.4,6.8-5.72,7.7-12.82,6.09c-23.33-5.27-36.13-20.72-42-43.02
	c-3.25-12.35-6.32-24.77-10.15-36.95c-1.51-4.81-4.47-9.31-7.43-13.49c-4.18-5.89-12.7-6.47-19.79-2.84
	c-8.17,4.19-16.29,9.21-22.94,15.46c-13.7,12.88-30.03,19.85-47.64,24.9c-5.5,1.58-10.99,3.71-15.96,6.52
	c-10.47,5.93-13.79,16.55-15.98,27.4c-2.18,10.85-6.25,20.7-13.63,28.94c-6.45,7.19-13.22,14.1-19.97,21.02
	c-5.44,5.57-12.12,8.3-19.98,8.03c-2.83-0.09-5.73-0.4-8.49,0.06c-7.38,1.23-12.23,5.27-14.09,12.9
	c-1.41,5.77-3.48,11.39-5.44,17.01c-3.51,10.05-9.74,18.34-16.95,26.03c-7.1,7.57-14.24,15.13-20.92,23.06
	c-2.79,3.31-4.44,7.58-6.6,11.41"/>
<path class="st1" d="M1161.35,1079.86c11.1-12.12,25.91-17.37,41.01-21.94c7.73-2.34,15.58-4.36,23.5-5.97
	c7.08-1.43,14.3-2.25,21.48-3.05c8.98-1,18.04-1.37,26.98-2.62c15.4-2.15,26.04-11.37,33.45-24.45c8.16-14.4,10.61-30.3,8.85-46.44
	c-1.76-16.19-10.56-28.95-23.28-39.03c-9.25-7.33-19.51-11.95-31.5-11.43c-8.68,0.37-17.32,1.59-26,1.88
	c-16.35,0.54-28.23-6.55-35.55-21.4c-4.35-8.82-9.22-17.39-13.95-26.02c-6.25-11.4-14.26-20.73-27.47-24.56
	c-17.78-5.16-34.39-2.58-50.56,5.96c-6.18,3.27-12.75,6.35-19.51,7.78c-4.65,0.98-10.08-0.47-14.9-1.79
	c-12.8-3.51-25.83-5.02-39.02-5.99c-12.11-0.89-23.95-3.56-35.51-7.38c-1.8-0.6-3.64-1.11-5.5-1.5
	c-7.46-1.55-13.11,2.79-12.89,10.48c0.17,6.01,0.81,12.09,1.98,17.98c3.09,15.55,6.16,31.12,10.07,46.47
	c2.52,9.87,6.4,19.41,9.88,29.02c4.04,11.17,3.34,22.5,2.06,34.02c-1.39,12.49,2.05,23.28,12.36,31.55
	c13.68,10.97,27.46,22.03,36.44,37.5c3.95,6.81,6.77,14.27,10.1,21.44"/>
<path class="st0" d="M1649.79,1080.36c-6.29-17.17-15.01-33.16-24.05-48.96c-4.35-7.6-11.66-12.15-18.95-16.51
	c-10.82-6.46-15.73-15.91-16.12-28.51c-0.42-13.88,3.74-26.18,11.19-37.46c8.32-12.58,13.56-26.39,15.69-41.07
	c1.45-10.02,3.25-20.5-1.27-30.45c-1.23-2.71-2.35-5.55-4.03-7.97c-8.72-12.57-17.57-25.07-26.46-37.52
	c-6.61-9.25-14.61-16.93-25.49-20.99c-14.51-5.42-28.98-3.79-42.92,1.67c-7.08,2.78-13.78,6.96-19.99,11.42
	c-11.91,8.55-24.58,15.71-37.57,22.39c-1.19,0.61-2.43,1.2-3.49,2.01c-7.45,5.68-9.33,12.04-1.43,18.88
	c5.75,4.98,12.29,9.05,18.41,13.6c14.56,10.83,20.88,25.48,21.66,43.48c0.98,22.58-6.06,43.06-14.08,63.53
	c-3.59,9.17-6.94,18.5-9.41,28.01c-2.06,7.96-1.14,16.29-0.17,24.45c0.87,7.33,1.81,14.65,2.47,22c0.54,5.98,0.71,11.99,1.04,17.99"
	/>
<path class="st1" d="M329.46,1079.86c9.09-9.63,20.58-13.58,33.48-15.13c12-1.44,24.6-0.62,35.49-7.4
	c3.96-2.46,8.12-4.85,11.44-8.05c9.6-9.29,19.4-18.16,31.03-24.99c17.02-10,11.75-27.81,2.89-37.77c-4.06-4.56-10.4-4.34-16.34-3.18
	c-5.13,1-10.3,2.06-15.5,2.45c-8.23,0.63-15.94-2.08-23.47-4.96c-8.72-3.33-16.73-7.68-23.63-14.34
	c-7.41-7.15-11.65-16.01-15.26-25.16c-5.31-13.48-9.59-27.36-14.7-40.92c-3.05-8.11-6.83-16.21-15-20.37
	c-4.91-2.5-10.51-4.6-15.93-4.96c-22.67-1.48-43.78,3.05-62.03,17.74c-9.82,7.91-21.56,12.16-33.41,16.16
	c-6.69,2.26-13.5,4.82-19.44,8.55c-12.84,8.07-14.96,20.71-10.08,34.34c4.71,13.16,14.14,23.33,22,34.49
	c5.68,8.07,10.22,16.65,13.55,25.98c5.57,15.59,11.95,30.9,17.26,46.58c2.32,6.83,2.83,14.28,4.16,21.44"/>
<path class="st1" d="M1920.26,680.91c-17.16,0.33-34.33,0.52-51.49,1.06c-9.55,0.3-18.02,3.98-24.94,10.51
	c-5.48,5.17-10.79,10.61-15.48,16.49c-12.71,15.92-29.52,25.64-48.06,32.96c-5.56,2.19-11.12,4.41-16.48,7.03
	c-10.09,4.93-14.35,13.62-15.03,24.45c-0.64,10.17-0.83,20.39-2.14,30.48c-1.22,9.48-6.61,16.97-14.38,22.48
	c-7.54,5.34-15.41,10.22-22.95,15.57c-13.75,9.76-22.25,23.2-25.94,39.48c-4.21,18.56,7.07,26.32,24.87,23.67
	c14.56-2.16,28.68-7.13,43.05-10.66c12.13-2.98,24.21-6.48,36.52-8.31c12.49-1.86,23.75,2.48,32.94,11.31
	c6.97,6.69,13.49,13.85,20.58,20.41c7.82,7.24,16.79,12.1,27.94,12.12c8.46,0.01,14.87-4.19,20.43-9.63
	c12.15-11.89,21.19-25.92,27.06-41.93c1.1-2.99,2.17-6,3.25-9"/>
<path class="st0" d="M518.94,1.5c-1.51,20.42,4.73,38.97,13.43,57.03c4.53,9.4,6.63,19.63,7.46,29.97
	c0.56,6.99-3.82,11.43-11.38,13.54c-5.58,1.56-11.41,2.88-16.43,5.59c-11.63,6.3-14.11,19.88-12.87,30.32
	c0.61,5.14,2.94,10.29,5.4,14.97c4.71,8.98,13,9.97,21.89,5.05c10.8-5.97,14.38-16.29,16.51-27.49c0.92-4.85,1.68-9.76,3.07-14.47
	c1.42-4.78,5.46-6.5,10.42-5.56c12.35,2.35,22.62,9.1,32.96,15.58c21.9,13.71,44.96,25,69.58,32.77c8.81,2.78,18.22,4.34,27.45,4.98
	c13.84,0.96,26.04-4.24,35.91-13.88c9.35-9.14,18.11-18.88,27.06-28.43c10.04-10.71,14.17-24.24,17.42-38.01
	c2.85-12.1,7.86-23.09,14.53-33.51c7.25-11.34,14.14-22.91,21.01-34.48c2.59-4.35,4.71-8.97,7.04-13.47"/>
<path class="st1" d="M1456.82,1080.36c0.33-9.5,1.04-19,0.89-28.49c-0.14-8.51-1.55-16.99-1.81-25.5
	c-0.32-10.42,2.09-20.54,4.97-30.48c3.63-12.56,8.1-24.89,11.29-37.55c2.33-9.27,2.54-18.86,0.74-28.47
	c-2.07-11.04-9.03-18.07-18.1-23.44c-10.53-6.23-22.15-9.93-34.01-12.33c-5.92-1.2-12.58-1.4-18.4,0.02
	c-16.69,4.05-31.37,0.79-45.13-9.11c-3.61-2.6-8.14-4.12-12.44-5.53c-5.03-1.65-10.01-0.67-13.91,2.97
	c-4.01,3.75-5.3,8.85-3.44,13.9c2.71,7.33,5.67,14.69,9.51,21.47c5.87,10.36,9.13,21.14,8.91,33.07
	c-0.19,10.66,0.48,21.36-0.15,31.99c-1.25,20.99-3.89,41.88-13.5,60.94c-7.97,15.8-19.43,28.32-37.4,32.99
	c-4.22,1.1-8.85,0.8-12.94,2.2c-7.18,2.46-14.36,0.99-21.54,1.12"/>
<path class="st1" d="M574.93,1080.36c2.17-7,4.32-14,6.5-21c1.45-4.66,5.24-6.61,9.51-7.44c9.63-1.87,19.47-2.79,28.94-5.22
	c11.01-2.82,21.97-6.19,32.48-10.47c24.24-9.88,42.97-27.06,59.57-46.84c3.33-3.97,6.95-7.71,10.48-11.51
	c5.67-6.12,6.93-13.28,4.45-20.99c-5.11-15.9-10.12-31.89-19.48-45.99c-4.1-6.17-8.89-12.06-16.97-12.36
	c-5.13-0.19-10.63,0.32-15.43,2c-12.84,4.51-25.48,9.62-38.03,14.9c-10.65,4.48-16.06,12.83-17.1,24.42
	c-1.22,13.59-6.27,25.02-17.81,33.65c-14.88,11.14-21.26,27.2-23.19,45.34c-0.48,4.55-1.64,9.09-2.99,13.49
	c-1.79,5.83-5.78,8.6-11.93,8.47c-5.84-0.12-11.67-0.58-17.5-0.96c-10.04-0.67-19.2,1.81-27.5,7.51
	c-11.43,7.85-22.07,16.44-27.97,29.51c-0.49,1.09-0.69,2.32-1.02,3.49"/>
<path class="st1" d="M1821.27,1079.87c8.67-11,17.42-21.93,25.96-33.02c5.28-6.85,10.43-14.04,12.39-22.5
	c3.99-17.2-0.54-29.12-16.87-38.95c-7.51-4.52-15.87-5.91-24.48-6.56c-12.32-0.93-24.39-3.12-35.5-8.96
	c-9.09-4.78-18.52-8.11-29-6.97c-4.68,0.51-9.47,0.83-13.97,2.08c-7.85,2.18-14.45-0.96-21-4.17c-9.16-4.49-18.2-8.96-28.51-10.53
	c-14.13-2.15-36.43,3.76-44.57,17.55c-2.98,5.05-4.47,10.27-3.91,16.03c0.7,7.14,6.44,12.32,15.47,13.98
	c12.24,2.25,24.63,2.52,36.99,1.91c7.86-0.39,15.73-1.57,23.49-2.98c7.37-1.34,12.9,1.54,17.44,6.66c2.92,3.3,5.5,7.05,7.5,10.97
	c7.85,15.4,15.47,30.92,23.04,46.47c3.03,6.23,5.7,12.65,8.53,18.98"/>
<path class="st1" d="M298.46,1079.86c9.11-13.52,20.94-23.78,36.54-28.87c8.27-2.7,17.04-3.83,25.43-6.23
	c5.66-1.62,11.26-3.79,16.48-6.49c10.54-5.45,12.33-17.91,8.03-28.4c-3.19-7.78-9.17-13.34-15.5-18.48
	c-12.68-10.29-21.96-22.84-27.02-38.51c-3.58-11.08-7.08-22.24-11.59-32.95c-5.45-12.96-13.92-23.76-28.88-25.88
	c-12.59-1.78-24.87,0.7-35.94,7.37c-4.5,2.71-9.02,5.58-12.96,9.03c-9.11,7.95-19.83,12.6-31.05,16.44
	c-4.04,1.38-8.1,2.78-11.99,4.52c-15.27,6.82-15.6,19.24-8.91,31.4c3.21,5.84,7.38,11.19,11.43,16.53
	c8.64,11.41,13.42,24.44,17.64,37.97c4.19,13.42,10.12,26.28,14.71,39.59c2.63,7.62,4.11,15.63,6.11,23.46"/>
<path class="st1" d="M351.46,2c-0.83,0.83-1.89,1.54-2.46,2.52c-6.07,10.44-15.54,16.44-26.53,20.48c-4.01,1.48-7.98,3.07-12,4.48
	c-9.73,3.42-14.84,10.7-15.31,20.52c-0.43,8.98-0.71,17.98,1.63,27.04c3.07,11.92,10.37,19.89,21.26,23.73
	c14.7,5.19,29.95,8.79,44.91,13.24c12.44,3.7,24.77,7.74,36,14.48c9.8,5.88,12.6,15.57,14,25.99c1.01,7.5,1.61,15.08,3.09,22.48
	c2.71,13.52,10.77,13.64,20.35,11.29c10.35-2.54,16.97-10.32,20.51-20.28c5.19-14.61,6.87-29.28-2.57-42.9
	c-3.46-4.99-8-9.31-12.43-13.53c-13.59-12.95-13.24-34.11-0.34-47.43c7.37-7.61,15.51-14.6,23.98-20.98
	c10.25-7.72,15.41-17.91,17.36-30.13c0.6-3.79,0.71-7.66,1.04-11.49"/>
<path class="st0" d="M2,666.42c4.67,4.33,9.73,8.32,13.91,13.07c8.22,9.33,11.15,21.05,12.97,32.94c1.24,8.08,1.96,16.31,2,24.48
	c0.07,14.5-0.97,29-0.78,43.49c0.22,16.12,3.01,31.84,11.44,45.97c4.38,7.34,9.42,14.27,13.92,21.55
	c7.78,12.59,15.17,25.43,23.09,37.94c6.16,9.72,8,20.35,8.48,31.53c0.62,14.57,7.47,25.48,19.94,33.02
	c11.4,6.89,22.94,13.59,33.94,21.07c14.07,9.56,27.45,20.23,36.44,34.97c10.02,16.42,16.64,34.33,19.55,53.43
	c1.04,6.78,1.39,13.66,2.06,20.49"/>
<path class="st0" d="M565.43,2c-5.88,5.57-8.29,12.82-9.45,20.51c-1.55,10.33,2.5,19.53,7.59,27.9
	c9.08,14.97,19.39,29.18,31.91,41.53c12.08,11.92,26.42,20.43,42.45,26.04c10.15,3.55,20.16,7.65,30.53,10.36
	c15.62,4.08,29,0.12,38.98-13.33c8.36-11.27,17.34-22.09,25.35-33.6c6.14-8.82,8.14-19.4,8.99-29.92
	c0.83-10.25-4.83-15.5-16.37-15.38c-7.67,0.08-15.47,0.53-22.97,2.05c-12.24,2.47-23.35-0.83-33.96-5.79
	c-14.09-6.59-26.79-15.45-37.59-26.83c-1.29-1.36-2.97-2.36-4.47-3.53"/>
<path class="st1" d="M541.93,1.5c-6.59,15.66-4.7,30.74,2.98,45.5c9.09,17.48,18.5,34.73,33.03,48.47
	c15.61,14.76,32.94,26.91,52.97,35.04c9.75,3.96,19.22,8.62,29.04,12.38c11.77,4.5,24,7.31,36.42,2.95
	c5.78-2.03,11.95-4.54,16.36-8.56c10.45-9.53,20.73-19.36,28.72-31.27c5.81-8.65,9.82-17.93,12.55-28
	c4.49-16.51,12.31-31.58,21.37-46.04c5.56-8.86,10.23-18.16,12.57-28.47c0.13-0.58,0.95-1.01,1.45-1.51"/>
<path class="st1" d="M1439.82,1080.36c1.33-8.33,3.05-16.63,3.87-25.01c0.63-6.44,0.2-12.99,0.11-19.48
	c-0.28-19.86,2.26-39.31,7.39-58.53c1.95-7.29,3.21-14.94,3.47-22.47c0.53-15.19-8.77-26.38-23.84-29.99
	c-11.9-2.85-23.28-0.63-33.94,4.61c-11.05,5.42-21.03,12.46-27.55,23.39c-5.33,8.95-7.82,18.88-9.45,29
	c-2.54,15.8-5.03,31.62-6.96,47.5c-1.5,12.41-3.79,24.6-7.64,36.47c-1.59,4.91-3.63,9.68-5.46,14.51"/>
<path class="st1" d="M191.98,1.5c-2.55,12.01-6.09,23.65-13,34c-7.65,11.46-18.08,16.4-34.03,13.72
	c-13.84-2.33-26.17-8.27-38.95-13.23c-7.59-2.94-15.23-4.99-23.51-3.51c-10.32,1.84-15.84,8.5-18.46,18.04
	c-3.36,12.18-2.22,24.36,0.48,36.49C66.96,98,69.76,108.93,71.93,120c3.12,15.92,1.24,30.9-9.4,44.01
	c-4.05,4.99-7.91,10.16-11.49,15.5c-6.48,9.67-15.86,10.72-26.03,8.89c-7.91-1.43-15.68-3.59-23.51-5.42"/>
<path class="st1" d="M844.39,1079.86c-3-4.67-6.11-9.27-8.98-14.01c-5.87-9.71-6.75-20.03-4.11-31c1.98-8.22,1.97-16.43-3.93-23.46
	c-1.21-1.44-2.52-2.85-4-3.99c-7.98-6.08-13.76-4.35-16.98,4.97c-0.98,2.84-1.69,5.82-3.06,8.47c-3.74,7.25-10.47,10.11-18.41,7.43
	c-4.85-1.64-9.54-3.93-13.99-6.47c-7.47-4.25-14.52-9.27-22.08-13.34c-8.2-4.41-16.76-3.28-24.92,0.47
	c-4.66,2.14-9.38,4.46-13.47,7.51c-21.66,16.15-45.81,27.29-71.04,36.45c-8.08,2.93-16.16,5.98-23.97,9.55
	c-8.11,3.7-14.71,9.4-19.04,17.41"/>
<path class="st1" d="M167.98,1.5c-1.32,7.13-4.46,13.55-9.09,18.92c-7.33,8.51-17.17,10.03-27.36,6.92
	c-7.74-2.36-15.16-5.93-22.52-9.39c-12.24-5.77-25.03-8.39-38.52-7.96C59.51,10.33,52.74,16.08,51.02,27
	c-2.14,13.61-3.04,27.24-1.08,41c1.91,13.46,3.88,26.95,4.87,40.5c0.58,7.97,1.94,16.46-2.37,23.95
	c-6.95,12.07-21.06,17.83-35.94,12.05c-4.96-1.93-9.99-3.68-14.99-5.51"/>
<path class="st1" d="M1105.86,1.5c-0.86,21.53,10.01,36.6,27.61,46.8c14,8.12,29.64,12.12,45.88,13.77
	c12.37,1.26,24.65,3.45,37.01,4.85c8.96,1.01,18.01,2.09,26.98,1.88c9.84-0.23,19.49-2.1,28.55-6.71
	c9.48-4.83,13.96-12.73,15.94-22.6c2.52-12.54,3.18-25.24,3-37.99"/>
<path class="st0" d="M368.95,1.5c-4.11,15.52-13.65,26.69-27.47,34.54c-4.82,2.73-9.36,5.94-14.02,8.96
	c-14.25,9.23-14.21,25.76,0.51,35.98c9.35,6.49,20.01,9.88,31.01,11.88c7.38,1.34,14.96,1.73,22.48,2.06
	c8.78,0.38,15.9-3.19,20.97-10.44c2.14-3.07,4.16-6.24,6-9.5c7.25-12.87,18.01-22.61,29.08-31.91
	c13.21-11.09,24.59-23.26,28.97-40.56c0.06-0.24,0.63-0.34,0.97-0.51"/>
<path class="st1" d="M2,446.44c5.5,3.33,10.86,6.92,16.53,9.94c8.55,4.56,17.38,8.58,25.94,13.1c9,4.75,15.47,12.48,21.94,20.02
	c4.72,5.5,8.89,11.49,13.03,17.46c4.66,6.71,6.08,14.47,6.55,22.47c1.27,21.87-3.81,42.61-10.99,63c-3.61,10.24-12,18.41-25,17.43
	c-6.19-0.47-12.38-1.35-18.49-2.49c-9.93-1.86-19.82-3.92-30.01-3.44"/>
<path class="st1" d="M182.98,1080.36c3.09-19.09,0.41-37.4-7.5-54.99c-10.63-23.63-29.64-37.53-53.52-45.41
	c-11.51-3.8-23.15-7.52-35.02-9.82c-8.64-1.68-17.58-0.3-25.46,4.73c-10.32,6.59-20.82,13.03-33.01,15.4
	c-8.89,1.73-17.98,2.44-26.98,3.61"/>
<path class="st1" d="M1619.8,1080.36c-2.61-11.17-7.62-21.14-16.6-28.37c-5.62-4.52-11.91-8.49-18.46-11.48
	c-13.74-6.26-22.01-16.84-26.96-30.63c-1.33-3.73-2.77-7.44-4.51-10.99c-4.76-9.69-13.57-13.91-23.47-14.85
	c-17.85-1.69-26.63,5.21-34.62,23.27c-7.18,16.22-3.66,30.75,4.65,45.05c5.04,8.67,9.08,17.6,7.99,28"/>
<path class="st1" d="M1.5,219.97c12.56,3.77,20.15,12.58,24.47,24.51c7.97,22.01,16.52,43.77,27.56,64.46
	c3.72,6.98,8.63,13.39,11.81,20.59c5.78,13.1,7.54,26.51,0.21,39.97c-3.9,7.16-10.02,11.93-16.04,16.99
	c-12.75,10.73-25.4,21.58-37.99,32.5c-3.37,2.93-6.36,6.3-9.53,9.46"/>
<path class="st1" d="M163.98,1080.36c3.46-9.36,5.7-18.91,5.01-29c-1.58-23.03-16.32-47.26-44.53-52.35
	c-10.21-1.84-20.72-1.8-28.93,6.4c-3.59,3.58-6.74,7.6-10.03,11.46c-6.91,8.11-13.8,8.25-23.54,4.07
	c-7.5-3.22-15.11-6.67-23.02-8.29c-6.72-1.38-13.96-0.6-20.93-0.18c-5.53,0.33-11,1.57-16.5,2.4"/>
<path class="st1" d="M812.4,1079.86c-8.11-12.37-19.54-20.96-31.97-28.54c-8.64-5.27-17.08-10.88-25.51-16.48
	c-8.06-5.35-16.6-9.51-26.49-7.83c-5.97,1.01-12.11,2.7-17.45,5.49c-21.23,11.09-43.28,20.22-65.57,28.85
	c-11.38,4.41-22.18,9.79-30.99,18.5"/>
<path class="st1" d="M1125.86,1.5c0.44,20.4,8.76,30.67,27.57,37.28c9.23,3.24,19.19,4.63,28.94,6.11
	c13.6,2.07,27.28,3.82,40.99,4.94c7.09,0.58,14.42,0.14,21.46-0.98c12.65-2.02,17.74-11.71,19.86-22.89
	c1.51-8.01,1.5-16.3,2.16-24.47"/>
<path class="st1" d="M1.5,580.93c15.7-1.71,31.51-3.3,45.46-11.56c11.89-7.05,19.5-17.07,21.16-31.42
	c1.46-12.56-3.13-22.54-10.56-32.06c-10.22-13.1-22.52-22.96-39.08-26.35c-5.54-1.13-11.31-1.1-16.98-1.6"/>
<path class="st1" d="M1749.78,1080.36c-4.63-19.03-12.14-36.56-26.5-50.49c-6.96-6.75-15.49-9.74-25-9.96
	c-8.65-0.2-17.22-0.32-25.55,3.34c-9.39,4.13-11.36,13.38-7.69,21.49c4.01,8.86,10.01,16.82,15.26,25.1
	c2.18,3.43,4.64,6.68,6.97,10.02"/>
<path class="st1" d="M785.4,1079.86c-7.46-10.53-17.88-17.65-28.52-24.47c-4.21-2.69-8.52-5.28-13-7.48
	c-12.44-6.12-24.81-3.52-36.96,0.99c-15.72,5.84-31.34,11.96-47.01,17.96c-8.79,3.37-17.56,6.75-24.54,13.45
	c-0.31,0.29-1.29-0.12-1.95-0.2"/>
<path class="st1" d="M956.38,2c0.67,0.67,1.57,1.22,1.97,2.02c9.76,19.59,25.93,33.07,43.61,44.86c8.41,5.61,18.45,7.82,28.42,7.94
	c13.72,0.16,24.49-5.94,32.06-17.78c7.4-11.58,9.17-24.23,8.44-37.54"/>
<path class="st1" d="M1.5,967.88c14.05-0.24,25.32-5.75,34.06-16.95c8.26-10.58,15.22-21.8,17.81-35.07
	c1.57-8.04,2.31-16.64-5.48-22.33c-3.21-2.35-7.47-4.04-11.41-4.47c-11.97-1.3-23.57,1.33-34.98,4.83"/>
<path class="st1" d="M140.48,1079.86c2.67-8.17,5.99-16.19,7.84-24.53c2.72-12.24-2.44-24.3-13.36-30.93
	c-5.53-3.35-14.3-1.45-19.98,3.96c-7,6.67-13.67,13.73-21.1,19.87c-5.45,4.5-11.87,7.83-17.89,11.62
	c-8.38,5.27-10.87,9.32-7.49,20.01"/>
<path class="st1" d="M1.5,13c7.19,2.4,14.5,4.46,20.51,9.48c9.09,7.58,12.59,17.99,13.82,29.03c1.37,12.25,1.93,24.64,1.96,36.98
	c0.01,5.5-1.25,11.4-3.51,16.4c-3.27,7.24-10.13,10.76-17.8,12.01c-4.92,0.8-9.98,0.75-14.98,1.09"/>
<path class="st1" d="M386.95,1.5c-1,5.83-1.92,11.68-3.02,17.49c-1.42,7.51-2.98,15-4.47,22.5c-0.06,0.32,0.06,0.68-0.02,1
	c-2.02,8.64-0.2,10.63,7.99,7.95c15.78-5.17,30.82-11.99,43.45-23.02c7.91-6.9,12.78-15.99,16.06-25.93"/>
<path class="st1" d="M1142.36,2c0.5,0.67,1.3,1.27,1.46,2.01c2.29,10.71,9.25,17.33,19.07,20.9c11.08,4.03,22.64,6.12,34.46,6.03
	c8.67-0.07,17.39-0.08,25.98-1.06c16.04-1.83,19.72-12.38,22.49-22.89c0.47-1.8,0.69-3.66,1.02-5.49"/>
<path class="st1" d="M1.5,559.93c15.11-1.45,28.98-5.68,39.5-17.5c7.71-8.67,6.38-19.77,0.4-28.43
	c-7.45-10.78-18.31-15.83-31.39-16.06c-2.83-0.05-5.67-0.01-8.5-0.01"/>
<path class="st1" d="M2,749.41c2.33,6.5,5.05,12.89,6.91,19.52c3.34,11.89,4.25,24.15,4.04,36.47c-0.11,6.5-0.45,13.01-1.01,19.49
	c-0.61,7.11-4.26,12.43-10.45,16"/>
<path class="st1" d="M750.41,1079.86c-6.89-4.9-14.05-9.81-22.52-10.8c-8.06-0.94-16.51-1.33-24.43,0.06
	c-12.5,2.19-24.71,6.06-37.04,9.26c-1.7,0.44-3.34,1.15-5,1.73"/>
<path class="st1" d="M979.38,2c3,3,6.06,5.94,8.99,9.01c9.76,10.24,21.89,16.13,35.53,18.87c4.89,0.98,15.85-1.89,19.4-9.91
	c2.21-5,3.71-10.31,5.59-15.46c0.33-0.9,0.98-1.68,1.48-2.51"/>
<path class="st1" d="M2,393.45c8.5-7,17.15-13.83,25.43-21.07c3.88-3.39,7.63-7.22,10.41-11.52c3.2-4.95,0.48-10.84-5.38-11.73
	c-4.54-0.69-9.36-0.2-13.96,0.42c-5.72,0.78-11.34,2.24-17.01,3.41"/>
<path class="st1" d="M2,236.47c2.83,3.17,5.84,6.2,8.47,9.52c7.28,9.2,9.49,20.27,11.65,31.45c1.07,5.52,0.88,10.81-0.69,16
	c-2.46,8.18-8,13.95-15.41,18.05c-1.44,0.8-2.68,1.97-4.02,2.97"/>
<path class="st1" d="M2,32.5c3.83,2.83,7.83,5.48,11.47,8.54c7.39,6.21,9.61,14.97,10.38,23.97c0.48,5.6,0.31,11.52-1.02,16.94
	C20.14,92.83,12.42,98.9,1.5,100.99"/>
<path class="st1" d="M1920.26,1003.87c-7.34,4.14-10.99,11.48-13.79,18.58c-7.69,19.55-15.58,38.99-24.71,57.91"/>
<path class="st1" d="M661.42,2c6.34,3.34,11.96,8.52,19.5,8.92c7.31,0.39,14.88,1.19,21.94-0.18C712.9,8.78,722.58,5,732.41,2"/>
<path class="st1" d="M1168.35,2c8.39,6.5,17.81,10.18,28.5,9.96c8.84-0.18,17.24-1.82,23.53-8.94c0.46-0.52,1.31-0.69,1.97-1.02"/>
<path class="st1" d="M1920.01,928.38c-1.42,3.83-3.04,7.61-4.21,11.51c-2.14,7.13-2.11,13.96,3.96,19.48"/>
<path class="st1" d="M159.48,192.98c-11.17,2.67-22.29,5.5-33.51,7.95c-11.62,2.54-23.43,4.29-34.94,7.22
	c-5.92,1.51-11.95,4.01-16.92,7.49c-10.36,7.27-11.38,20.26-7.1,31.32c3.08,7.94,8.7,14.09,15.03,19.44
	c14.69,12.42,27.49,26.26,35.45,44.05c1.95,4.36,4.05,8.64,5.98,13.01c4.51,10.16,10.41,16.21,20.49,15.33
	c4.42-0.39,9.12-1.75,12.94-3.97c18.16-10.54,36.1-21.49,54.06-32.39c10.27-6.23,14.53-16.25,15.89-27.49
	c1.22-10.1,2.09-20.33,1.94-30.48c-0.15-10.11-1.42-20.34-6.37-29.47c-6.32-11.65-17.32-16.71-29.44-20.04
	c-10.88-2.99-21.98-1.7-33-1.98"/>
<path class="st0" d="M1213.35,196.98c-8.03,1.79-12.75,7.46-17.07,13.95c-5.11,7.7-9.61,16.28-18.01,20.9
	c-7.29,4.01-15.19,6.98-22.93,10.1c-12.75,5.14-24.9,11.35-35.97,19.54c-11.61,8.59-17.01,20.84-19.39,34.51
	c-1.31,7.55-1.97,15.31-2.01,22.98c-0.09,16.3,2.93,32.24,6.92,47.99c2.74,10.85,4.92,21.7,5.15,33c0.15,6.92-0.04,13.7-1.16,20.5
	c-1.54,9.34-7.21,14.55-15.98,17.59c-12.8,4.45-25.86,8.58-37.92,14.63c-18.73,9.38-37.14,19.6-53.57,32.82
	c-9.69,7.8-17.79,16.97-24.16,27.88c-8.83,15.13-18.51,29.75-27.88,44.56c-5.72,9.05-9.85,18.84-10.35,29.51
	c-0.82,17.53,7.7,30.22,26.87,33.38c8.06,1.33,16.3,1.74,24.48,2.04c15.16,0.56,30.34,0.49,45.49,1.18
	c6.03,0.28,12.11,1.48,17.98,2.99c6.36,1.64,7.54,4.49,6.05,10.89c-4.22,18.09-16.25,28.31-33.53,32.94
	c-16.08,4.31-32.39,4.57-49,3.27c-15.21-1.18-29.6-5.9-44.51-8.02c-9.03-1.28-16.87,0.52-19.83,8.85
	c-1.19,3.36-1.71,7.47-0.99,10.92c4.37,21.22,8.81,42.45,13.99,63.49c3.2,13,11.12,22.95,23.36,29.02
	c17.03,8.44,31.67,20.33,46.52,31.96c10.23,8.01,20.6,15.91,32.96,20.54c7.74,2.9,15.71,4.66,23.99,5.03
	c3.17,0.14,6.33,0.73,9.5,0.95c14.81,1.02,29.1-2.09,42.95-6.61c20.6-6.73,41.68-8.49,63.03-7.23c15.16,0.89,29.51,5.5,41.94,14.45
	c12.93,9.31,18.55,2.25,22.36-8.65c4.06-11.61,3.76-23.8,1.3-35.95c-0.95-4.71-0.79-9.64-1.1-14.48
	c-0.68-10.83-0.78-21.73-2.16-32.48c-1.37-10.71-7.72-18.22-17.26-23.66c-9.49-5.41-19.93-7.71-30.11-10.73
	c-14.68-4.36-28.33-10.84-39.25-21.33c-9.16-8.8-16.72-19.3-24.63-29.34c-5.03-6.38-9.13-13.49-14.14-19.89
	c-5.29-6.77-12.51-11.37-19.94-15.53c-7.41-4.15-9.15-8.16-6.48-16.02c4.68-13.79,12.72-25.29,23.99-34.49
	c7.62-6.22,15.51-12.13,22.94-18.57c7.62-6.6,13.8-14.44,18.59-23.41c6.99-13.09,14.44-25.94,21.34-39.08
	c1.73-3.28,2.2-7.25,3.09-10.95c2.4-9.93,6.15-19.3,11.53-27.99c8.34-13.46,12.77-28.46,16.93-43.52c3.29-11.92,6.36-23.92,8.96-36
	c1.91-8.89,1.25-17.97,0.11-26.98c-0.85-6.66-1.86-13.31-2.45-20c-0.58-6.64-1.45-13.39-0.9-19.98c0.98-11.7,1.42-23.57,8.21-34.09
	c3.59-5.57,8.59-9.09,13.58-12.98c5.58-4.35,11.47-8.65,15.89-14.06c8.18-10.03,8.38-21.84,3.53-33.31
	c-5.16-12.21-15.54-16.96-28.37-17.05c-0.67,0-1.33,0-2,0"/>
<path class="st1" d="M505.44,197.98c-23.79,6.52-44.35,19.5-64.35,33.2c-8.56,5.86-15.81,13.55-18.32,24.75
	c-1.76,7.84,0.44,14.3,4.25,20.5c5.74,9.33,12.26,18.18,17.84,27.59c6.69,11.27,2.76,21.61-6.9,27.47
	c-8.06,4.89-16.32,9.55-23.94,15.07c-12.93,9.35-18.19,22.81-19.11,38.4c-0.76,12.96,2.58,24.27,12.6,32.94
	c3.33,2.89,7,5.72,10.99,7.45c17.67,7.65,33.62,17.88,48.51,30.03c7.98,6.51,16.91,11.69,26.94,14.56
	c8.87,2.54,17.02,0.37,24.46-4.53c9.18-6.04,15.84-14.54,22.03-23.45c9.64-13.85,19.46-27.57,28.91-41.56
	c3.02-4.48,5.53-9.44,7.48-14.48c2.96-7.66-0.49-14.83-2.91-21.95c-2.44-7.19-5.54-14.2-7.33-21.54
	c-1.95-7.98-1.69-16.13-0.91-24.48c1.53-16.25,6.42-31.67,9.77-47.47c2.08-9.81,2.73-19.79,0.35-29.46
	c-3.72-15.12-13.79-24.89-28.36-30.01c-10.29-3.62-20.63-7.1-31-10.48c-3.41-1.11-6.98-1.71-10.48-2.54"/>
<path class="st1" d="M161.48,204.97c-12.69,2.19-23.29,8.83-34.07,15.38c-7.62,4.63-15.68,8.76-23.99,11.94
	c-8.59,3.29-8.54,9.69-3.96,15.69c8.59,11.26,16.84,22.79,25.61,33.91c3.63,4.59,8.01,8.67,12.46,12.51
	c8.33,7.18,18.06,7.75,28.46,5.63c15.06-3.07,27.85-10.1,38.46-21.08c15.1-15.62,15.89-48.01-0.97-61.99
	c-9.02-7.49-19.36-11.43-31.01-11.96c-3.49-0.16-7-0.02-10.5-0.02"/>
<path class="st1" d="M165.48,218.97c-13.25,3.12-22.26,11.2-26.4,24.03c-4.52,13.98,3.09,28.64,16.42,33.93
	c18.53,7.35,41.29-5.3,44.91-22.98c2.7-13.18-0.95-25.33-17.88-32.58c-5.44-2.33-10.9-2.48-16.54-2.4"/>
<path class="st1" d="M493.44,223.97c-5.83,1.33-11.78,2.31-17.47,4.07c-11.79,3.65-22.5,9.27-29.45,19.97
	c-5.1,7.86-5.14,16.64-1.4,24.88c3.03,6.69,7.33,12.85,11.38,19.04c4.43,6.75,9.04,13.19,10.59,21.5
	c1.67,8.92-2.01,15.67-7.19,21.98c-5.9,7.19-14.21,11.25-21.94,16.05c-8.29,5.15-16.08,10.34-20.73,19.88
	c-7.04,14.45-2.2,31.21,9.25,39.06c17.23,11.82,34.31,23.89,52.08,34.86c12.33,7.61,24.96,6.74,35.94-4.26
	c13.33-13.36,22.17-29.89,32.95-45.04c8.53-11.98,7.47-25.08,5.03-38.51c-2.11-11.62-2.4-23.35-0.02-34.98
	c3.04-14.86,6.79-29.59,9.3-44.53c1.78-10.59,2.06-21.54-3.4-31.43c-4.92-8.9-12.78-14.43-22.42-17.55
	c-13.68-4.43-27.76-5.36-42-4.98"/>
<path class="st1" d="M323.46,227.97c-18.6,4.03-23.92,18.61-24.39,34c-0.28,9.15,0.68,18.33,0.85,27.49
	c0.14,7.57-2.3,11.21-9.48,13.44c-11.43,3.55-23.01,6.63-34.47,10.09c-8.02,2.42-14.14,8.83-14.97,17.97
	c-0.64,7.03,3.17,13.99,13.47,17.47c10.26,3.47,20.68,4.47,31.51,2.68c5.27-0.87,10.37-1.41,14.47-5.16
	c4.39-4.02,6.49-8.98,6.56-14.99c0.07-5.67,0.42-11.35,0.99-16.99c0.65-6.4,4.8-9.92,10.4-12.6c7.26-3.48,14.11-7.68,19.57-13.88
	c6.97-7.91,10.78-16.99,10.94-27.52c0.09-6.11,0.56-12.26-2.45-18.01c-4.78-9.14-12.05-14.1-22.52-13.98"/>
<path class="st1" d="M676.42,230.97c-10.07,1.19-15.47,7.63-19.04,16.48c-6.98,17.29-20.05,29.34-34.35,40.65
	c-12.16,9.62-16.21,23.25-8.91,37.76c3.89,7.72,9.62,14.56,14.85,21.56c5.96,7.98,12.68,15.43,18.34,23.61
	c5.18,7.49,7.32,16.54,7.38,25.42c0.07,11.14-4.31,20.83-14.79,26.45c-6.37,3.41-12.95,6.43-19.48,9.53
	c-12.75,6.06-22.22,15.54-27.37,28.56c-6.92,17.48-15.18,34.19-24.42,50.56c-4.99,8.84-7.63,18.83-4.73,29.39
	c2.18,7.95,6.6,14.67,12.15,20.37c5.85,6.01,13.24,5.37,20.83-0.93c3.25-2.7,6.51-5.61,8.95-9.01c7.7-10.74,18.76-15.24,31.09-17.4
	c21.47-3.75,42.53-8.69,62-19c11.05-5.85,22.76-8.63,35.48-8.21c10.87,0.36,20.79-4.23,29.36-10.5c6.8-4.97,13.71-10.65,18.34-17.51
	c7.58-11.22,5.47-21.5-5.14-30.4c-12.15-10.2-25.56-11.19-40.08-7.41c-2.82,0.73-5.64,1.74-8.5,1.93c-6.38,0.42-9.97-3.02-10.5-9.42
	c-0.57-6.87,1.65-12.78,6.55-17.46c7.85-7.49,16.24-14.42,23.89-22.11c11.59-11.65,19.68-25.71,25.44-40.98
	c2.72-7.23,5.04-14.85,5.89-22.48c1.07-9.61-2.47-18.48-9.34-25.4c-6.14-6.18-12.7-12.02-19.47-17.51
	c-12.16-9.85-22.24-21.48-31.51-34.01c-9.02-12.2-22.07-18.11-36.43-21.53c-1.97-0.47-4-0.69-5.99-1.02"/>
<path class="st1" d="M1202.75,478.97c-10.36,3.32-11.76,13.53-11.67,22.43c0.12,11.53,2.93,22.99,9.1,32.99
	c7.16,11.61,17.48,14.98,29.19,13.13c11.25-1.78,21.91-6.2,31.02-13.98c3.25-2.78,6.13-6.54,8.21-10.48
	c4.12-7.81,3.01-14.93-3.79-19.37c-7.37-4.81-15.42-8.46-23.39-12.03c-9.17-4.1-18.51-7.76-27.91-11.19
	c-3.18-1.16-6.73-1.04-10.11-1.51"/>
<path class="st1" d="M893.39,232.97c-11.07,1.62-19.52,7.38-23.8,17.58c-2.89,6.89-4.58,14.49-5.55,21.93
	c-1.99,15.24-6.55,29.42-14.64,42.48c-10.42,16.81-16.95,35.22-20.3,54.53c-2.46,14.18,2.49,26.76,12.82,36.94
	c6.21,6.12,12.98,11.71,18.88,18.11c6.13,6.64,12.21,13.45,14.16,22.9c2.11,10.24,1.02,20.03-3.1,29.49
	c-3.31,7.58-7.65,14.78-10.31,22.57c-4.79,14.05-6.31,28.17,1.74,42.01c3.77,6.49,8.56,11.55,15.13,14.9
	c6.93,3.53,13.53,1.7,18.91-3.04c14.98-13.22,29.24-27.29,38.89-45.01c4.22-7.76,6.6-16.54,9.66-24.91
	c6.2-16.96,16.64-31.12,29.05-43.96c3.74-3.87,8.5-5.61,13.97-5.55c12.5,0.12,25.18-0.2,36.4-6.16
	c9.96-5.29,19.19-12.01,28.54-18.39c3.48-2.37,6.5-5.48,9.53-8.45c8.6-8.43,11.39-18.44,9.68-30.5
	c-2.39-16.89-5.88-33.47-11.75-49.44c-5.43-14.77-13.29-28.1-26.43-37.5c-11.28-8.07-24.07-9.4-37.48-8.06
	c-20.08,2.01-39.25,1.17-55.13-14.32c-8.7-8.49-17.23-17.5-28.36-23.13c-6.27-3.17-12.9-5.07-19.99-5.01"/>
<path class="st1" d="M497.44,241.97c-5,0.67-10.09,0.97-14.97,2.11c-3.97,0.93-7.85,2.57-11.49,4.44
	c-9.44,4.85-11.69,16.35-6.92,25.38c3.94,7.46,8.91,14.38,13.38,21.56c4.01,6.45,6.91,13.4,7.43,21
	c0.69,10.08-3.7,18.53-10.52,25.39c-7.06,7.1-14.94,13.39-22.38,20.11c-3.59,3.24-7.39,6.34-10.44,10.05
	c-6.31,7.67-6.1,17.78-1.08,23.93c10.49,12.87,23.11,23.11,38,30.48c10.69,5.3,20.31,2.51,27.83-5.63
	c6.75-7.3,12.29-15.75,18.11-23.88c4.4-6.15,7.49-13.06,8.95-20.48c1-5.07,1.83-10.37,1.46-15.47c-1.43-19.93,3.52-38.69,8.96-57.55
	c2.66-9.21,4.69-18.92,4.92-28.45c0.43-17.91-8.39-28.08-26.26-30.89c-8.07-1.27-16.32-1.44-24.48-2.1"/>
<path class="st1" d="M646.42,446.94c-4.83,1.33-9.65,2.74-14.5,3.99c-13.82,3.55-20.04,19.42-17.45,31.5
	c1.08,5.05,2.21,10.16,4.04,14.98c5.17,13.66,19.93,21.56,34.41,18.48c8.83-1.88,17.27-4.78,23.52-11.94
	c4.15-4.75,6.29-10.18,6.52-16.51c0.34-9.02-1.07-17.68-4.54-26c-4.22-10.1-10.93-14.5-21.99-14.5c-3.17,0-6.33,0-9.5,0"/>
<path class="st1" d="M380.45,455.94c-7.67,2.33-15.68,3.9-22.93,7.15c-16.43,7.38-29.98,18.42-39.06,34.34
	c-6.77,11.86-6.47,23.89,1.12,34.91c13.61,19.77,24.88,40.8,36.13,61.94c5.03,9.45,11.91,18.3,19.45,25.93
	c10.42,10.54,23.89,11.88,37.77,7.62c5.48-1.68,10.71-4.21,16.02-6.43c5.1-2.13,6.87-6.63,6.4-11.48
	c-2.38-24.77,7.33-44.87,23.63-62.48c4.32-4.67,9.26-8.77,13.41-13.58c7.53-8.72,9.79-12.63,1.48-23.38
	c-8.1-10.47-16.64-20.64-25.48-30.51c-12.98-14.49-30.27-20.44-48.94-22.98c-6.1-0.83-12.32-0.74-18.49-1.08"/>
<path class="st1" d="M1084.36,456.94c-8.33,2.33-16.93,3.99-24.95,7.13c-21.04,8.23-40.83,18.95-57.43,34.49
	c-8.23,7.7-14.08,17.47-19.7,27.32c-7.63,13.37-16.25,26.19-23.75,39.63c-3.4,6.1-5.72,13.18-4.55,20.39
	c1.64,10.14,8.59,16.52,17.95,18.78c11.87,2.86,24.04,4.49,36.46,2.35c7.72-1.33,15.68-1.17,23.47-2.19
	c11.53-1.5,22.04-5.7,30.46-13.97c5.88-5.78,11.28-12.05,17.07-17.92c3.64-3.69,7.73-6.93,11.44-10.55
	c13.81-13.49,26.47-27.95,32.87-46.52c3.53-10.23,5.92-20.93,3.14-31.95c-3.44-13.63-13.02-23.78-28-25.95
	c-4.62-0.67-9.32-0.72-13.99-1.05"/>
<path class="st1" d="M379.45,472.94c-6.17,1.67-12.45,2.99-18.47,5.07c-11.19,3.87-19.93,11.12-26.51,20.93
	c-6.76,10.09-6.28,20.95-0.83,30.89c9.89,18.07,18.19,37.09,30.81,53.6c4.06,5.31,8.91,9.77,15.03,12.43
	c10.83,4.71,20.36,2.19,27.85-7.54c4.99-6.49,8.99-13.79,13.07-20.93c5.37-9.38,10.47-18.92,15.51-28.49
	c3.29-6.24,5.98-12.81,5.98-19.98c0-16.68-7.93-28.5-22.4-36.57c-12.38-6.9-25.58-9.55-39.54-9.43"/>
<path class="st1" d="M1077.37,473.94c-11.2,2.12-21.91,5.74-32.54,9.89c-21.74,8.49-38.47,22.31-49.52,43.06
	c-6.14,11.53-13.15,22.58-19.31,34.1c-2.1,3.92-3.57,8.53-3.95,12.95c-0.7,8.03,2.75,12.35,10.32,15.51
	c7.46,3.12,15.33,3.06,22.99,2.29c8.58-0.87,17.16-2.64,25.48-4.94c12.26-3.39,22.51-10.55,32.06-18.84
	c11.93-10.35,23.54-20.97,31.96-34.54c7.11-11.47,11.94-23.55,11.1-37.5c-0.53-8.77-5.1-16.48-13.64-19.36
	c-4.59-1.55-9.62-1.79-14.46-2.63"/>
<path class="st1" d="M915.89,446.44c-5.1,3.97-4.34,10.24-5.88,15.53c-1.56,5.34-2.2,10.95-3.09,16.47c-0.51,3.14-0.8,6.32-0.97,9.5
	c-0.05,0.98,0.61,2,0.94,3c1-0.5,2.55-0.75,2.91-1.54c2.34-5.09,4.98-10.14,6.45-15.49c2-7.28,4.46-14.69,2.58-22.45
	c-0.43-1.76-1.61-3.35-2.44-5.01"/>
<path class="st1" d="M377.45,488.94c-3.5,1-7.08,1.77-10.48,3.04c-11.41,4.26-19.48,11.7-20.33,24.47
	c-0.31,4.59,0.78,9.59,2.45,13.94c4.82,12.59,10.63,24.7,18.82,35.58c8.33,11.07,22.91,12.69,31.49,1.93
	c11.31-14.2,19.5-29.94,20.44-48.46c0.44-8.62-3.39-15.65-10.36-21.03c-9.35-7.21-19.97-9.8-31.53-9.46"/>
<path class="st1" d="M1060.37,495.94c-6.67,1.83-13.55,3.11-19.95,5.62c-12.6,4.92-21.66,14.01-26.94,26.42
	c-2.73,6.42-4.58,13.25-6.53,19.98c-0.78,2.7-1.03,5.65-1,8.48c0.04,4.01,2.43,6.45,6.43,6.43c4.67-0.03,9.43-0.1,13.98-1.01
	c22.62-4.5,41.04-15.23,51.98-36.43c3.05-5.92,4.12-12.32,3.54-18.98c-0.47-5.39-6.38-10.22-13.01-10.48c-2.66-0.1-5.33-0.02-8-0.02
	"/>
<path class="st1" d="M379.45,510.94c-13.42,3.49-13.68,15.38-8.41,26.95c2.06,4.51,4.68,9.11,10.41,10.02
	c5.86,0.93,10.05-2.96,13.05-9.45c2.25-4.85,2.76-9.85,2.42-15.02c-0.38-5.84-6.64-12.05-12.48-12.48c-1.49-0.11-3-0.02-4.5-0.02"/>
<path class="st1" d="M269.47,423.95c-12.02,3.25-18.02,11.89-19.3,23.52c-0.84,7.6,1.05,15.02,6.75,21.03
	c3.7,3.9,8.05,4.36,12.53,2.86c9.99-3.33,17.81-9.82,21.88-19.47c5.82-13.8-1.67-28.09-17.85-27.94c-1.17,0.01-2.33,0-3.5,0"/>
<path class="st1" d="M493.44,558.93c-6.87,1.55-12.76,4.6-17.02,10.48c-7.15,9.88-1.78,18.27,7.06,20.88
	c9.97,2.95,22.45-0.1,27.46-9.37c5.99-11.08-0.8-20.93-12-21.98c-1.65-0.15-3.33-0.02-5-0.02"/>
<path class="st0" d="M699.41,559.93c-6.17,1-12.31,2.22-18.5,2.96c-22.35,2.67-34.8,16.33-39.83,37.07
	c-3.83,15.8-6.19,31.95-9.15,47.96c-1.97,10.63-6.27,20.22-12.51,28.99c-9.42,13.24-15.51,27.7-17.61,43.98
	c-1.84,14.3-3.39,28.86-11.41,41.49c-4.51,7.1-9.23,14.07-13.99,21c-7.54,11-14.96,21.99-20.07,34.47
	c-6.53,15.97-19.23,24.35-35.91,27c-11.47,1.83-23.1,2.84-34.46,5.16c-14.76,3.02-18.88,11.72-19.97,23.87
	c-0.64,7.14-1.4,14.37-0.89,21.48c0.66,9.24,1.21,18.59,6.17,27.1c2.61,4.48,6.17,7.04,10.66,7.27
	c18.46,0.94,35.95-2.99,51.95-12.42c7.95-4.68,12.18-12.68,16.54-20.44c4.31-7.68,8.06-15.76,13.14-22.9
	c7.14-10.04,17.98-14.21,29.85-16.12c18.53-2.98,35.82-8.62,51.12-20.31c14.39-11,24.2-24.65,29.91-41.64
	c6-17.89,11.84-35.85,18.57-53.46c9.78-25.59,27.65-43.54,53.94-51.87c14.03-4.44,28.58-7.29,42.95-10.63
	c14.87-3.46,21.66-11.86,22.02-28.03c0.34-15.33-2.39-30.12-7.55-44.49c-4.25-11.85-12.67-20.22-23.52-25.91
	c-15.43-8.09-31.2-15.81-48.48-18.89c-10.64-1.9-21.63-1.86-32.46-2.7"/>
<path class="st1" d="M1262.34,571.93c-5.17,1-10.42,1.68-15.48,3.07c-7.41,2.04-14.87,4.15-21.97,7.03
	c-9.26,3.76-18.81,4.16-27.98,1.66c-10.99-3-21.14-1.74-31.02,2.82c-9.63,4.45-19.16,9.1-27.61,15.81
	c-8.72,6.93-13.12,16.09-13.11,26.59c0.01,7.17,2.19,14.65,4.84,21.43c6.9,17.64,17.44,32.65,34.87,41.49
	c9.03,4.58,18.75,7.07,28.96,7.05c11.3-0.03,22.7-0.07,33.43,3.71c6.03,2.13,11.64,5.79,17.01,9.39
	c10.17,6.82,10.8,17.07,9.05,27.92c-1.48,9.17-3.91,18.3-4.21,27.51c-0.24,7.45,1.36,15.18,3.36,22.45
	c3.83,13.97,8.11,27.85,13.04,41.47c2.25,6.22,5.81,12.27,9.97,17.44c6.28,7.82,15.31,9.43,24.83,7.58
	c11.87-2.3,23.71-4.79,35.48-7.55c3.81-0.89,7.57-2.53,10.97-4.49c6.21-3.58,8.29-8.92,6.52-15.91c-2.89-11.36-6.6-22.55-8.79-34.04
	c-2.06-10.8-2.81-21.71-2.04-32.99c1.26-18.58,6.69-35.91,11.75-53.5c1.87-6.5,1.38-13.31-2.95-18.92
	c-7.46-9.68-10.28-20.52-9.46-32.54c0.76-11.16,1.59-22.32,1.96-33.5c0.54-16.35-6.64-28.22-21.43-35.52
	c-15.06-7.43-30.8-12.53-47.51-14.45c-3.99-0.46-8-0.69-12-1.02"/>
<path class="st1" d="M707.41,572.93c-5,0.67-10.03,1.18-14.99,2.03c-12.59,2.17-23.95,7.02-29.79,19.07
	c-3.36,6.92-4.92,14.81-6.62,22.41c-2.17,9.7-1.42,19.65-0.96,29.47c0.33,7.03,1.59,14.06,2.94,20.99
	c1.68,8.65-1.88,14.73-8.59,19.48c-3.05,2.16-6.19,4.25-9.5,5.99c-14.26,7.49-22.61,19.47-24.82,35.06
	c-3.18,22.38-11.55,42.41-24.05,61.04c-3.5,5.22-5.71,11.29-8.62,16.92c-2.45,4.76-2.52,9.83-2.53,15.01
	c-0.02,8.87,5.57,14.62,15.05,15.45c19.51,1.7,35.41-6.07,49.54-18.9c12.68-11.52,19.54-26.42,24.83-42.09
	c5.85-17.32,11.07-34.87,16.04-52.48c5.04-17.87,16.18-30.4,33.16-36.76c16.46-6.16,33.6-10.48,50.4-15.76
	c4.92-1.55,9.97-3.09,14.45-5.56c10.04-5.55,13.98-17.51,12.77-29.41c-1.87-18.42-12.24-30.2-27.24-38.92
	c-10.18-5.92-20.46-11.73-31.03-16.93c-7.25-3.56-15.2-5.27-23.44-5.18c-2.16,0.02-4.33-0.61-6.5-0.95"/>
<path class="st1" d="M705.41,588.93c-5,1.5-10.41,2.24-14.92,4.65c-10.28,5.5-14.57,15.26-15.45,26.35
	c-0.55,6.95-0.43,13.84,3.18,20.59c4.23,7.9,10.68,12.08,18.7,14.34c15.21,4.28,30.86,4.78,46.47,3.88
	c8.31-0.48,16.66-2.44,23.98-6.87c12-7.26,13.99-19.69,3.81-29.73c-7.73-7.62-17.3-13.43-26.32-19.65
	c-7.52-5.19-15.4-10-24.47-11.97c-4.72-1.02-9.65-1.09-14.48-1.59"/>
<path class="st1" d="M1265.34,589.93c-8.1,1.75-16.04,3.93-22.48,9.52c-4.27,3.71-8.27,7.73-12.54,11.45
	c-5.07,4.42-9.79,9.69-16.99,10.41c-3.27,0.33-6.75-0.16-9.97-0.96c-8.57-2.15-16.93-4.73-26.02-4.53
	c-20.66,0.45-35.48,22.91-26.97,41.59c5.04,11.06,12.74,19.32,24.97,22.52c8.75,2.29,17.25,1.11,25.48-2.07
	c6.12-2.36,12.01-5.29,18.02-7.94c7.92-3.49,15.67-2.9,22.97,1.54c7.98,4.85,15.35,11.15,24.55,13.32
	c18.18,4.29,34.63-1.44,44.83-19.44c7.37-13.01,10.08-27.55,8.47-42.4c-1.21-11.16-8.1-19.12-17.84-24.5
	c-11.19-6.18-23.15-9.25-35.99-8.51"/>
<path class="st1" d="M566.93,596.43c-7.59,1.49-13.24,6.31-19.01,10.98c-8.29,6.72-16.32,13.84-25.09,19.85
	c-6.97,4.78-14.94,8.07-22.38,12.18c-9,4.98-14.66,12.78-17.45,22.49c-3.9,13.6-8.62,27.12-10.76,41.02
	c-2.92,19.01-0.65,37.81,8.11,55.49c3.17,6.39,7.56,10.84,14.6,11.83c3.06,0.43,6.45-0.08,9.46-0.95
	c15.39-4.46,30.19-10.46,42.42-21.04c9.01-7.8,14.67-18.22,16.96-29.91c2-10.2,3.31-20.6,4.01-30.98
	c0.87-12.96,0.35-26.02,1.3-38.97c0.54-7.4,3.08-14.64,4.26-22.02c1.24-7.76,4.06-15.39,1.66-23.51c-1.21-4.08-3.17-6.52-7.59-6.47"
	/>
<path class="st1" d="M1272.34,617.92c-4.59,1.76-6.88,5.18-6.44,9.99c0.57,6.22,3.36,11.32,8.95,14.48
	c5.45,3.08,10.39,0.83,13.02-5.47c3.74-8.92-2.38-20.81-15.03-19.01"/>
<path class="st1" d="M158.48,626.92c-10.67,3.77-21.43,7.36-30.5,14.5c-0.84,0.66-1.87,1.19-2.46,2.03
	c-1.78,2.52-4.74,4.68-3.04,8.47c1.75,3.93,5.45,4.68,9.01,4.92c12.87,0.88,22.01-7.28,26.93-17.95c1.38-2.99,1.86-6.38,3.11-9.45
	c1.36-3.35-1.02-2.38-2.55-2.52"/>
<path class="st0" d="M266.47,402.95c-5.83,2.5-12.19,4.21-17.39,7.66c-11.04,7.34-15.66,19.04-19.16,31.32
	c-2.45,8.61-2.82,17.96-8.46,25.5c-2.91,3.9-5.45,8.31-9.08,11.39c-11.28,9.55-15.42,22.36-18.5,36.09
	c-3.91,17.43-8.32,34.75-12.97,52c-4.51,16.75-9.62,33.34-14.38,50.03c-0.4,1.39-0.05,2.98-0.05,4.48c1.5-0.17,3.06-0.11,4.49-0.53
	c21.84-6.45,43.62-13.13,65.53-19.36c6.47-1.84,13.29-2.48,19.97-3.59c8.94-1.48,14.75,3.33,19.47,10.01
	c2.5,3.54,4.67,7.33,7.04,10.97c5.75,8.85,12.76,16.51,21.5,22.49c6.9,4.72,10.47,10.73,9.63,19.52
	c-0.69,7.27-0.26,14.65-0.12,21.98c0.3,15.66,3.44,30.77,10.04,44.96c7.25,15.6,11.27,31.75,12.14,49.01
	c0.72,14.23,2.68,28.4,7.68,42.05c5.06,13.82,16.37,23.69,33.61,24.02c12.28,0.24,24.1-1.06,35.53-6
	c13.29-5.74,18.2-12.61,18.82-27.57c0.65-15.64,0.29-31.33,0.1-46.99c-0.17-13.87,2.65-27.37,4.51-41c1.32-9.64,2.87-19.3,3.41-29
	c0.89-15.91-9.57-26.18-26.38-26.42c-14.42-0.2-28.81-0.55-42.46-5.66c-11.82-4.42-23.4-9.49-35.01-14.45
	c-5.81-2.48-9.33-6.47-9.13-13.47c0.2-6.82-0.5-13.66-0.89-20.49c-1.09-18.98-11.85-39.7-32.95-43.2
	c-11.87-1.97-17.02-9.8-16.94-23.29c0.09-14.51,1.31-28.95,5.41-43c2.99-10.25,9.25-18.54,16.02-26.48
	c7.67-8.99,14.92-18.3,18.9-29.54c4.56-12.88,0.17-23.32-9.45-31.44c-11.54-9.74-25.06-13.29-39.97-12.03"/>
<path class="st1" d="M1712.29,650.92c-3.67,0.67-7.37,1.17-10.99,2.03c-12.65,3-24.01,8.38-29.36,21.03
	c-5.78,13.65-1.86,25.1,11.43,30.27c10.33,4.02,21.14,7.06,31.97,9.51c10.7,2.43,19.61-3.17,22.75-14.9
	c3.05-11.39,2.96-23.01-1.64-34.49c-4.48-11.2-13.59-12.81-23.64-13.44"/>
<path class="st1" d="M529.43,654.92c-11.38,2.75-21.76,7.35-30,16c-8.83,9.28-13.81,20.14-15.71,32.97
	c-1.7,11.5,1.02,21.33,6.6,31.09c3.47,6.07,16.91,10.74,24.13,9.56c10.3-1.68,19.74-4.8,26.94-12.66
	c8.12-8.85,11.73-19.58,12.58-31.46c0.64-8.97,0.53-17.82-2.08-26.49c-0.82-2.72-1.7-5.49-3.02-7.98
	c-4-7.52-10.13-11.65-18.95-11.03"/>
<path class="st1" d="M1084.36,658.92c-5,2.67-10.39,4.8-14.93,8.1c-14.1,10.27-29.42,17.7-46.59,20.78
	c-7.54,1.36-15.32,1.35-22.97,2.14c-12.41,1.27-25.04,1.4-36.98,5.53c-12.32,4.26-15.93,11.29-16.9,22.96
	c-1.53,18.32,6.55,32.33,20.27,44.11c11.7,10.05,22.39,21.26,33.62,31.85c12.37,11.67,26.12,21.08,42.99,24.98
	c17.57,4.06,35.24,5.33,52.98,1.02c13.51-3.28,26.91-7.08,40.53-9.83c8.33-1.68,16.96-1.84,25.47-2.65
	c10.66-1.02,21.36-1.76,31.99-3.07c11.33-1.4,17.14-8.68,19.55-19.42c2.19-9.72,2.04-19.36-0.07-29
	c-2.61-11.95-10.31-20.1-20.52-25.93c-8.8-5.02-17.94-9.43-26.96-14.07c-18.08-9.3-33.16-22.17-46.68-37.34
	c-6.07-6.81-14.02-12-21.36-17.59c-3.72-2.84-8.41-2.81-12.95-2.57"/>
<path class="st1" d="M347.46,673.92c-13.35,2.48-20.95,16.97-15.9,32.46c2.61,8.01,5.85,15.88,9.49,23.49
	c5.79,12.09,8.82,24.71,10.04,38.03c0.99,10.88,2.47,21.74,8.29,31.56c6.11,10.32,14.28,17.32,26.05,20.56
	c13.15,3.62,24.18-5.65,26.44-16.13c1.16-5.39,1.89-10.97,2-16.48c0.36-18.07,2.55-35.86,6.49-53.51c2.35-10.5,4.98-21,4.67-31.98
	c-0.34-12.11-7.4-19.9-19.57-21.02c-15.63-1.43-31.18-3.33-46.52-6.86c-3.48-0.8-7.31-0.12-10.97-0.12"/>
<path class="st1" d="M1088.36,679.91c-13.54,2.4-24.94,10.14-37.49,15c-11.78,4.56-23.93,7.46-36.48,9.12
	c-7.59,1-15.11,2.87-22.49,4.95c-13.58,3.82-20.7,16.48-12.81,30.81c5.57,10.1,12.86,19.31,19.87,28.55
	c5.06,6.67,10.57,13.07,16.49,18.98c9.22,9.2,21.2,13.59,33.43,17.02c12.23,3.43,24.6,6.74,37.47,5.46
	c7.89-0.79,15.97-1.66,23.45-4.07c20.69-6.67,41.76-11.59,63.03-15.89c11.03-2.23,19.57-7.84,21.44-19.94
	c1.47-9.49-2.01-18.05-8.61-24.3c-7.56-7.15-16.44-12.91-24.83-19.17c-11.46-8.55-23.01-16.98-34.48-25.52
	c-7.54-5.61-14.67-11.87-22.64-16.76c-4.23-2.59-9.86-2.89-14.86-4.22"/>
<path class="st1" d="M521.43,681.91c-7.98,1.67-14.68,5.46-18.94,12.53c-4.87,8.09-5.31,17.05,0.01,23.91
	c6.05,7.79,18.52,7.9,26.39,1.01c7.39-6.47,9.2-15.21,7.92-24.44c-1.03-7.5-6.31-11.63-14.88-13.01"/>
<path class="st1" d="M247.47,683.91c-18.15,3.94-28.55,16.83-37,32c-5.66,10.17-11,20.54-17.14,30.41
	c-3.01,4.84-7.55,8.73-11.35,13.09c-8.68,9.98-17.51,19.85-25.91,30.06c-3.23,3.93-6.01,8.26-6.21,13.92
	c-0.2,5.63,2.13,10.02,6.21,12.88c10.32,7.23,21.51,12.25,34.38,13.83c10.77,1.32,20.82-1.25,31-3.28
	c14.23-2.84,28.42-5.98,42.48-9.52c8.46-2.13,15.41-7.22,20.98-13.93c4.03-4.85,5.76-10.65,6.07-16.96
	c0.56-11.48-1.25-22.73-3.03-34c-1.98-12.5-3.11-25.22-6.22-37.44c-3.83-15.05-12.39-26.79-28.78-30.53
	c-1.62-0.37-3.33-0.36-4.99-0.53"/>
<path class="st1" d="M370.45,696.91c-4.01,1.46-8.47,1.57-11.6,5.42c-2.65,3.27-3.84,7.03-2.76,10.53c5,16.1,10.4,32.08,15.93,48.01
	c1.46,4.18,4.08,7.97,8.92,8.99c5.41,1.13,8.29-2.8,10.39-6.52c8.13-14.41,13.18-29.95,14.49-46.45
	c0.89-11.18-5.27-17.24-15.91-18.87c-6.24-0.96-12.65-0.78-18.98-1.11"/>
<path class="st1" d="M1086.36,699.91c-14.59,3.44-26.62,12.43-39.97,18.56c-6.49,2.98-12.58,6.84-19.05,9.89
	c-11.95,5.64-12.96,12.5-9.91,23.03c4.97,17.2,16.34,28.67,32.95,34.98c8.77,3.33,17.5,6.91,26.53,9.38
	c9.73,2.66,19.74,1.66,29.45-0.89c17.11-4.49,33.07-11.96,48.98-19.51c2.01-0.95,3.75-2.54,5.51-3.96
	c7.86-6.33,7.95-16.31,0.54-25.5c-8.51-10.56-19.42-18.33-30.04-26.45c-4.74-3.62-9.72-6.92-14.47-10.54
	c-8.9-6.78-18.74-10.21-30.01-8.98"/>
<path class="st1" d="M248.47,711.91c-14.69,3-19.89,14.16-22.37,27.02c-1.67,8.7-3.04,17.66-2.85,26.47
	c0.17,7.48,0.42,15.73,9.16,20.11c8.6,4.31,17.11,6.48,26.01,1.81c5.37-2.82,7.45-8.39,8.45-13.93c2.57-14.18,0.81-28.42-1.15-42.44
	c-1.3-9.3-6.11-17.16-16.76-19.03"/>
<path class="st1" d="M1862.27,712.91c-7.66,1.87-13.98,6.29-19.41,11.59c-12.95,12.61-27.66,22.52-43.5,31.05
	c-5.15,2.77-9.74,6.85-14.01,10.93c-8.81,8.43-7.45,18.78-3.91,28.87c1.53,4.34,4.63,8.21,7.39,12.02
	c3.16,4.36,7.93,4.43,12.42,2.97c13.5-4.4,24.6-12.43,33.5-23.44c8.17-10.1,16.61-19.84,29.02-24.97c3.8-1.57,7.8-2.74,11.47-4.56
	c15.31-7.58,18.17-25.24,6.59-38.01c-5.32-5.86-11.8-6.99-19.06-6.44"/>
<path class="st1" d="M648.42,720.91c-10.8,1.53-15.22,9.57-18.44,18.52c-2.47,6.89-4.17,14.06-6.61,20.96
	c-3.63,10.24-7.62,20.35-11.43,30.52c-0.29,0.79-0.34,1.66-0.52,2.49c-2.34,10.69,1.88,14.61,12.01,12.04
	c8.84-2.24,14.76-8.32,19.91-15.1c8.83-11.61,15.19-24.49,18.09-38.93c1.23-6.15,1.75-12.38,0.4-18.48
	c-1.5-6.75-5.87-10.95-12.91-12.02"/>
<path class="st1" d="M1093.36,722.91c-14.25,4.75-23.11,15.01-28.43,28.52c-3.59,9.11,1,17.83,9.41,24
	c9.01,6.61,18.87,7.77,29.53,5.51c9.48-2.02,17.94-5.83,25.54-11.97c10.45-8.45,11.7-18.28,2.84-28.96
	c-6.73-8.12-15.64-13.75-25.92-16.45c-3.94-1.04-8.3-0.47-12.46-0.64"/>
<path class="st1" d="M1469.32,722.91c-7.5,1.67-15.13,2.89-22.47,5.09c-16.18,4.84-32.67,8.87-47.53,17.39
	c-10,5.73-17.63,13.26-19.98,25.02c-3.08,15.41,6.31,31.02,21.49,35.49c8.75,2.58,17.58,2.86,26.5,1.02c0.64-0.13,1.33,0,2-0.02
	c9.83-0.33,19.69-0.32,29.49-1.09c10.17-0.81,20.02-3.53,28.96-8.48c11.17-6.18,22.1-12.82,33-19.49c3.1-1.9,5.72-4.58,8.54-6.94
	c7.62-6.36,5.97-14.78-0.61-20.37c-11.35-9.64-22.86-19.16-37.34-24.26c-7.09-2.5-14.18-3.43-21.54-3.37"/>
<path class="st1" d="M760.4,726.91c-10.91,2.57-20.52,7.4-28,15.99c-7.81,8.96-12.7,19.12-14.62,30.98
	c-1.59,9.86-0.77,18.99,3.54,28.06c3.49,7.34,9.67,11.38,16.64,13.8c13.48,4.69,27.24,8.6,40.97,12.56
	c2.81,0.81,6.05,0.91,8.95,0.48c4.16-0.62,6.32-5.28,7.08-11.88c1.45-12.69,4.06-25.3,4.73-38.01c0.73-13.94,2.22-28.32-7.72-40.54
	c-6.07-7.46-13.68-11.07-23.07-11.43c-2.66-0.1-5.33-0.02-8-0.02"/>
<path class="st1" d="M1299.34,733.91c-9.61,2.16-17.88,6.41-24.04,14.47c-7.77,10.17-9.87,21.79-6.21,33.45
	c4.6,14.64,11.49,28.5,23.29,39.02c6.04,5.38,13.01,8.43,21.46,6.08c6.26-1.74,10.07-5.74,10.89-12.04
	c0.53-4.1,0.19-8.32,0.08-12.48c-0.28-10.17-0.49-20.34-1.04-30.49c-0.38-7.01-0.53-14.18-2.11-20.96
	c-2.76-11.84-9.51-18.24-21.83-17.04"/>
<path class="st1" d="M1464.32,742.91c-14.03,3.34-27.6,8.08-40.43,14.63c-4.59,2.34-8.59,5.99-12.52,9.42
	c-4.54,3.96-3.65,13.81,3.47,16.39c4.9,1.78,9.91,3.99,14.99,4.37c12.98,0.96,26.11,2.9,38.97-0.87
	c10.57-3.1,20.03-7.99,26.05-17.92c3.55-5.86,2.25-11.28-1.63-15.94c-5.45-6.55-12.76-9.93-21.41-10.07c-2.33-0.04-4.67-0.01-7-0.01
	"/>
<path class="st1" d="M759.9,746.41c-10.56,0.77-17.5,6.95-21.34,16.06c-4.47,10.62-1.36,20.18,9.38,25.36
	c11,5.31,20.32,1.08,25.45-7.93c3.17-5.57,5.46-11.78,4.3-17.95c-1.79-9.49-5.35-14.64-17.28-15.54"/>
<path class="st1" d="M593.43,17c-3.98,1.21-8.12,1.95-11.03,5.48c-5.4,6.55-4.48,13.63-1.39,20.48
	c5.83,12.95,14.31,24.19,23.34,35.09c7.83,9.45,17.09,16.83,28.62,20.8c7.07,2.43,14.66,3.31,21.94,5.19
	c5.85,1.51,11.5,0.94,17-1.09c13.54-5.01,20.64-25.33,6.86-38.3c-8.18-7.7-17.41-14.53-26.96-20.48c-12.9-8.03-26.38-15.2-39.97-22
	c-5.47-2.73-11.91-3.51-17.91-5.18"/>
<path class="st1" d="M1535.31,826.9c-5.76,1.49-11.36,3.03-16.58,6.37c-10.51,6.72-13.84,19.2-8.89,30.61
	c5,11.54,11.33,22.25,22.03,29.41c5.14,3.45,11.19,4.39,17.44,3.11c6.82-1.4,13.77-2.29,20.46-4.12c6.99-1.92,9.82-6.65,10.06-13.89
	c0.59-17.44-6.16-31.6-19.06-42.97c-7.09-6.25-15.86-8-24.97-8.53"/>
<path class="st1" d="M499.44,350.96c-13.06,5.19-23.01,14.26-30.88,25.57c-3.02,4.34-2.66,13.8,1.86,18.44
	c4.44,4.56,8.77,8.71,16.03,8.1c5.69-0.48,9.23-3.86,12.43-7.67c8.99-10.71,13.24-22.89,10.02-36.94c-1.39-6.06-3.31-7.45-8.96-7.51
	"/>
<path class="st0" d="M240.47,40.99c-4.83,1.33-9.82,2.28-14.46,4.09c-7.85,3.06-14.01,8.7-20.02,14.43
	c-6.56,6.25-13.81,11.57-23.02,12.34c-8.86,0.73-17.76,0.25-26.5-2.28c-16.93-4.91-33.91-9.65-51.01-13.93
	c-6.01-1.5-12.72-2.08-18.38,1.01c-6.73,3.68-9.06,10.74-8.89,17.84c0.2,8.52,1.21,17.13,2.94,25.47
	c3.03,14.6,6.79,29.04,10.39,43.52c3.18,12.81,11.44,20.91,23.99,24.46c24.95,7.06,49.35,5.58,72.98-5.47
	c12.53-5.86,20.84-15.48,25.57-28.46c1.7-4.67,4.38-8.97,6.4-13.54c4.79-10.79,13.7-16.9,24.01-21.5c6.2-2.76,12.33-5.68,18.51-8.48
	c8.52-3.87,13.03-18.24,11.5-26c-0.39-1.99-0.45-4.07-1.05-5.99c-3.28-10.64-12.69-17.2-24.96-17.5c-2.5-0.06-5-0.01-7.5-0.01"/>
<path class="st1" d="M419.45,852.89c-6.17,1-12.38,1.78-18.49,3.05c-12.03,2.5-24.11,4.9-35.97,8.07
	c-10.35,2.77-15.99,9.62-17.24,20.86c-1.17,10.43,1.1,20.24,3.44,29.97c2.38,9.92,5.94,19.57,11.17,28.61
	c8.48,14.66,20.97,22.45,37.59,21.2c17.11-1.29,32.7-7.44,44.48-20.79c4.73-5.36,6.1-12.26,6.39-18.98
	c0.76-17.84-0.12-35.61-4.86-52.99c-1.94-7.12-4.72-13.99-12.07-16.82c-4.29-1.65-9.26-1.51-13.93-2.18"/>
<path class="st1" d="M888.39,855.89c-8.5,1.67-17.05,3.12-25.48,5.05c-9.89,2.26-19.72,4.8-29.5,7.48
	c-18.2,4.98-25.75,19.66-26.49,36.96c-0.84,19.61,3.99,38.11,12.7,55.38c4.03,7.99,9.81,15.36,15.91,21.99
	c11.99,13.01,19.97,27.83,23.33,45.13c1.22,6.29,1.95,12.67,3.05,18.99c2.06,11.8,12.85,19.98,23.98,20.96
	c2.98,0.26,6.01,0.25,8.99,0c7.46-0.63,12.03-4.92,13.97-11.96c2.61-9.47,4.84-19.04,7.58-28.47c3.12-10.73,6.93-21.26,9.88-32.03
	c4.45-16.25,9.14-32.5,12.31-49.02c2.05-10.7,0.26-21.78-4.3-31.92c-5.74-12.78-11.67-25.49-18.03-37.97
	c-4.08-8-9.21-15.45-18.42-18.5c-2.9-0.96-5.98-1.38-8.98-2.05"/>
<path class="st1" d="M1138.36,867.89c-14.5,2.37-24.08,11.96-32.98,22.51c-3.65,4.33-8.01,7.88-13.54,8.78
	c-2.98,0.49-6.58-0.56-9.39-1.95c-3-1.48-5.61-3.98-8.04-6.38c-10.43-10.29-22.65-15.93-37.53-14.96
	c-4.83,0.32-9.77,0.15-14.48,1.09c-15.33,3.04-17.69,11.57-18.43,22.91c-1,15.37,4.79,28.79,12.83,41.54
	c3.17,5.02,6.51,10.36,7.8,16.01c1.54,6.72,2.23,14.16,1.03,20.89c-3.01,16.93,1.71,30.79,13.76,42.53
	c7.94,7.73,16.19,15.14,23.93,23.06c8.9,9.1,17.29,18.7,26.12,27.88c2.03,2.11,4.83,3.58,7.45,5.03c7.37,4.09,14.1,0.96,20.44-2.53
	c11.96-6.59,23.91-13.27,35.47-20.53c10.39-6.52,21.73-9.72,33.55-11.91c11.34-2.11,22.65-4.4,34.01-6.45
	c4.12-0.75,8.31-1.21,12.49-1.51c10.99-0.77,22.06-0.84,32.98-2.17c13.51-1.65,23.43-9.63,29.33-21.45
	c5.85-11.72,8.12-24.43,3.65-37.39c-4.28-12.4-13.44-19.87-26-21.75c-8.97-1.34-18.29-0.14-27.46-0.29
	c-13.17-0.22-26.33-0.55-39.49-1.03c-3.51-0.13-7.22-0.35-10.46-1.56c-8.76-3.27-9.18-11.28-9.48-18.89
	c-0.52-13.23-2.74-26.09-8.64-37.95c-7.81-15.69-20.03-24.8-38.41-23.54"/>
<path class="st0" d="M515.44,868.89c-6.06,1.64-12.27,2.04-18.11,5.31c-10.31,5.78-11.85,16.6-9.77,25.16
	c1.54,6.37,9.75,10.84,17.36,9.43c14.69-2.71,24.84-9.52,28.52-25.4c1.67-7.21-1.69-12.33-9.01-13.48c-2.82-0.44-5.66-0.68-8.5-1.02
	"/>
<path class="st1" d="M398.45,869.89c-6,1.67-12.08,3.08-17.98,5.05c-12.54,4.19-21.77,17.2-18.72,33.98
	c1.61,8.83,3.44,17.32,8.22,24.95c8.55,13.62,19.56,18.95,35.93,14.81c14.95-3.78,26.2-12.62,29.52-28.81
	c2.97-14.52,1.5-28.37-6.97-40.99c-4.06-6.04-9.96-8.67-17-8.97c-4.16-0.18-8.33-0.03-12.5-0.03"/>
<path class="st1" d="M860.39,877.89c-5.83,1.33-11.84,2.17-17.47,4.09c-15.85,5.42-23.64,19.11-18.44,36.37
	c4.21,13.98,11.01,26.77,20.47,37.97c2.41,2.85,5.49,5.19,8.46,7.53c10.06,7.92,15.03,18.98,19.61,30.47
	c1.86,4.66,4.75,9.09,7.97,12.96c4.61,5.54,9.94,4.94,14.39-0.91c5.04-6.65,7.58-14.06,7.57-22.49c0-7.5,0.29-15.03,1.07-22.48
	c0.36-3.42,1.69-6.98,3.45-9.96c7.1-12.02,7.19-24.44,2.33-37.02c-3.47-8.99-6.83-17.98-13.28-25.64
	c-6.12-7.27-13.87-9.94-22.64-10.81c-4.29-0.43-8.66-0.07-12.99-0.07"/>
<path class="st1" d="M1868.27,878.89c-1.67,0.67-3.56,1.03-4.96,2.06c-4.1,3.03-4.56,6.94-1.54,10.44c2.84,3.3,8.29,3.54,11.5,0.5
	c4.38-4.15,4.91-9.21,0.93-11.9c-1.41-0.96-3.6-0.77-5.43-1.1"/>
<path class="st1" d="M761.9,879.39c-5.59,3.27-9.71,12.63-7.88,19.47c1.12,4.21,1.81,8.64,5.27,12.14c2.77,2.79,6.94,2.1,9.08-0.14
	c5.73-5.99,4.46-24.8-2.01-29.92c-1.06-0.84-2.63-1.05-3.96-1.55"/>
<path class="st1" d="M395.45,886.89c-6.29,2.04-12.02,4.19-16.19,10.37c-7.32,10.85-1.71,34.62,17.2,36.49
	c3.07,0.3,6.65-0.55,9.43-1.97c15.19-7.72,18.07-25.1,9.57-37.4c-4.84-7.02-11.86-8.01-19.52-7.48"/>
<path class="st0" d="M1144.36,886.89c-13.56,4.37-22.61,16.3-23.49,31c-0.2,3.33-1.01,6.8-0.37,9.97c1.71,8.45,4.76,10.9,13.35,9.9
	c10.18-1.18,18.98-5.24,26.13-13.27c9.92-11.15,4.79-36.46-15.11-37.6"/>
<path class="st1" d="M840.39,45.99c-12.45,3.45-19.08,13-25.05,23.47c-6.13,10.76-9.48,22.16-10.58,34.51
	c-1.06,11.89-3.15,23.68-4.88,35.5c-1.17,8,2.2,14.09,10.55,16.89c6.99,2.35,14.2,4.7,21.48,5.42c17.05,1.69,32.17,8.26,47,16.14
	c7.44,3.96,15.45,6.43,23.97,5.99c11.81-0.62,21.64-5.56,29.51-14.43c10.13-11.43,14.78-24.99,15.43-40.01
	c0.33-7.48,0.56-15.04-0.07-22.48c-0.82-9.87-6.14-17.75-13.95-23.4c-11.37-8.24-22.77-16.65-35.05-23.37
	c-13.85-7.58-29.45-10.97-44.89-14.1c-4.16-0.84-8.64-0.13-12.97-0.13"/>
<path class="st1" d="M1009.37,323.96c-2.5,0.83-5.27,1.23-7.45,2.58c-5.86,3.63-7.85,10.42-4.46,16.86
	c5,9.5,12.37,17.05,21.95,21.96c6.69,3.43,15.28-1.4,16.34-9.42c2.2-16.64-8.02-31.5-25.88-31.98"/>
<path class="st1" d="M1144.86,310.46c-9.99,1.21-15.21,7.79-18.49,16.5c-4.89,12.96-2.58,25.83,1.11,38.46
	c2.35,8.03,5.75,15.65,10.8,22.6c8.25,11.36,23.26,10.58,29.12-2.05c3.18-6.86,4.58-14.01,5.7-21.48c1.57-10.5,0.16-20.55-2.34-30.5
	c-2.17-8.63-6.29-16.43-14.92-20.44c-3.26-1.52-6.96-2.08-10.46-3.08"/>
<path class="st1" d="M1037.37,899.89c-9.59,4.14-11.33,12.62-3.96,19.96c1.92,1.91,4.06,4.06,6.51,4.91
	c7.27,2.53,10.88-0.68,11.86-8.88c0.98-8.15-5.74-15.51-13.91-15.99"/>
<path class="st1" d="M294.46,910.89c-7.88,1.29-15.31,3.67-21.5,9c-1.34,1.16-2.74,2.26-3.99,3.51
	c-9.85,9.81-19.69,19.64-29.5,29.49c-5.13,5.14-5.11,7.29-2.09,14.53c3.06,7.34,5.76,14.86,7.95,22.5
	c1.23,4.29,1.45,8.95,1.57,13.46c0.45,16.15,4.59,31.08,14.6,43.96c6.34,8.16,14.04,11.34,24.42,5.49c5.15-2.9,10.14-6.12,15-9.49
	c11.96-8.27,23.26-17.33,37.43-22.22c9.71-3.35,11.14-9.4,6.02-18.71c-6.24-11.34-9-23.79-12.41-36.04
	c-3.1-11.14-5.31-22.58-9.24-33.41c-3.35-9.21-9.23-17.19-19.3-20.52c-2.7-0.89-5.65-1.06-8.48-1.56"/>
<path class="st1" d="M995.38,299.96c-7.17,1.5-14.37,2.84-21.49,4.54c-10.88,2.59-21.21,6.57-30.51,12.96
	c-8.94,6.15-18.74,9.04-28.93,4.36c-12.34-5.67-22.49-1.25-32.55,5.16c-13.99,8.92-23.79,21.05-27.47,37.49
	c-2.9,12.94-0.2,24.55,8.94,34.5c11.36,12.36,25.6,20.44,40.55,27.4c5.96,2.77,7.65,2.94,10.9-4.95
	c4.8-11.67,8.78-23.67,15.52-34.49c7.09-11.38,17.17-17.98,30.53-17.8c11.14,0.15,21.68,3.7,30.44,10.9
	c6,4.93,11.49,10.49,17.03,15.95c5.05,4.98,10.78,8.17,18.01,6.87c3.11-0.56,6.11-2.03,9-3.43c11.26-5.46,19.43-14.07,21.24-26.5
	c1.36-9.34,0.85-19.09-1.73-28.46c-3.28-11.93-7.66-23.19-16.95-32.05c-8.63-8.24-18.69-12.41-30.55-12.44c-3.83-0.01-7.67,0-11.5,0
	"/>
<path class="st1" d="M853.39,64.99c-14.27,2.73-20.9,12.91-25.58,25.46c-4.2,11.27-4.7,22.91-3.72,34.51
	c0.86,10.24,7.08,17.22,16.8,21.04c15.36,6.03,30.37,12.82,45.03,20.42c14.25,7.38,29.38,3.61,40.14-9.81
	c10.88-13.58,12.43-38.7,1.23-51.03c-7.12-7.83-15.12-14.87-22.92-22.06c-11.45-10.55-25.42-15.82-40.48-18.44
	c-3.23-0.56-6.65-0.08-9.98-0.08"/>
<path class="st1" d="M671.42,932.88c-14.3,3.3-16.56,14.56-12.95,26.98c1.04,3.58,2.67,7,3.94,10.52c1.4,3.87,4.36,4.5,7.47,2.92
	c9.1-4.6,17.01-10.14,19.16-21.4c1.97-10.31-4.21-18.95-14.63-19.02c-0.83-0.01-1.67,0-2.5,0"/>
<path class="st1" d="M297.46,948.88c-4.12,1.07-4.78,4.91-5.92,8.03c-4.19,11.43-7.88,23.04-12.16,34.43
	c-2.04,5.43-2.65,10.87-2.41,16.53c0.31,7.09,6.26,10.14,12.5,6.51c8.92-5.19,13.41-13.7,15.84-23.05
	c3.11-11.96,2.78-24.1-1.34-35.96c-1.06-3.06-2.42-5.8-6.01-6.5"/>
<path class="st1" d="M505.44,266.97c-1.33,0.5-2.69,0.95-4,1.51c-5.54,2.35-6.95,5.45-5.52,11.49c2.38,10.1,6.61,19.37,13.09,27.43
	c4.08,5.07,7.69,5.13,11.84-0.01c6.75-8.37,10.84-17.77,8.08-28.93c-1.63-6.59-7.23-11.23-14-11.48c-3-0.11-6-0.02-9-0.02"/>
<path class="st1" d="M1410.32,950.88c-13.26,3.46-23.8,10.92-30.9,22.56c-5.64,9.25-8.12,19.85-9.44,30.46
	c-1.38,11.08-2.05,22.31-1.98,33.47c0.06,8.75,1.96,17.36,5.75,25.53c7.26,15.66,21.17,16.28,33.51,12.3
	c14.78-4.77,21.13-16.97,23.43-31.35c1.32-8.23,1.61-16.64,2.08-24.98c0.8-14.16,1.75-28.32,1.87-42.49
	c0.05-6.75-0.62-13.73-5.29-19.53c-4.96-6.15-11.63-6.26-18.54-5.97"/>
<path class="st1" d="M1068.37,954.88c-13.41,4.79-17.66,16.66-21.38,28.53c-3.37,10.73-0.11,20.3,7.39,28.45
	c12.18,13.24,27.61,21.78,43.53,29.41c11.19,5.36,21.82,2.48,31.42-4.46c9.44-6.82,16.24-16.18,23-25.47
	c3.84-5.28,3.75-7.28-1.02-11.41c-6.62-5.74-13.78-10.87-20.4-16.61c-6.22-5.41-12.41-10.94-17.94-17.03
	c-5.67-6.24-13.11-7.98-20.62-9.26c-7.72-1.31-15.64-1.48-23.47-2.14"/>
<path class="st1" d="M112.49,76.99c-9.24,1.47-14.97,6.82-16.38,16.02c-0.7,4.56-0.78,9.43,0.01,13.96
	c2.05,11.79,4.65,23.44,11.82,33.55c9.11,12.85,21.86,18.45,37.05,19.43c10.41,0.67,20.18-1.17,29.56-6.34
	c12.51-6.9,19.17-17.44,20.26-31.13c1-12.64-6.17-21.24-16.85-26.94c-17.13-9.14-35.53-14.72-54.49-18.44
	c-3.37-0.66-6.98-0.09-10.48-0.09"/>
<path class="st1" d="M1251.34,974.88c-7.5,1.33-15.06,2.37-22.48,4.06c-15.24,3.46-29.9,8.69-43.99,15.47
	c-1.94,0.94-3.86,2.1-5.48,3.51c-3.74,3.24-4.09,5.35,1.53,7.8c3.46,1.51,7.58,1.85,11.44,2.07c5.81,0.33,11.69-0.32,17.49,0.17
	c10.03,0.85,19.99,2.45,30.01,3.35c10.2,0.91,20.55,2.38,29.52-4.9c6.01-4.87,9.68-13.55,7.34-20.5c-1.45-4.33-4.67-7.94-9.4-8.95
	c-5.08-1.08-10.31-1.43-15.48-2.09"/>
<path class="st1" d="M658.42,979.88c-11.5,4-23.11,7.71-34.46,12.09c-8.72,3.37-15.52,9.08-17.52,18.9
	c-1.94,9.5,4.04,16.52,11.49,17.99c9.28,1.84,17.51-1.24,25.5-5.49c10.96-5.83,19.57-13.76,21.85-26.53
	c0.74-4.17,0.16-8.69-0.48-12.95c-0.42-2.81-2.5-4.75-5.87-4.02"/>
<path class="st1" d="M1402.32,982.88c-9.4,3.41-13.1,11.44-15.97,20.01c-3.36,10.07-3.89,20.29-0.5,30.48
	c2.18,6.55,6.33,11.4,13.48,12.44c6.57,0.95,12.92-2.94,16.04-10.41c4.35-10.42,4-21.2,2.85-32.01c-0.43-4.06-1.38-8.24-3.01-11.96
	c-3.7-8.44-5.85-9.02-12.39-8.55"/>
<path class="st1" d="M1148.36,273.97c-22.17,5.57-31.92,21.54-36.63,42.47c-4.15,18.43-0.15,35.96,4.22,53.5
	c2.86,11.45,6.46,22.72,9.95,34.01c2.92,9.44,8.55,17,18,20.4c14,5.03,27.25,1.97,35.43-13.4c6.14-11.55,9.22-24.06,10.47-36.99
	c0.67-6.97,1.46-14.05,0.91-20.98c-1.29-16.48-2.46-33.1-9.39-48.49c-4.53-10.07-10.69-19.14-19.03-26.43
	c-3.67-3.2-8.4-4.54-13.43-4.08"/>
<path class="st1" d="M871.39,88.99c-2.67,0.83-5.5,1.33-7.97,2.56c-13.79,6.82-18.48,24.63-9.43,36.37c2.04,2.65,4.98,4.9,7.96,6.48
	c8.69,4.6,17.43,9.2,26.49,12.99c13.18,5.52,24.14,0.39,25.81-12.91c0.43-3.38-0.1-7.32-1.49-10.42
	c-6.12-13.62-16.21-23.9-28.94-31.42c-3.48-2.05-7.92-2.47-11.92-3.63"/>
<path class="st1" d="M1815.27,1010.87c-7.19,2.21-13.93,5.35-17.91,12.05c-3.48,5.85-4.03,12.26-0.55,18.43
	c3.64,6.45,8.44,5.98,12.91,3.42c8.24-4.7,13.91-11.98,18.02-20.42c3.23-6.63-1.05-13.99-8.97-13.49c-1,0.06-2,0.01-3,0.01"/>
<path class="st1" d="M681.41,263.97c-5.83,3.83-11.91,7.34-17.44,11.58c-7.41,5.68-14.45,11.85-21.53,17.95
	c-2.85,2.46-5.6,5.1-7.98,8c-7.41,9.02-7.72,18.29-0.46,30.41c2.48,4.14,5.54,8.1,8.99,11.48c11.78,11.53,22.67,23.78,32.5,37.01
	c2.5,3.37,5.81,6.18,8.95,9.03c5.07,4.61,11.64,4.53,17.43,3.33c20.35-4.21,38.85-12.26,51.46-29.85
	c5.59-7.81,8.63-16.94,9.45-26.45c0.92-10.6-2.79-20.03-10.45-27.41c-5.78-5.57-12.08-10.65-18.46-15.52
	c-10.52-8.03-21.28-15.73-31.96-23.55c-5.95-4.35-12.46-6.9-19.99-6"/>
<path class="st1" d="M129.48,96.99c-2,0.5-4.14,0.7-5.98,1.55c-8.01,3.69-9.92,10.65-7.95,18.93c3.64,15.32,13.18,24.56,28.91,27.6
	c10.51,2.03,19.45-0.78,25.84-8.73c6.91-8.59,4.85-20.06-5.8-27.89c-10.31-7.59-21.98-10.77-34.52-11.46"/>
<path class="st1" d="M897.39,256.97c-6.75,2.48-9.25,7.63-9.55,14.5c-0.39,9.06,1.13,17.45,6.5,25.03
	c3.27,4.62,6.94,8.65,13.02,7.34c6.29-1.36,10.47-5.94,12.45-11.9c3.79-11.44-3.45-27.99-14.46-33.39
	c-2.21-1.08-4.96-1.08-7.46-1.58"/>
<path class="st1" d="M1021.37,97.99c-6,1.5-12.26,2.35-17.95,4.63c-15.16,6.08-22.87,18.56-25.31,33.91
	c-1.59,9.97-2.02,20.41-0.94,30.43c1.18,10.97,4.66,21.7,7.21,32.53c1.77,7.51,4.14,14.92,5.37,22.52
	c1.76,10.85-8.48,19.44-19.38,20.02c-8.02,0.42-15.37-1.62-22.51-5.02c-11.19-5.33-21.8-11.89-33.98-15.06
	c-17.48-4.54-34.74-5.05-51.48,2.6c-10.92,4.99-15.44,14.35-16.58,25.93c-1.55,15.64-2.6,31.35-9.33,46.05
	c-3.98,8.7-7.04,17.86-10.06,26.96c-4.89,14.76-9.87,29.51-13.93,44.51c-4.52,16.69-1.51,31.81,11.85,43.98
	c6.62,6.03,13.21,12.12,19.47,18.52c7.26,7.41,12.18,16.31,10.83,26.92c-0.8,6.32-3.23,12.61-5.9,18.47
	c-4.88,10.72-9.8,21.18-12.12,33c-3.75,19.11-0.64,36.13,11.24,51.54c7.83,10.17,15.29,20.65,23.68,30.34
	c3.41,3.94,8.45,7.38,13.41,8.85c6.61,1.97,12.63-1.04,16.38-7.21c2.48-4.08,4.94-8.2,6.98-12.5c6.67-14.11,14.55-27.44,24.55-39.47
	c10.89-13.1,18.36-28.24,25.4-43.54c7.03-15.27,18.15-26.39,32.6-34.43c14.6-8.12,29.59-15.56,43.9-24.16
	c13.38-8.04,26.53-16.6,38.95-26.03c11.97-9.1,15.35-22.46,12.5-36.8c-4.35-21.93-9.35-43.73-14.46-65.5
	c-2.33-9.95-5.98-19.59-8.33-29.54c-5.1-21.54,0.95-39.63,17.91-53.98c3.7-3.13,7.23-6.46,11.02-9.47
	c11.22-8.91,11.93-22.47,6.45-35.01c-4.54-10.39-9.58-20.56-13.87-31.05c-2.85-6.96-4.84-14.27-7.08-21.46
	c-5.83-18.73-18.5-28.89-38.01-30.47c-5.99-0.49-12-0.69-18-1.02"/>
<path class="st1" d="M1022.37,109.99c-6.87,1.54-13.6,3.14-19.55,7.42c-9.02,6.49-13.04,15.4-13.93,26.07
	c-1.93,23.11,8.36,42.01,21.07,59.93c3.81,5.37,8.28,10.37,13,14.98c5.74,5.6,12.73,7.31,20.41,4.07
	c12.48-5.27,22.44-13.39,29.04-25.46c3.96-7.24,3-15.1,2.2-22.49c-1.16-10.77-3.75-21.44-6.31-32.01
	c-5.27-21.74-18.3-33.12-42.43-32.52c-1,0.03-2,0-3,0"/>
<path class="st1" d="M1022.37,124.98c-14.84,4.14-19.91,13.84-19.32,25.99c0.52,10.65,5.14,20.17,11.87,28.47
	c2.21,2.73,4.77,5.26,7.49,7.5c11.59,9.51,27.12,5.95,31.9-8.98c4.31-13.46,3.53-26.74-2.95-39.47
	c-4.66-9.15-12.03-13.91-22.48-13.52c-2,0.08-4,0.01-6,0.01"/>
<path class="st0" d="M199.48,177.98c-5.83,0.67-11.66,1.34-17.5,2c-12,1.34-23.99,2.7-36,3.98c-4.15,0.44-8.32,0.81-12.5,0.99
	c-9.5,0.41-18.99,0.8-28.5,1c-15.11,0.32-29.73,3.26-43.97,8.09c-5.57,1.89-9.46,6.08-10.45,11.94
	c-3.89,23.09-2.56,45.05,14.4,63.51c7.67,8.34,15.02,16.97,22.53,25.47c9.22,10.44,12.99,23.16,15.57,36.48
	c1.41,7.25,3.16,14.49,5.53,21.48c2.99,8.82,10.54,12.54,18.88,15.06c11.44,3.45,23.17,4.8,34.99,3.8
	c5.42-0.46,10.74-2.65,15.99-4.39c2.8-0.93,5.28-2.78,8.04-3.89c6.36-2.56,12.51-1.99,18.5,1.44c10.06,5.76,21.03,7.62,32.48,7.02
	c12.17-0.64,24.34-1.91,36.49-1.81c9.67,0.08,19.31,2.33,29,2.67c9.74,0.34,20.01,1.8,28.01-6.33c4.14-4.21,5.86-9.34,5.94-15.02
	c0.13-9.52,0.08-19.09,4.12-27.96c1.69-3.72,3.95-7.27,6.47-10.49c12.25-15.65,19.25-33.34,21.46-53.03
	c0.92-8.18,2.78-16.33,2.78-24.5c0-10.12-2.81-19.7-11.82-25.97c-7.4-5.15-15.11-9.84-22.44-15.08c-7.17-5.13-14.62-4.45-20.91,0.23
	c-11.27,8.39-22.9,16.54-30.24,29.26c-4.46,7.73-6.01,16.05-7.39,24.56c-1,6.17-1.51,12.46-3.14,18.46
	c-1.48,5.46-5.48,9.36-10.86,11.52c-6.13,2.46-14.46-2.67-16.39-9.02c-1.98-6.52-3.84-13.24-4.42-19.98
	c-0.75-8.77,0.27-17.68-0.31-26.47c-0.57-8.54-1.19-17.31-3.63-25.43c-3.1-10.3-11.57-17.51-24.24-18.56
	c-5.32-0.44-10.66-0.68-16-1.02"/>
<path class="st1" d="M677.42,291.96c-8.73,2.46-16.38,6.67-23.04,12.95c-10.21,9.63-8.53,20.26-0.77,28.87
	c11.81,13.1,26.05,23.43,41.77,31.74c15.88,8.39,38.07,0.63,45.91-14.14c7.1-13.39,3.67-25.45-6.93-34.87
	c-11.44-10.17-25.09-16.98-39.05-22.79c-5.15-2.14-11.55-1.27-17.39-1.77"/>
</svg>
